<?xml version="1.0" standalone="no"?>
<!DOCTYPE svg PUBLIC "-//W3C//DTD SVG 1.1//EN" "http://www.w3.org/Graphics/SVG/1.1/DTD/svg11.dtd" >
<svg xmlns="http://www.w3.org/2000/svg">
<metadata>
This is a custom SVG webfont generated by Font Squirrel.
Copyright   :  1999 Digital Graphic Labs  All Rights Reserved
Designer    : Digital Graphic Labs
Foundry     : Digital Graphic Labs
Foundry URL : httpwwwmtsnetdgl
</metadata>
<defs>
<font id="webfontqnIp6qt9" horiz-adv-x="1685" >
<font-face units-per-em="2048" ascent="1638" descent="-410" />
<missing-glyph horiz-adv-x="700" />
<glyph unicode=" "  horiz-adv-x="700" />
<glyph unicode="&#x09;" horiz-adv-x="700" />
<glyph unicode="&#xa0;" horiz-adv-x="700" />
<glyph unicode="!" horiz-adv-x="492" d="M244 1474q44 -2 80.5 -28t62.5 -66t39.5 -92t11.5 -104q-4 -102 -23 -203t-45 -201l-53 -199q-27 -100 -49 -200h-52q-20 100 -48 201l-53 200q-25 100 -43 201t-21 201q0 22 1.5 46t5.5 49t11 49t18 46t26 41t34 32t43 20.5t54 6.5zM244 -16q-32 0 -61 12t-51 33.5 t-34 51t-12 61.5q0 33 12 62t34 50.5t51 34.5t61 13q33 0 62.5 -13t51 -34.5t34 -50.5t12.5 -62q0 -32 -12.5 -61.5t-34 -51t-51 -33.5t-62.5 -12z" />
<glyph unicode="&#x22;" horiz-adv-x="937" d="M250 1490q34 -2 66 -15t57 -38t41 -62t18 -89q2 -34 -5.5 -67.5t-22 -66t-36.5 -62.5t-48 -56.5t-57 -49.5t-65 -40.5t-69.5 -29t-71.5 -15.5v34q19 10 45 29.5t50 47.5t44 64t26 81q-34 4 -61 19.5t-46 37.5t-29 48.5t-12 53.5q-2 36 13.5 69t41.5 58t58 38t63 11z M692 1490q34 -2 66 -15t57 -38t41 -62t18 -89q1 -34 -6 -67.5t-21.5 -66t-36.5 -62.5t-48 -56.5t-57 -49.5t-65 -40.5t-69.5 -29t-71.5 -15.5v34q19 10 45 29.5t50 47.5t44 64t26 81q-34 4 -61 19.5t-46 37.5t-29 48.5t-12 53.5q-2 36 13.5 69t41.5 58t58.5 38t62.5 11z" />
<glyph unicode="#" horiz-adv-x="1024" d="M34 352l17 172h171l40 290h-160l18 170h164l58 392h176l-57 -386h171l56 392h176l-56 -392h170l-16 -176h-177l-39 -290h170l-17 -177h-177l-62 -375h-170l50 375h-170l-52 -381h-176l52 386h-160zM438 814l-46 -290h177l40 289z" />
<glyph unicode="$" horiz-adv-x="1175" d="M944 1440v-348h-40q-24 58 -50 104t-60 79t-76 53t-98 26v-455q33 -14 68.5 -32.5t71.5 -41.5t71 -50t66 -57t57.5 -62.5t46 -68t30 -73t10.5 -76.5q0 -71 -28.5 -135.5t-82 -115.5t-132 -85t-178.5 -45v-62h-102v62q-42 3 -81 11l-75 15q-36 7 -72 13t-74 6 q-10 0 -18.5 -1t-17 -5.5t-16.5 -12t-16 -21.5h-34l6 382h45q2 -36 12 -69t26.5 -61t38 -53t47 -45t53.5 -36t57.5 -27.5t60 -18t58.5 -9.5v473q-90 49 -161.5 96t-122 98.5t-77 110.5t-26.5 133q0 34 8.5 69t24 69t37 66t48.5 60t58.5 51.5t66 41t70.5 28.5t74 13v56h102 v-50q30 -2 60 -10l61 -16q31 -8 62 -14t61 -6q8 0 14 5t11.5 12t10 15t10.5 14h34zM620 534v-403q32 10 63.5 29t57 43.5t40.5 53.5t15 61q0 35 -17 65.5t-43 56.5t-57 50zM518 1360q-40 -10 -72 -28t-54 -41t-33.5 -50t-11.5 -57q0 -35 15.5 -66.5t40 -59t55 -52 t60.5 -44.5v398z" />
<glyph unicode="%" horiz-adv-x="1920" d="M1490 716q-28 0 -50 -9t-39 -25t-30 -37.5t-22 -46.5t-14.5 -52.5t-9 -55t-4.5 -54t-1 -50.5q0 -23 1.5 -49.5t5.5 -54.5t10.5 -56t16.5 -53t23 -47t29.5 -38t37 -24t46.5 -8q24 2 45 11.5t37.5 26t29.5 37.5t22.5 46t16.5 52t11.5 54.5t6.5 54t2 48.5q0 24 -1.5 50.5 t-5 54t-10 55t-15.5 52.5t-22 46.5t-30 37.5t-39 25t-48 9zM1485 780q44 1 84 -7.5t76.5 -24t68 -37.5t58 -49t47 -58t35 -64t22 -67.5t7.5 -68.5q0 -36 -5.5 -72.5t-17.5 -72t-30 -69.5t-42 -63.5t-55 -54t-69 -41.5t-82.5 -25t-96.5 -6t-95.5 12t-80.5 27t-67 40t-53 50 t-40.5 58t-28.5 64t-16.5 67t-5.5 68q0 54 9 99t25.5 82.5t39.5 67.5t50.5 53.5t59.5 40t65.5 27.5t68.5 17t69 7zM426 1428q-28 0 -50 -9t-39 -25t-29.5 -38t-21.5 -47t-15 -52.5t-9.5 -55t-4.5 -54t-1 -49.5t2 -49.5t6 -54.5t10 -56t16 -53.5t23 -47t29.5 -37.5t37 -24.5 t46.5 -7.5q24 1 45 10.5t37.5 25.5t29.5 38t23 47t16.5 52t11.5 54t7 53.5t2 49.5t-2 49.5t-5.5 54t-10 55t-15.5 52.5t-22 47t-30 38t-39 25t-48 9zM421 1490q44 1 84.5 -6.5t76.5 -23.5t67.5 -38t58 -49t47.5 -58t35 -64t21.5 -67.5t7.5 -68.5q0 -36 -5.5 -72.5t-17.5 -72 t-29.5 -69t-42 -63.5t-55.5 -54t-68.5 -41t-82 -25.5t-97.5 -6.5q-51 2 -95 12.5t-81 27.5t-67 40t-53 50t-40 58t-28.5 64t-17 67t-5.5 68q0 53 9 98.5t26 82.5t40 67t50 53t59 40t65.5 28t68.5 16.5t69 6.5zM1468 1485l-910 -1496h-132l916 1496h126z" />
<glyph unicode="&#x26;" horiz-adv-x="1705" d="M660 1490q29 0 61.5 -2.5t65 -9t65 -17t61.5 -26t53.5 -35.5t42 -46t26.5 -59t6 -72q-3 -56 -22.5 -103.5t-57 -88t-92.5 -77t-129 -72.5l164 -185l166 -185q17 28 33.5 59t28.5 63.5t19 66t4 67.5q-2 26 -12.5 54t-27.5 50t-40 35t-51 9v28h472v-28q-20 8 -45 -1 t-50 -28t-47 -45t-34 -52l-90 -173l-92 -173q7 -11 20 -28l32 -39q18 -22 40 -45.5t48 -47.5t55 -46t60 -40t64 -29t67 -15q18 -2 35.5 3t34 14l33.5 18t34 16l17 -11q-38 -64 -79.5 -104.5t-86 -63.5t-92.5 -31.5t-100 -10.5q-51 -2 -102.5 11t-99 38t-89 60t-73.5 77 q-58 -56 -110.5 -91t-104.5 -56t-105.5 -30t-111.5 -9q-61 -1 -112.5 6.5t-95 23.5t-78 38t-62 50t-47.5 60t-33.5 67t-20 72t-7.5 75q-2 76 23.5 137t70 112t103 94t122.5 83q-32 30 -65 69t-59.5 83.5t-42.5 93t-15 96.5q1 33 7.5 65.5t19 62.5t32.5 58.5t47 53t61.5 44 t78 33.5t95.5 21.5t114 7.5zM666 950q26 13 49 34t40 46.5t26 53.5t4 54l-8 42t-9.5 44t-13.5 43t-18 40t-23.5 35t-30.5 27.5t-37.5 18t-46.5 6.5t-51.5 -11.5t-45 -30t-31.5 -42t-9 -47.5q4 -42 14.5 -77.5t36.5 -65.5zM461 711q-24 -19 -45 -41t-36.5 -46.5t-24.5 -51 t-8 -54.5t7 -58t18 -60t28 -60t37 -57t46 -51t54.5 -42.5t63 -31t71.5 -16.5q30 -4 59.5 8t58 29t54.5 36t49 29l-105 122l-106 120l-108 115q-54 57 -113 110z" />
<glyph unicode="'" horiz-adv-x="492" d="M250 1490q34 -2 66 -15t57 -38t41 -62t18 -89q2 -34 -5.5 -67.5t-22 -66t-36.5 -62.5t-48 -56.5t-57 -49.5t-65 -40.5t-69.5 -29t-71.5 -15.5v34q19 10 45 29.5t50 47.5t44 64t26 81q-34 4 -61 19.5t-46 37.5t-29 48.5t-12 53.5q-2 36 13.5 69t41.5 58t58 38t63 11z" />
<glyph unicode="(" horiz-adv-x="747" d="M774 1514l28 -40q-62 -34 -112 -76t-88 -90t-66 -101t-47.5 -109.5t-31.5 -115.5t-18.5 -119t-9.5 -119.5t-3 -117.5t3 -116t9.5 -116t18.5 -115t31.5 -111.5t47.5 -106.5t66 -99.5t88 -91t112 -80.5l-22 -46q-84 26 -158 64t-137 84t-115 99t-94 113t-73.5 124.5 t-52 132t-31.5 137.5t-11 139t9.5 137t29 133t50 128t71 120.5t92.5 110t115 97.5t138 83.5t161 67.5z" />
<glyph unicode=")" horiz-adv-x="747" d="M-34 1514q86 -29 161 -67.5t138 -83.5t114.5 -97.5t92 -110t71 -120.5t50 -128t29.5 -133t10 -137q0 -70 -11 -139.5t-32 -137t-52 -132t-73 -124.5t-94 -113t-115 -99t-137 -84t-158 -64l-22 46q62 37 112 80.5t88 91t66 99.5t47 106.5t31 111.5t19 115t9.5 116t2.5 116 t-2.5 117.5t-9.5 119.5t-19 119t-31 115.5t-47 109.5t-66 101t-88 90t-112 76z" />
<glyph unicode="*" horiz-adv-x="937" d="M466 1490q20 0 41 -9t38 -24t28 -35t13 -40q2 -26 -7.5 -50.5t-24 -48t-31.5 -47t-28 -47.5h-63q-12 24 -28 46.5l-31 45.5t-25 46t-6 49q2 22 14 42t29.5 36t38.5 26t42 10zM859 1199q6 -19 3.5 -41t-11.5 -43t-24.5 -38t-33.5 -25q-24 -10 -50.5 -9t-53.5 8t-54 16 t-54 12l-19 59q19 18 35 41t33 44.5t36.5 38t45.5 21.5q20 4 43 -1t44 -16.5t37 -29t23 -37.5zM708 732q-16 -12 -38 -16.5t-45 -2t-44 11.5t-33 25q-18 20 -25 45t-8.5 53t-2 56.5t-4.5 54.5l50 37q22 -12 49 -20.5t53 -18t47.5 -23.5t34.5 -36q10 -18 12 -42t-2.5 -47 t-15.5 -44t-28 -33zM217 735q-16 12 -27.5 31.5t-15.5 41.5t-2 45t12 39q14 23 36 37.5t48 24.5t53 19t51 23l50 -38q-4 -26 -4 -54t-1 -55t-7.5 -52t-24.5 -43q-14 -16 -35.5 -25t-45.5 -12t-46.5 1.5t-40.5 16.5zM68 1211q6 19 21.5 35.5t35.5 28t41.5 16.5t41.5 0 q26 -6 46.5 -22.5t38 -38t34.5 -45t37 -41.5l-20 -59q-26 -4 -52 -12.5t-52.5 -15.5t-52 -9t-49.5 9q-20 8 -35 26t-25 39.5t-13 45t3 43.5zM461 1007q-14 0 -26.5 5.5t-21.5 14.5t-15 21.5t-6 26.5t6 26.5t15 21.5t21 15t27 6q14 0 26.5 -6t21.5 -15t14.5 -21t5.5 -27 q0 -14 -5.5 -26.5t-14.5 -21.5t-21.5 -14.5t-26.5 -5.5z" />
<glyph unicode="+" horiz-adv-x="1125" d="M506 1092h108v-484h484v-108h-484v-500h-108v500h-484v108h484v484z" />
<glyph unicode="," horiz-adv-x="492" d="M239 318q34 0 67.5 -12.5t60.5 -38t43 -64t16 -89.5q0 -36 -9 -69t-25.5 -64t-40 -59t-50.5 -52t-57 -44t-62 -35.5t-63.5 -26t-61.5 -14.5v40q28 10 53 28t45.5 41.5t36.5 52t24 60.5q2 6 -4.5 11t-12.5 6q-40 4 -65 20.5t-39 39.5t-19.5 51t-7.5 54q-2 30 10 59t35 53 t55.5 38t70.5 14z" />
<glyph unicode="-" horiz-adv-x="705" d="M74 814h552v-171h-552v171z" />
<glyph unicode="." horiz-adv-x="492" d="M244 -22q-34 0 -64 13t-52 35t-35 52t-13 64t13 64t35 52.5t52 35.5t64 13t64 -13t53 -35.5t36 -52.5t13 -64t-13 -64t-36 -52t-53 -35t-64 -13z" />
<glyph unicode="/" horiz-adv-x="640" d="M626 1474l-450 -1474h-170l444 1474h176z" />
<glyph unicode="0" horiz-adv-x="1390" d="M682 1490q88 1 162 -16.5t136 -50.5t111 -79.5t88 -102t66.5 -118t45 -129t26.5 -133.5t9 -133q0 -64 -8 -130t-25 -130t-44 -124.5t-64 -114t-86 -98.5t-109.5 -77.5t-134 -51t-161.5 -18.5q-92 -1 -167 15.5t-136.5 48.5t-109 76.5t-83.5 97.5t-61.5 112.5t-42 122 t-25.5 126t-12 123.5q-4 65 2.5 132.5t22.5 135t42.5 131.5t64 121t86.5 105t110.5 83.5t135 55t161.5 20.5zM694 1400q-49 0 -88.5 -19t-70 -51.5t-53.5 -76.5t-39.5 -94.5t-27.5 -106.5t-17 -111t-8.5 -108t-2.5 -99t2.5 -98t8.5 -107t16 -109t26 -104.5t39 -94t54 -76 t71 -51.5t90 -20q52 -1 92.5 16.5t71 49.5t52.5 75t36.5 94t23 106t13.5 109.5t6 107t1 96.5q0 46 -1 99t-6 109t-13.5 112t-23 107.5t-36.5 96t-52.5 77.5t-71 52t-92.5 19z" />
<glyph unicode="1" horiz-adv-x="725" d="M529 1490v-1308q0 -38 13.5 -67t35.5 -48t50 -29t54 -10h29v-28h-677v28h28q28 0 55 8.5t47.5 27.5t33 50.5t12.5 79.5v762q0 14 -1 32t-6 33t-16 26t-33 11q-16 0 -33 -4t-32.5 -11t-29.5 -16t-25 -20l-22 29l483 454h34z" />
<glyph unicode="2" horiz-adv-x="1195" d="M552 1490q36 0 73 -6t73 -18t70 -30.5t64 -43t55.5 -55.5t44 -67.5t29.5 -79.5t12 -92q1 -66 -14 -130.5t-43 -127t-66.5 -121.5t-83.5 -116t-94 -109l-99 -100l-97 -92l-89 -80h529q40 0 74 21t62.5 54t51 74t40.5 79h28l-68 -450h-1076l108 108l109 112l105 114 q51 58 96.5 118t84.5 121t68 124t48 128t25 131q2 19 -2 41.5t-13 47.5t-22 49t-30 47t-39 42.5t-47 34t-54 22t-61 6.5q-48 -2 -97 -20t-91 -48.5t-75 -72t-50 -87.5h-34q6 62 22 116t39.5 99.5t53.5 82t64 65t73 49t79 34.5t82 20t82 6z" />
<glyph unicode="3" horiz-adv-x="1045" d="M438 1485q35 -2 71.5 -6t72 -12.5t69.5 -22.5t64.5 -34t57.5 -47t47 -62t33 -78t17 -97q4 -50 -16 -97t-55 -88t-80.5 -75t-92.5 -58q68 -6 128 -38t106 -83t74.5 -119t32.5 -147q2 -40 -5 -81t-23 -80.5t-39.5 -76t-55 -68t-69.5 -57.5t-82 -43.5t-93.5 -26t-104.5 -4.5 q-77 4 -137.5 17.5t-113 36.5t-100.5 54.5t-98 72.5v103q40 -32 82 -59t86 -47t90 -32.5t94 -15.5q32 -2 59.5 4.5t51 20t42.5 33t34 42.5t26 49.5t18 53t10.5 53t3.5 51.5q0 24 -3.5 49.5t-11.5 51.5t-22 51t-34 48t-47 43t-62 34t-80 22t-99 8q-17 0 -36.5 -2l-39.5 -4 l-42 -6l-41 -5v103q43 -8 86 -9t85 -3t76 4t61.5 19t49 31.5t37.5 41t27 48t17 52t9 53.5t1 53q-2 79 -17 134.5t-42 91.5t-64 53t-81 17q-53 0 -102.5 -23t-90.5 -63t-69.5 -94t-39.5 -116h-22v370h22q4 -9 11.5 -20.5t17 -20.5t19.5 -15t20 -2q13 4 38 16.5t62.5 25 t87.5 21t114 6.5z" />
<glyph unicode="4" horiz-adv-x="1318" d="M632 569h-604v34l734 899h182v-820h336v-108h-336v-386q0 -27 9 -55.5t26.5 -51.5t44 -38t62.5 -15h46v-28h-688v28h28q27 0 55.5 10t51.5 28.5t38 46t15 63.5v393zM199 682h433v536z" />
<glyph unicode="5" horiz-adv-x="1067" d="M1036 1474l-24 -194h-483l-74 -455q130 -13 221.5 -47.5t149.5 -88t86 -123.5t32 -156q2 -40 -6 -81t-25.5 -79t-43 -74t-58.5 -66t-73 -55t-85 -42.5t-95 -27t-103 -7.5q-116 2 -225.5 48t-207.5 128v108q36 -30 75.5 -58t81 -49t84.5 -34t89 -13q36 0 65 9t52.5 24 t42 36.5t32.5 46.5t23.5 52.5t16 56.5t9.5 57t5 54q1 28 -2.5 56t-12.5 55t-23 53t-34 49t-46.5 42.5t-59 34t-72.5 23.5t-86 11q-17 1 -35.5 -1.5t-37.5 -6.5l-38 -8t-37 -6l114 728h808z" />
<glyph unicode="6" horiz-adv-x="1175" d="M1120 1479v-79q-94 1 -175 -13.5t-149.5 -42.5t-124.5 -68t-100.5 -90t-78.5 -108t-59 -122t-40 -133t-23 -141q26 36 65 69t85.5 58t98 38t101.5 10q36 -2 74 -10.5t75.5 -22.5t72 -34.5t65.5 -47t56.5 -57.5t43.5 -68.5t27.5 -79t7.5 -89.5q-2 -46 -12 -91t-28.5 -86.5 t-44.5 -79t-60 -69.5t-75.5 -57t-90.5 -43t-105 -27t-120 -8q-130 2 -232 44.5t-173 122.5t-110 196t-42 262q-2 80 11.5 160t41.5 156t71 147t100 133t129 113t159 88t188.5 58t217.5 23q36 0 76.5 -4t76.5 -7zM603 711q-18 1 -37 -2.5t-37.5 -10.5t-36.5 -16.5t-33.5 -21 t-29.5 -24t-24.5 -25.5t-18.5 -25t-10 -23q-4 -14 -6 -30.5t-2.5 -34t0 -35t2.5 -31.5q10 -104 30 -171.5t51 -107.5t73 -57.5t96 -21.5q26 -2 50 5t46 21t41 33t34.5 43t27.5 50t19.5 52.5t10.5 53t-1 49.5q-8 56 -17.5 99.5t-21 76.5t-25.5 57t-29 41t-32.5 27t-36.5 16 t-40 9t-43 4z" />
<glyph unicode="7" horiz-adv-x="1175" d="M12 1018l90 456h1058l-642 -1474h-348l558 1302h-438q-24 0 -45 -7t-40 -19.5t-35.5 -30t-31.5 -38.5t-28.5 -44t-24.5 -47.5t-21 -49t-18 -48.5h-34z" />
<glyph unicode="8" horiz-adv-x="1175" d="M574 1485q38 -1 77.5 -5t77.5 -12.5t73.5 -22t66.5 -31.5t58 -42t46 -54t31 -66t14 -80q2 -33 -4.5 -62t-19 -54.5t-29.5 -47.5t-38 -42t-43 -37.5l-44 -33.5l-44 -31l-40 -28q34 -17 68 -36.5t65.5 -41t60.5 -46t54 -52t45.5 -58t34 -64.5t21 -72t5.5 -79 q-2 -61 -16.5 -111t-38 -89t-55.5 -70t-70 -53.5t-80.5 -38t-87.5 -24.5t-91 -13t-91 -4q-138 0 -232 20t-152.5 59t-88 96t-39.5 131q-4 31 1 60.5t16.5 57.5t30 54t41.5 50.5t50 47t57 42.5t61 37l62 33q-31 16 -62 34.5t-60 39.5t-55 44.5t-48.5 49t-40 53t-29.5 56.5 t-17 59t-1 62q10 96 42 173.5t91 132t149 83t218 26.5zM660 888q42 52 64 113t22 125q0 70 -17 120t-47 82t-69 48t-84 18q-42 2 -79.5 -15t-65.5 -45t-44 -63t-16 -71t9 -66t24.5 -54t37 -44t46.5 -37t53 -31l56 -28l56 -26q28 -12 54 -26zM484 614q-26 -20 -51.5 -48.5 t-45 -63t-29.5 -71.5t-6 -73q22 -150 84 -220t172 -64q45 2 87.5 18t74.5 44t50 66t16 82q-1 30 -11 58t-26.5 53t-38.5 47.5t-48 43t-54 38.5t-58 34.5t-59 30.5z" />
<glyph unicode="9" horiz-adv-x="1175" d="M558 1490q58 -1 112.5 -12t105 -32t96.5 -51.5t84.5 -70t69.5 -88.5t52.5 -106.5t32.5 -123.5t9 -142q-1 -80 -16.5 -162t-45.5 -161t-74 -152.5t-103.5 -137t-133 -115.5t-162.5 -88t-193 -53t-222 -11q-32 2 -65 3l-65 2l4 79q156 -8 285 37t225 137t157 227t79 305 q-44 -42 -86 -73t-84 -50.5t-85.5 -29t-90.5 -7.5q-44 1 -85 10.5t-78 26.5t-70 39.5t-61 50t-50 59t-38 65.5t-25 70t-9 72q-1 58 10.5 109.5t32.5 96.5t51 83.5t67 70t80 55t90 39t97.5 23t101.5 6.5zM796 928v118q0 27 -3.5 56.5t-11 58.5t-19.5 57t-27.5 54t-35.5 47.5 t-44.5 38t-52.5 26t-62 10.5q-32 1 -58 -6.5t-48 -22.5t-38.5 -35t-29 -43.5t-21 -49.5t-13.5 -52.5t-6.5 -53.5t-1.5 -50q1 -25 4 -51.5t8.5 -53t14.5 -52t22 -48.5t31 -43t41 -35t52.5 -24.5t65.5 -11.5q20 -2 40 4t40 16t39 23t36 27t31.5 29t25 28t16 23t5.5 16z" />
<glyph unicode=":" horiz-adv-x="494" d="M239 648q-34 0 -64.5 13t-52.5 36t-35 53t-13 64t13 64t35 52t52.5 35t64.5 13t64 -13t52.5 -35t35.5 -52t13 -64t-13 -64t-35.5 -53t-52.5 -36t-64 -13zM239 -16q-34 0 -64.5 12.5t-52.5 35t-35 52.5t-13 64t13 64t35 52.5t52.5 35.5t64.5 13t64 -13t52.5 -35.5 t35.5 -52.5t13 -64t-13 -64t-35.5 -52.5t-52.5 -35t-64 -12.5z" />
<glyph unicode=";" horiz-adv-x="494" d="M239 318q34 0 67.5 -12.5t60.5 -38t43 -64t16 -89.5q0 -36 -9 -69t-25.5 -64t-40 -59t-50.5 -52t-57 -44t-62 -35.5t-63.5 -26t-61.5 -14.5v40q28 10 53 28t45.5 41.5t36.5 52t24 60.5q2 6 -4.5 11t-12.5 6q-40 4 -65 20.5t-39 39.5t-19.5 51t-7.5 54q-2 30 10 59t35 53 t55.5 38t70.5 14zM239 648q-34 0 -64.5 13t-52.5 36t-35 53t-13 64t13 64t35 52t52.5 35t64.5 13t64 -13t52.5 -35t35.5 -52t13 -64t-13 -64t-35.5 -53t-52.5 -36t-64 -13z" />
<glyph unicode="&#x3c;" horiz-adv-x="1126" d="M1064 1070v-126l-882 -410l888 -403v-131l-1021 468v137z" />
<glyph unicode="=" horiz-adv-x="1126" d="M22 802h1076v-114h-1076v114zM22 404h1076v-114h-1076v114z" />
<glyph unicode="&#x3e;" horiz-adv-x="1126" d="M55 1070l1015 -465v-137l-1021 -468v131l887 403l-881 410v126z" />
<glyph unicode="?" horiz-adv-x="704" d="M308 -22q-34 0 -64 13t-53 35t-36 52t-13 64t13 64t36 52.5t53 35.5t64 13t64 -13t52 -35.5t35 -52.5t13 -64t-13 -64t-35 -52t-52 -35t-64 -13zM352 1490q58 -2 114 -22t101 -61t73 -102t32 -145q2 -66 -22 -129t-64 -124t-93 -119l-111 -118q-22 -22 -42.5 -47 t-38 -52.5t-29.5 -56.5t-16 -59q-2 -10 1 -19.5t5 -19.5h-18q-15 19 -29.5 41t-25.5 46t-18 49.5t-6 50.5q1 34 9 68.5t20.5 67.5t28.5 65t33 62l29 53q14 26 25.5 53.5t18.5 58.5t7 67q0 27 -11 54.5t-31.5 49.5t-49 36t-62.5 14q-20 0 -41 -5t-40 -15t-35 -24t-26 -30h-12 h-11q19 66 52.5 123.5t77 100t96 66.5t109.5 22z" />
<glyph unicode="@" horiz-adv-x="1780" d="M928 1498q98 -1 180.5 -20.5t152 -53.5t125.5 -81t100 -103t77 -119t55 -130t34.5 -134t16.5 -133q4 -61 -5.5 -126t-29.5 -129t-49 -125.5t-66 -115.5t-80.5 -99t-91 -76t-99.5 -47t-104 -11q-28 2 -49 7.5t-36.5 13.5t-26 19t-17.5 22.5t-10 24t-5.5 25t-3 25 t-2.5 22.5q-34 -28 -64.5 -56.5t-62 -51t-64.5 -35.5t-71 -11q-49 3 -89 16.5t-71.5 36t-55 52t-41 62.5t-29 70t-18.5 74.5t-10.5 74t-3.5 70.5q-1 44 6.5 95t22.5 103t38 104.5t52.5 100t65 88.5t77.5 72t89 49t98 18q20 0 40.5 -4.5t40.5 -13.5t40 -21.5t37.5 -26.5 t34 -29.5t29.5 -31t23.5 -29.5t17.5 -26l30 146h149l-143 -794q-4 -20 -2 -36t8.5 -28.5t17 -19.5t24.5 -7q28 0 56.5 11.5t56 32.5t54.5 51t50 68t43 83t36 96t26 106.5t14 115.5q4 62 -7.5 121.5t-35 115t-58.5 106t-79 93.5t-95 78.5t-107 60t-116 38t-120 13.5 q-92 0 -172 -22.5t-147.5 -62.5t-123.5 -94t-100.5 -118t-77.5 -136t-54.5 -146t-32 -148t-10.5 -144q0 -64 9 -131t27.5 -133t48 -129t71.5 -118t97 -102t126 -81t158 -53t193 -20q86 0 166 11.5t156 44.5t149 92t145 152h168q-68 -112 -146.5 -196.5t-174 -139.5 t-209.5 -82t-254 -24q-113 2 -210.5 21.5t-179 54.5t-148 84.5t-119 110t-91 130.5t-63.5 149t-38 163.5t-13 173.5q0 82 12.5 170t38 177t64 174t91 162t118.5 142t146 112t175 73t205 26zM869 938q-36 -1 -66.5 -15.5t-57 -38.5t-48 -57t-39.5 -71.5t-32 -80t-25 -83.5 t-18.5 -83t-12.5 -77q-2 -22 0 -46t8.5 -49t17 -49.5t24.5 -47t30 -41.5t34 -32t38 -20t40 -5q42 4 77 20t65 40t55 56t44 68t33 76t23.5 80t14 79.5t4.5 75.5q0 26 -4 52.5t-11 52.5t-18 51t-24 47t-30 41t-36 32t-40.5 19t-45.5 6z" />
<glyph unicode="A" horiz-adv-x="1622" d="M876 1490l444 -1166l18 -48q9 -24 19 -48t22 -47t26.5 -43.5t33.5 -38.5t41.5 -32.5t49.5 -24.5q28 -10 63 -14v-28h-694v28q34 2 58.5 9t40.5 17t26 23t13.5 28t3 31t-3.5 32t-8 31t-11 29l-125 324h-443l-114 -336q-9 -28 -10.5 -57t11.5 -55t43 -46q30 -22 86 -30v-28 h-444v28q47 8 84.5 34t65.5 62t49 78t35 82l426 1206h194zM490 650l364 -2l-188 501z" />
<glyph unicode="a" horiz-adv-x="1622" d="M876 1490l444 -1166l18 -48q9 -24 19 -48t22 -47t26.5 -43.5t33.5 -38.5t41.5 -32.5t49.5 -24.5q28 -10 63 -14v-28h-694v28q34 2 58.5 9t40.5 17t26 23t13.5 28t3 31t-3.5 32t-8 31t-11 29l-125 324h-443l-114 -336q-9 -28 -10.5 -57t11.5 -55t43 -46q30 -22 86 -30v-28 h-444v28q47 8 84.5 34t65.5 62t49 78t35 82l426 1206h194zM490 650l364 -2l-188 501z" />
<glyph unicode="B" horiz-adv-x="1472" d="M22 1474h837q44 0 86 -7t81.5 -20t75.5 -32t66.5 -42t55 -50t42.5 -58t27 -64t9 -69q0 -76 -26 -133t-75 -99t-119 -70t-154 -50q130 -15 219 -50.5t144.5 -86t80.5 -114.5q26 -65 28 -137v-8q0 -30 -6 -62q-7 -36 -21.5 -70t-35 -65.5t-47 -59.5t-58.5 -51.5t-68.5 -40 t-77 -26t-84.5 -9.5h-980v28h16q48 0 79 12q36 13 57 35.5t28.5 52t7.5 60.5v1098q0 26 -8 54t-25 51t-41 38.5t-56 15.5h-58v29zM540 717v-495q0 -30 9 -56t31 -45t59 -30t95 -11q28 0 56 2.5t55 9t53 18.5t48 29t41 41t32 56t20 72t7 90q0 47 -9 85.5t-25 69.5t-38 55.5 t-49 43t-57 30.5t-61 20t-63 11.5t-62 3.5h-142zM540 1394v-592h114q76 0 136 18.5t100 56t60 93.5q18 50 17 117v17q-1 26 -5 51.5t-12 51t-20 49t-28 44t-38 38t-49 30t-60 19.5t-73 7h-142z" />
<glyph unicode="b" horiz-adv-x="1472" d="M22 1474h837q44 0 86 -7t81.5 -20t75.5 -32t66.5 -42t55 -50t42.5 -58t27 -64t9 -69q0 -76 -26 -133t-75 -99t-119 -70t-154 -50q130 -15 219 -50.5t144.5 -86t80.5 -114.5q26 -65 28 -137v-8q0 -30 -6 -62q-7 -36 -21.5 -70t-35 -65.5t-47 -59.5t-58.5 -51.5t-68.5 -40 t-77 -26t-84.5 -9.5h-980v28h16q48 0 79 12q36 13 57 35.5t28.5 52t7.5 60.5v1098q0 26 -8 54t-25 51t-41 38.5t-56 15.5h-58v29zM540 717v-495q0 -30 9 -56t31 -45t59 -30t95 -11q28 0 56 2.5t55 9t53 18.5t48 29t41 41t32 56t20 72t7 90q0 47 -9 85.5t-25 69.5t-38 55.5 t-49 43t-57 30.5t-61 20t-63 11.5t-62 3.5h-142zM540 1394v-592h114q76 0 136 18.5t100 56t60 93.5q18 50 17 117v17q-1 26 -5 51.5t-12 51t-20 49t-28 44t-38 38t-49 30t-60 19.5t-73 7h-142z" />
<glyph unicode="C" horiz-adv-x="1472" d="M859 1490q56 0 110 -7t108 -19l110 -24q55 -14 115 -24q4 0 15.5 6.5t23 17.5t21 24.5t9.5 25.5h40v-523h-40q-22 118 -69.5 202.5t-113.5 138.5t-145 79q-74 24 -152 24h-9q-118 -2 -203 -50.5t-140 -134.5t-83 -203t-30 -255v-15q0 -75 10 -140q10 -72 30 -132.5 t49 -110.5t65 -90t78 -69t88.5 -48t96 -28.5t101.5 -9.5q88 0 156 22.5t124.5 60.5t105.5 88l98 102v-130q-50 -70 -119 -124t-149 -90t-166 -54q-81 -17 -160 -17q-4 1 -9 1q-99 1 -184.5 18.5t-157.5 50t-130.5 77t-105 98.5t-80 114.5t-55.5 125.5q-20 65 -30 132 q-8 56 -8 111v23q2 76 17 148.5t42 140t65.5 128.5t89 113t111.5 94t133 71t153.5 45t173.5 16z" />
<glyph unicode="c" horiz-adv-x="1472" d="M859 1490q56 0 110 -7t108 -19l110 -24q55 -14 115 -24q4 0 15.5 6.5t23 17.5t21 24.5t9.5 25.5h40v-523h-40q-22 118 -69.5 202.5t-113.5 138.5t-145 79q-74 24 -152 24h-9q-118 -2 -203 -50.5t-140 -134.5t-83 -203t-30 -255v-15q0 -75 10 -140q10 -72 30 -132.5 t49 -110.5t65 -90t78 -69t88.5 -48t96 -28.5t101.5 -9.5q88 0 156 22.5t124.5 60.5t105.5 88l98 102v-130q-50 -70 -119 -124t-149 -90t-166 -54q-81 -17 -160 -17q-4 1 -9 1q-99 1 -184.5 18.5t-157.5 50t-130.5 77t-105 98.5t-80 114.5t-55.5 125.5q-20 65 -30 132 q-8 56 -8 111v23q2 76 17 148.5t42 140t65.5 128.5t89 113t111.5 94t133 71t153.5 45t173.5 16z" />
<glyph unicode="D" horiz-adv-x="1730" d="M17 1474h871q92 0 174 -18t152 -50t129 -76.5t106 -98t83 -115t60.5 -127t37.5 -133.5t14 -134v-15q0 -57 -10 -114q-11 -65 -33.5 -128t-57.5 -121.5t-81 -110t-104 -94.5t-126 -74t-147 -48t-169 -17h-894v34h52q25 0 48.5 15t42 37t29.5 49t11 53v1104q0 37 -14 65.5 t-36.5 48t-49.5 29.5t-54 10h-34v29zM524 1376v-1126q0 -36 13 -66.5t41 -53t72 -36.5q44 -12 106 -14q7 0 14 -1q44 0 88 6q50 6 97 22t91 41.5t81 62.5t68 86.5t53 112.5t35 140.5t14 171.5v13q-1 57 -9 114q-10 63 -29 123t-48 115.5t-68.5 104t-88 87.5t-106.5 67 q-58 27 -126 41q-59 12 -126 13h-19q-38 -1 -76.5 -4.5t-76.5 -19.5z" />
<glyph unicode="d" horiz-adv-x="1730" d="M17 1474h871q92 0 174 -18t152 -50t129 -76.5t106 -98t83 -115t60.5 -127t37.5 -133.5t14 -134v-15q0 -57 -10 -114q-11 -65 -33.5 -128t-57.5 -121.5t-81 -110t-104 -94.5t-126 -74t-147 -48t-169 -17h-894v34h52q25 0 48.5 15t42 37t29.5 49t11 53v1104q0 37 -14 65.5 t-36.5 48t-49.5 29.5t-54 10h-34v29zM524 1376v-1126q0 -36 13 -66.5t41 -53t72 -36.5q44 -12 106 -14q7 0 14 -1q44 0 88 6q50 6 97 22t91 41.5t81 62.5t68 86.5t53 112.5t35 140.5t14 171.5v13q-1 57 -9 114q-10 63 -29 123t-48 115.5t-68.5 104t-88 87.5t-106.5 67 q-58 27 -126 41q-59 12 -126 13h-19q-38 -1 -76.5 -4.5t-76.5 -19.5z" />
<glyph unicode="E" horiz-adv-x="1195" d="M28 1474h1053l11 -336h-28q-4 47 -18 92.5t-39 82t-60 59t-83 22.5h-330v-626h296q31 0 57.5 16t46.5 42.5t33 61.5q13 36 17 74h23v-433h-29q-2 38 -16.5 68t-37 50.5t-49.5 30.5t-56 10h-285v-454q0 -28 15 -56t38 -49.5t51 -35t56 -13.5h165q47 0 91 20t79 56t59 86 t32 110h29l-23 -357h-1098v33h29q34 0 62.5 12t48.5 33.5t31 51t11 63.5v1098q0 25 -7 51.5t-23 49.5t-39 38t-55 15h-58v34z" />
<glyph unicode="e" horiz-adv-x="1195" d="M28 1474h1053l11 -336h-28q-4 47 -18 92.5t-39 82t-60 59t-83 22.5h-330v-626h296q31 0 57.5 16t46.5 42.5t33 61.5q13 36 17 74h23v-433h-29q-2 38 -16.5 68t-37 50.5t-49.5 30.5t-56 10h-285v-454q0 -28 15 -56t38 -49.5t51 -35t56 -13.5h165q47 0 91 20t79 56t59 86 t32 110h29l-23 -357h-1098v33h29q34 0 62.5 12t48.5 33.5t31 51t11 63.5v1098q0 25 -7 51.5t-23 49.5t-39 38t-55 15h-58v34z" />
<glyph unicode="F" horiz-adv-x="1152" d="M28 1474h1053l11 -336h-28q-4 47 -18 92.5t-39 82t-60 59t-83 22.5h-330v-609h296q31 0 57.5 15.5t46.5 42.5t33 62t17 73h23v-432h-29q-2 38 -16.5 68t-37 50t-49.5 31t-56 11h-285v-472q0 -32 6 -68t22.5 -67t46.5 -51q29 -20 79 -20h34v-28h-694v28h29q34 0 62.5 12 t48.5 33.5t31 51t11 63.5v1098q0 25 -7 51.5t-23 49.5t-39 38t-55 15h-58v34z" />
<glyph unicode="f" horiz-adv-x="1152" d="M28 1474h1053l11 -336h-28q-4 47 -18 92.5t-39 82t-60 59t-83 22.5h-330v-609h296q31 0 57.5 15.5t46.5 42.5t33 62t17 73h23v-432h-29q-2 38 -16.5 68t-37 50t-49.5 31t-56 11h-285v-472q0 -32 6 -68t22.5 -67t46.5 -51q29 -20 79 -20h34v-28h-694v28h29q34 0 62.5 12 t48.5 33.5t31 51t11 63.5v1098q0 25 -7 51.5t-23 49.5t-39 38t-55 15h-58v34z" />
<glyph unicode="G" horiz-adv-x="1622" d="M80 740q0 84 16 161t45.5 145.5t72 128t94.5 109t114 88t130.5 65t143 40t152.5 13.5q64 0 120 -9t112 -23l113 -28q57 -14 121 -25q14 -2 25.5 3t21.5 15.5t18.5 26.5t14.5 35h34v-421h-34q-14 38 -34 73t-45 67.5t-55 61.5t-64 53.5t-70.5 43.5t-76 31.5t-79.5 18.5 q-30 4 -61 4q-11 -1 -21 -1q-52 -2 -99.5 -12t-89 -29t-78 -47.5t-67 -68.5t-54 -91.5t-40.5 -117.5t-27 -146t-12 -176v-21q0 -41 3 -85q4 -55 14 -111t28 -110.5t44.5 -103.5t63 -91t84.5 -73t108 -50t133 -21q16 0 34.5 1t37.5 4t37 8t35 13t31 19.5t24.5 26.5t15.5 34 q6 18 6 42l1 253q0 26 -8.5 53.5t-27 49t-46 35t-66.5 13.5v34h614v-28q-30 -4 -54.5 -17t-43 -31t-28.5 -39t-10 -41l-1 -401q-62 -26 -128 -45.5t-135 -33t-138.5 -21t-138.5 -7.5q-6 0 -13 -1q-103 0 -192 16q-95 16 -174 47t-143.5 75t-114.5 97.5t-86.5 115.5 t-60.5 128.5t-35 137t-11 140.5z" />
<glyph unicode="g" horiz-adv-x="1622" d="M80 740q0 84 16 161t45.5 145.5t72 128t94.5 109t114 88t130.5 65t143 40t152.5 13.5q64 0 120 -9t112 -23l113 -28q57 -14 121 -25q14 -2 25.5 3t21.5 15.5t18.5 26.5t14.5 35h34v-421h-34q-14 38 -34 73t-45 67.5t-55 61.5t-64 53.5t-70.5 43.5t-76 31.5t-79.5 18.5 q-30 4 -61 4q-11 -1 -21 -1q-52 -2 -99.5 -12t-89 -29t-78 -47.5t-67 -68.5t-54 -91.5t-40.5 -117.5t-27 -146t-12 -176v-21q0 -41 3 -85q4 -55 14 -111t28 -110.5t44.5 -103.5t63 -91t84.5 -73t108 -50t133 -21q16 0 34.5 1t37.5 4t37 8t35 13t31 19.5t24.5 26.5t15.5 34 q6 18 6 42l1 253q0 26 -8.5 53.5t-27 49t-46 35t-66.5 13.5v34h614v-28q-30 -4 -54.5 -17t-43 -31t-28.5 -39t-10 -41l-1 -401q-62 -26 -128 -45.5t-135 -33t-138.5 -21t-138.5 -7.5q-6 0 -13 -1q-103 0 -192 16q-95 16 -174 47t-143.5 75t-114.5 97.5t-86.5 115.5 t-60.5 128.5t-35 137t-11 140.5z" />
<glyph unicode="H" horiz-adv-x="1772" d="M28 1474h689v-29h-23q-27 0 -55.5 -7.5t-51.5 -25.5t-38 -49t-15 -77v-472h695v466q0 45 -12.5 76.5t-32 51t-45 28.5t-53.5 9h-40v29h689v-29h-11q-12 0 -25.5 -1t-28 -4t-28.5 -8.5t-27 -13.5t-24.5 -20.5t-20 -29t-13 -38.5t-4.5 -50v-1092q0 -27 9.5 -55.5 t28.5 -51.5t46.5 -38t63.5 -15h34v-28h-683v34h29q42 0 70.5 15t45.5 38t24.5 51t7.5 56v523h-695v-529q0 -36 12.5 -65.5t32.5 -50.5t45.5 -32.5t52.5 -11.5h40v-28h-689v28h29q40 0 69.5 15t48 38t27 51t8.5 56v1104q0 26 -9 53.5t-28 49.5t-47 36t-64 14h-34v29z" />
<glyph unicode="h" horiz-adv-x="1772" d="M28 1474h689v-29h-23q-27 0 -55.5 -7.5t-51.5 -25.5t-38 -49t-15 -77v-472h695v466q0 45 -12.5 76.5t-32 51t-45 28.5t-53.5 9h-40v29h689v-29h-11q-12 0 -25.5 -1t-28 -4t-28.5 -8.5t-27 -13.5t-24.5 -20.5t-20 -29t-13 -38.5t-4.5 -50v-1092q0 -27 9.5 -55.5 t28.5 -51.5t46.5 -38t63.5 -15h34v-28h-683v34h29q42 0 70.5 15t45.5 38t24.5 51t7.5 56v523h-695v-529q0 -36 12.5 -65.5t32.5 -50.5t45.5 -32.5t52.5 -11.5h40v-28h-689v28h29q40 0 69.5 15t48 38t27 51t8.5 56v1104q0 26 -9 53.5t-28 49.5t-47 36t-64 14h-34v29z" />
<glyph unicode="I" horiz-adv-x="747" d="M28 1474h689v-29h-17q-52 0 -84 -15.5t-50 -40t-25 -55t-7 -60.5v-1098q0 -27 11 -53.5t31 -47.5t50 -34t68 -13h23v-28h-689v28h18q47 0 78.5 14t50.5 37.5t27 54.5t8 65v1087q0 43 -15 72.5t-39 49.5t-53 28.5t-57 8.5h-18v29z" />
<glyph unicode="i" horiz-adv-x="747" d="M28 1474h689v-29h-17q-52 0 -84 -15.5t-50 -40t-25 -55t-7 -60.5v-1098q0 -27 11 -53.5t31 -47.5t50 -34t68 -13h23v-28h-689v28h18q47 0 78.5 14t50.5 37.5t27 54.5t8 65v1087q0 43 -15 72.5t-39 49.5t-53 28.5t-57 8.5h-18v29z" />
<glyph unicode="J" horiz-adv-x="855" d="M96 1474h684v-34h-29q-28 0 -54.5 -5.5t-47.5 -23t-33.5 -51.5t-12.5 -92v-1172q0 -36 -4.5 -72t-13.5 -70.5t-24 -67t-35.5 -60.5t-47 -51t-60.5 -39t-74 -24q-34 -7 -74 -7h-14q-53 1 -102.5 13t-91.5 41t-75 78t-55 124l29 17q2 -15 16.5 -34.5t35.5 -37.5t46.5 -30 t48.5 -12q28 0 58 10.5t55 36t41 66.5t16 103v1188q0 43 -12 76t-32.5 55.5t-47 34t-55.5 11.5h-35v29z" />
<glyph unicode="j" horiz-adv-x="855" d="M96 1474h684v-34h-29q-28 0 -54.5 -5.5t-47.5 -23t-33.5 -51.5t-12.5 -92v-1172q0 -36 -4.5 -72t-13.5 -70.5t-24 -67t-35.5 -60.5t-47 -51t-60.5 -39t-74 -24q-34 -7 -74 -7h-14q-53 1 -102.5 13t-91.5 41t-75 78t-55 124l29 17q2 -15 16.5 -34.5t35.5 -37.5t46.5 -30 t48.5 -12q28 0 58 10.5t55 36t41 66.5t16 103v1188q0 43 -12 76t-32.5 55.5t-47 34t-55.5 11.5h-35v29z" />
<glyph unicode="K" horiz-adv-x="1665" d="M717 1474v-29h-29q-34 0 -62 -10.5t-48 -30t-32 -48t-12 -64.5v-518l410 420q25 26 42.5 53t28.5 49t16 38t5 20q0 24 -14 41t-34 28t-44 16.5t-45 5.5h-29v29h615v-29q-41 0 -92.5 -16.5t-104.5 -43.5t-103 -63.5t-87 -75.5l-308 -324l592 -723q24 -29 51 -57t58 -51 t66 -39q35 -18 75 -24v-28h-676v28q26 4 40 9t21.5 10.5t11 13t7.5 19.5q4 10 1 20.5t-9 21.5q-4 10 -12 19l-14 19l-468 568v-534q0 -36 12 -67t32 -52.5t48 -34t62 -12.5h23v-28h-677v28h17q34 0 63.5 10.5t50.5 30t33 46.5t12 61v1132q0 36 -14 62t-36.5 43t-50 24.5 t-52.5 7.5h-29v29h689z" />
<glyph unicode="k" horiz-adv-x="1665" d="M717 1474v-29h-29q-34 0 -62 -10.5t-48 -30t-32 -48t-12 -64.5v-518l410 420q25 26 42.5 53t28.5 49t16 38t5 20q0 24 -14 41t-34 28t-44 16.5t-45 5.5h-29v29h615v-29q-41 0 -92.5 -16.5t-104.5 -43.5t-103 -63.5t-87 -75.5l-308 -324l592 -723q24 -29 51 -57t58 -51 t66 -39q35 -18 75 -24v-28h-676v28q26 4 40 9t21.5 10.5t11 13t7.5 19.5q4 10 1 20.5t-9 21.5q-4 10 -12 19l-14 19l-468 568v-534q0 -36 12 -67t32 -52.5t48 -34t62 -12.5h23v-28h-677v28h17q34 0 63.5 10.5t50.5 30t33 46.5t12 61v1132q0 36 -14 62t-36.5 43t-50 24.5 t-52.5 7.5h-29v29h689z" />
<glyph unicode="L" horiz-adv-x="1237" d="M28 1474h689v-29h-11q-45 0 -77.5 -12.5t-53.5 -34.5t-31 -54t-10 -70v-1052q0 -25 10 -49.5t28.5 -44t46 -31.5t63.5 -12h171q54 0 101.5 21.5t87.5 60.5t71.5 93.5t52.5 120.5l28 1l-50 -382h-1116v28q85 0 131 37t46 119v1108q0 36 -13.5 64t-34.5 48t-47 30.5 t-53 10.5h-29v29z" />
<glyph unicode="l" horiz-adv-x="1237" d="M28 1474h689v-29h-11q-45 0 -77.5 -12.5t-53.5 -34.5t-31 -54t-10 -70v-1052q0 -25 10 -49.5t28.5 -44t46 -31.5t63.5 -12h171q54 0 101.5 21.5t87.5 60.5t71.5 93.5t52.5 120.5l28 1l-50 -382h-1116v28q85 0 131 37t46 119v1108q0 36 -13.5 64t-34.5 48t-47 30.5 t-53 10.5h-29v29z" />
<glyph unicode="M" horiz-adv-x="2005" d="M603 1474l421 -962l398 962h478v-29q-36 -2 -67 -7.5t-54 -18.5t-39 -35t-22 -58l80 -1036q2 -20 3.5 -41t5 -42t9 -41.5t14.5 -39.5t21.5 -35.5t31 -29.5t42.5 -21t55 -12v-28h-678v28q54 0 89 15.5t55 40t27.5 54.5t5.5 61l-68 995l-483 -1194h-40l-496 1144l-79 -894 q-1 -13 0.5 -29t6 -33.5t12.5 -36.5t19.5 -36t27 -32.5t36.5 -26.5t47 -17t56 -5v-39h-501v39q28 -1 51 5.5t41.5 19.5t33.5 31t27 39t21 44t15 47t10 48t6 45l102 955q-21 34 -44.5 62t-52.5 50t-66.5 38t-86.5 27v29h529z" />
<glyph unicode="m" horiz-adv-x="2005" d="M603 1474l421 -962l398 962h478v-29q-36 -2 -67 -7.5t-54 -18.5t-39 -35t-22 -58l80 -1036q2 -20 3.5 -41t5 -42t9 -41.5t14.5 -39.5t21.5 -35.5t31 -29.5t42.5 -21t55 -12v-28h-678v28q54 0 89 15.5t55 40t27.5 54.5t5.5 61l-68 995l-483 -1194h-40l-496 1144l-79 -894 q-1 -13 0.5 -29t6 -33.5t12.5 -36.5t19.5 -36t27 -32.5t36.5 -26.5t47 -17t56 -5v-39h-501v39q28 -1 51 5.5t41.5 19.5t33.5 31t27 39t21 44t15 47t10 48t6 45l102 955q-21 34 -44.5 62t-52.5 50t-66.5 38t-86.5 27v29h529z" />
<glyph unicode="N" horiz-adv-x="1772" d="M28 1474h530l898 -945v711q0 44 -17.5 82t-46 65t-64.5 43q-34 15 -70 15h-24v29h507v-29h-17q-34 0 -65 -16t-54.5 -43.5t-37.5 -63.5t-14 -76v-1262h-39l-1070 1131v-871q0 -12 2.5 -28t8 -33t13.5 -35t19.5 -34t25.5 -31t31.5 -26t37.5 -17t44 -6h22v-34h-523v34h29 q32 0 66 15t62 40.5t46.5 59.5t18.5 73l-2 995l-73 71q-35 34 -72 64t-78.5 54t-93.5 39v29z" />
<glyph unicode="n" horiz-adv-x="1772" d="M28 1474h530l898 -945v711q0 44 -17.5 82t-46 65t-64.5 43q-34 15 -70 15h-24v29h507v-29h-17q-34 0 -65 -16t-54.5 -43.5t-37.5 -63.5t-14 -76v-1262h-39l-1070 1131v-871q0 -12 2.5 -28t8 -33t13.5 -35t19.5 -34t25.5 -31t31.5 -26t37.5 -17t44 -6h22v-34h-523v34h29 q32 0 66 15t62 40.5t46.5 59.5t18.5 73l-2 995l-73 71q-35 34 -72 64t-78.5 54t-93.5 39v29z" />
<glyph unicode="O" d="M836 1490q100 0 186.5 -17.5t159.5 -50t132.5 -77t106.5 -98.5t81.5 -115.5t57 -127.5t34.5 -134q11 -66 10 -130v-6q0 -68 -11 -136t-34 -134t-57.5 -127t-82 -115t-107.5 -98.5t-133 -76t-160 -48.5q-82 -16 -177 -16q-6 1 -12 1q-96 1 -179 18.5t-154.5 50t-130.5 77 t-106 98t-82.5 114t-58.5 125.5t-34 133q-11 64 -11 128v6q0 67 11 135.5t34 134t57 127t81 115.5t106 99t131 77.5t157.5 50t184.5 17.5zM836 1411q-65 0 -117.5 -17.5t-93.5 -48.5t-72.5 -73t-54 -91t-37.5 -103.5t-24 -110t-13 -109.5q-3 -54 -3 -102q0 -50 2.5 -106 t10.5 -114.5t21 -116t35 -109.5t52.5 -97t73 -77.5t96.5 -50.5q52 -17 117 -17h7q72 1 128 19.5t98 49.5t73 74t52 92t34 103.5t19.5 110t9 109.5t2.5 102q0 50 -3.5 106t-12 113t-23.5 114t-37 108.5t-53 96t-73 76.5t-95 50.5t-119 18.5z" />
<glyph unicode="o" d="M836 1490q100 0 186.5 -17.5t159.5 -50t132.5 -77t106.5 -98.5t81.5 -115.5t57 -127.5t34.5 -134q11 -66 10 -130v-6q0 -68 -11 -136t-34 -134t-57.5 -127t-82 -115t-107.5 -98.5t-133 -76t-160 -48.5q-82 -16 -177 -16q-6 1 -12 1q-96 1 -179 18.5t-154.5 50t-130.5 77 t-106 98t-82.5 114t-58.5 125.5t-34 133q-11 64 -11 128v6q0 67 11 135.5t34 134t57 127t81 115.5t106 99t131 77.5t157.5 50t184.5 17.5zM836 1411q-65 0 -117.5 -17.5t-93.5 -48.5t-72.5 -73t-54 -91t-37.5 -103.5t-24 -110t-13 -109.5q-3 -54 -3 -102q0 -50 2.5 -106 t10.5 -114.5t21 -116t35 -109.5t52.5 -97t73 -77.5t96.5 -50.5q52 -17 117 -17h7q72 1 128 19.5t98 49.5t73 74t52 92t34 103.5t19.5 110t9 109.5t2.5 102q0 50 -3.5 106t-12 113t-23.5 114t-37 108.5t-53 96t-73 76.5t-95 50.5t-119 18.5z" />
<glyph unicode="P" horiz-adv-x="1300" d="M17 1474h825q51 0 95.5 -10t82.5 -27t69.5 -40.5t57 -52.5t43.5 -61.5t31 -68t19 -72t6 -72.5q0 -38 -7.5 -75.5t-23 -74t-39 -70.5t-56 -63t-74.5 -54t-93 -42t-113 -27t-134 -10q-46 0 -92 6q-44 8 -90 12v-467q0 -9 0.5 -21t3 -26t7.5 -29t14 -29.5t21 -27t30 -22.5 t41 -16t53 -6h23l1 -28h-701v28h23q32 0 60 9t49 27t33 43.5t12 57.5v1127q0 42 -15 71.5t-38 47.5t-51 26t-56 8h-17v29zM524 1382v-631q26 -8 54 -9q28 0 54 -2q8 0 15 -1q28 0 53 6q32 7 59.5 22t51 36.5t42 47t33 55t23.5 60t14 61.5t5 59t-5 56t-15 55t-24 52 t-33.5 47.5t-43.5 41t-52.5 31.5t-62.5 19q-29 6 -62 6h-10q-24 0 -48 -4.5t-48 -7.5z" />
<glyph unicode="p" horiz-adv-x="1300" d="M17 1474h825q51 0 95.5 -10t82.5 -27t69.5 -40.5t57 -52.5t43.5 -61.5t31 -68t19 -72t6 -72.5q0 -38 -7.5 -75.5t-23 -74t-39 -70.5t-56 -63t-74.5 -54t-93 -42t-113 -27t-134 -10q-46 0 -92 6q-44 8 -90 12v-467q0 -9 0.5 -21t3 -26t7.5 -29t14 -29.5t21 -27t30 -22.5 t41 -16t53 -6h23l1 -28h-701v28h23q32 0 60 9t49 27t33 43.5t12 57.5v1127q0 42 -15 71.5t-38 47.5t-51 26t-56 8h-17v29zM524 1382v-631q26 -8 54 -9q28 0 54 -2q8 0 15 -1q28 0 53 6q32 7 59.5 22t51 36.5t42 47t33 55t23.5 60t14 61.5t5 59t-5 56t-15 55t-24 52 t-33.5 47.5t-43.5 41t-52.5 31.5t-62.5 19q-29 6 -62 6h-10q-24 0 -48 -4.5t-48 -7.5z" />
<glyph unicode="Q" d="M836 1490q100 0 186.5 -17.5t159.5 -50t132.5 -77t106.5 -98.5t81.5 -115.5t57 -127.5t34.5 -134q11 -66 10 -130v-6q0 -54 -7 -108t-21 -107t-36 -104t-51 -99t-66 -91t-83 -80t-99 -67t-115 -51q34 -17 66 -40l66 -44q33 -21 68 -36q36 -15 74 -15q20 0 39 7t37 17.5 t34 23.5q18 14 32 26l28 -16l-20 -33q-11 -18 -25 -38t-31.5 -41.5t-39.5 -41.5t-47.5 -37.5t-56 -31t-66.5 -21t-78 -7.5q-48 0 -99 12.5t-101.5 33.5t-101 49t-97.5 57l-91 60l-80 56l-69 47q-31 20 -53 31q-56 23 -104 54t-90 68t-76 79t-61.5 88t-48 95t-34 100 t-20 102.5t-6.5 102.5q0 67 11 135t34 133.5t57 127.5t81 116t106 99t131 77.5t157.5 50t184.5 17.5zM836 1411q-65 0 -117.5 -17.5t-93.5 -48.5t-72.5 -73t-54 -91t-37.5 -103.5t-24 -110t-13 -109.5q-3 -54 -3 -102q0 -50 2.5 -106t10.5 -114.5t21 -116t35 -109.5 t52.5 -97t73 -77.5t96.5 -50.5q52 -17 117 -17h7q72 1 128 19.5t98 49.5t73 74t52 92t34 103.5t19.5 110t9 109.5t2.5 102q0 50 -3.5 106t-12 113t-23.5 114t-37 108.5t-53 96t-73 76.5t-95 50.5t-119 18.5z" />
<glyph unicode="q" d="M836 1490q100 0 186.5 -17.5t159.5 -50t132.5 -77t106.5 -98.5t81.5 -115.5t57 -127.5t34.5 -134q11 -66 10 -130v-6q0 -54 -7 -108t-21 -107t-36 -104t-51 -99t-66 -91t-83 -80t-99 -67t-115 -51q34 -17 66 -40l66 -44q33 -21 68 -36q36 -15 74 -15q20 0 39 7t37 17.5 t34 23.5q18 14 32 26l28 -16l-20 -33q-11 -18 -25 -38t-31.5 -41.5t-39.5 -41.5t-47.5 -37.5t-56 -31t-66.5 -21t-78 -7.5q-48 0 -99 12.5t-101.5 33.5t-101 49t-97.5 57l-91 60l-80 56l-69 47q-31 20 -53 31q-56 23 -104 54t-90 68t-76 79t-61.5 88t-48 95t-34 100 t-20 102.5t-6.5 102.5q0 67 11 135t34 133.5t57 127.5t81 116t106 99t131 77.5t157.5 50t184.5 17.5zM836 1411q-65 0 -117.5 -17.5t-93.5 -48.5t-72.5 -73t-54 -91t-37.5 -103.5t-24 -110t-13 -109.5q-3 -54 -3 -102q0 -50 2.5 -106t10.5 -114.5t21 -116t35 -109.5 t52.5 -97t73 -77.5t96.5 -50.5q52 -17 117 -17h7q72 1 128 19.5t98 49.5t73 74t52 92t34 103.5t19.5 110t9 109.5t2.5 102q0 50 -3.5 106t-12 113t-23.5 114t-37 108.5t-53 96t-73 76.5t-95 50.5t-119 18.5z" />
<glyph unicode="R" horiz-adv-x="1622" d="M28 1474h808q37 0 76.5 -6.5t78.5 -18.5t77 -30.5t71 -42.5t61 -53.5t48 -65t30 -77.5q8 -33 8 -70v-18q-2 -54 -17.5 -105t-48 -95t-84.5 -80t-129 -61q45 -34 82 -74.5t68 -85.5t58 -92l53 -95l31 -55l35 -60l38 -62q20 -31 41 -59t43 -53t44 -43t44 -28t43 -10v-34 h-469q-28 40 -55 91l-54 107l-54 114q-27 58 -56 113t-60 103t-66 83.5t-74 56t-85 20.5h-74v-518q0 -28 11 -53t30.5 -45t45 -32t55.5 -12h35v-28h-689v34h29q28 0 55.5 7t49.5 24t35 46t13 71v1110q0 38 -13 67t-34 48t-47 28.5t-54 9.5h-34v29zM534 1394v-620h103 q46 0 83.5 7t68.5 21t54.5 32t41 41t30.5 48t20 52t11 55t4 56v7q0 25 -3 49q-4 28 -12.5 54t-21.5 51t-31 47t-42 40.5t-53.5 32t-65 20.5t-78.5 7h-109z" />
<glyph unicode="r" horiz-adv-x="1622" d="M28 1474h808q37 0 76.5 -6.5t78.5 -18.5t77 -30.5t71 -42.5t61 -53.5t48 -65t30 -77.5q8 -33 8 -70v-18q-2 -54 -17.5 -105t-48 -95t-84.5 -80t-129 -61q45 -34 82 -74.5t68 -85.5t58 -92l53 -95l31 -55l35 -60l38 -62q20 -31 41 -59t43 -53t44 -43t44 -28t43 -10v-34 h-469q-28 40 -55 91l-54 107l-54 114q-27 58 -56 113t-60 103t-66 83.5t-74 56t-85 20.5h-74v-518q0 -28 11 -53t30.5 -45t45 -32t55.5 -12h35v-28h-689v34h29q28 0 55.5 7t49.5 24t35 46t13 71v1110q0 38 -13 67t-34 48t-47 28.5t-54 9.5h-34v29zM534 1394v-620h103 q46 0 83.5 7t68.5 21t54.5 32t41 41t30.5 48t20 52t11 55t4 56v7q0 25 -3 49q-4 28 -12.5 54t-21.5 51t-31 47t-42 40.5t-53.5 32t-65 20.5t-78.5 7h-109z" />
<glyph unicode="S" horiz-adv-x="1042" d="M529 1490q33 0 66 -6t65 -14l65 -15q31 -8 65 -10q26 -2 41 9q15 10 28 36h34v-380h-39q-30 92 -65.5 147.5t-77 87t-89.5 43.5q-48 13 -104 17q-18 2 -38 -1t-40 -9.5t-39 -16.5t-36 -23t-31 -29t-23 -35t-13 -40t-2 -45q4 -44 24 -81.5t51 -71t71 -63.5t85 -58l91 -57 l92 -58q44 -30 84 -61.5t70 -67.5q27 -32 50 -63t40 -66t26.5 -74.5t9.5 -86.5q0 -40 -8 -78t-24 -74.5t-39 -70t-53 -62t-68 -52t-82 -40.5t-95 -27t-109 -10q-4 0 -8 -1q-18 0 -38 2q-24 2 -48 6.5t-49 8.5t-49 10l-46 11q-22 5 -42 9t-37 7t-30 3q-21 0 -40 -13t-29 -38 h-34l6 421h46q1 -32 9.5 -64.5t24 -64t37 -60.5t48 -54t57 -46t64.5 -35t71 -22q32 -7 66 -7h9q40 1 83 17t78 44t58 66t27 84v8q0 32 -14 61q-16 34 -44 65.5t-66 61.5t-82 60l-90 59l-92 60q-45 30 -86 61t-73 64q-56 58 -87.5 128t-31.5 145q0 32 6 68.5t19.5 74t34 75 t47.5 71.5t62 63t78 51t93.5 34t108.5 12z" />
<glyph unicode="s" horiz-adv-x="1042" d="M529 1490q33 0 66 -6t65 -14l65 -15q31 -8 65 -10q26 -2 41 9q15 10 28 36h34v-380h-39q-30 92 -65.5 147.5t-77 87t-89.5 43.5q-48 13 -104 17q-18 2 -38 -1t-40 -9.5t-39 -16.5t-36 -23t-31 -29t-23 -35t-13 -40t-2 -45q4 -44 24 -81.5t51 -71t71 -63.5t85 -58l91 -57 l92 -58q44 -30 84 -61.5t70 -67.5q27 -32 50 -63t40 -66t26.5 -74.5t9.5 -86.5q0 -40 -8 -78t-24 -74.5t-39 -70t-53 -62t-68 -52t-82 -40.5t-95 -27t-109 -10q-4 0 -8 -1q-18 0 -38 2q-24 2 -48 6.5t-49 8.5t-49 10l-46 11q-22 5 -42 9t-37 7t-30 3q-21 0 -40 -13t-29 -38 h-34l6 421h46q1 -32 9.5 -64.5t24 -64t37 -60.5t48 -54t57 -46t64.5 -35t71 -22q32 -7 66 -7h9q40 1 83 17t78 44t58 66t27 84v8q0 32 -14 61q-16 34 -44 65.5t-66 61.5t-82 60l-90 59l-92 60q-45 30 -86 61t-73 64q-56 58 -87.5 128t-31.5 145q0 32 6 68.5t19.5 74t34 75 t47.5 71.5t62 63t78 51t93.5 34t108.5 12z" />
<glyph unicode="T" horiz-adv-x="1410" d="M34 1149l6 347q14 -2 28 -6l28 -8q14 -4 28 -6q16 -2 30 -2h1109q10 0 22.5 2t24.5 6l25 8q13 4 25 6l11 -347h-29q-4 47 -18 89t-37 74t-53 51t-68 19h-302v-1194q0 -28 10 -57t30.5 -51.5t51.5 -37.5q32 -14 74 -14h16v-28h-694v34h46q32 0 58 12t45 32t29 47t10 57 v1200h-306q-18 0 -34 -6t-30 -18t-26 -27t-22.5 -33t-19 -37.5t-14.5 -39t-11 -38l-9 -34.5h-34z" />
<glyph unicode="t" horiz-adv-x="1410" d="M34 1149l6 347q14 -2 28 -6l28 -8q14 -4 28 -6q16 -2 30 -2h1109q10 0 22.5 2t24.5 6l25 8q13 4 25 6l11 -347h-29q-4 47 -18 89t-37 74t-53 51t-68 19h-302v-1194q0 -28 10 -57t30.5 -51.5t51.5 -37.5q32 -14 74 -14h16v-28h-694v34h46q32 0 58 12t45 32t29 47t10 57 v1200h-306q-18 0 -34 -6t-30 -18t-26 -27t-22.5 -33t-19 -37.5t-14.5 -39t-11 -38l-9 -34.5h-34z" />
<glyph unicode="U" horiz-adv-x="1750" d="M6 1474h688v-29h-22q-32 0 -61 -9.5t-51 -28.5t-35 -46.5t-13 -63.5v-763q0 -44 8 -84t22 -74t34 -63t44 -52t52 -40.5t58 -29t61 -16.5t63 -5q32 1 64.5 7.5t63.5 18.5t59.5 30t53.5 42t45.5 53.5t35 66t22.5 78.5t8 92v739q0 40 -14 68.5t-36 46t-50 25.5t-54 8h-28v29 h688v-29h-22q-27 0 -54.5 -7.5t-49.5 -24.5t-36 -47t-14 -74v-1110q0 -42 14 -72.5t38.5 -50t58 -28.5t71.5 -9v-22h-512v278q-42 -78 -98 -135.5t-120 -94t-135 -52.5q-58 -13 -116 -13q-13 1 -26 1q-42 2 -87.5 9t-90.5 20.5t-88 35.5t-81 53.5t-70.5 73.5t-56 96.5 t-36.5 122.5t-13 151v728q0 49 -14 82t-37 52.5t-51 28t-58 8.5h-22v29z" />
<glyph unicode="u" horiz-adv-x="1750" d="M6 1474h688v-29h-22q-32 0 -61 -9.5t-51 -28.5t-35 -46.5t-13 -63.5v-763q0 -44 8 -84t22 -74t34 -63t44 -52t52 -40.5t58 -29t61 -16.5t63 -5q32 1 64.5 7.5t63.5 18.5t59.5 30t53.5 42t45.5 53.5t35 66t22.5 78.5t8 92v739q0 40 -14 68.5t-36 46t-50 25.5t-54 8h-28v29 h688v-29h-22q-27 0 -54.5 -7.5t-49.5 -24.5t-36 -47t-14 -74v-1110q0 -42 14 -72.5t38.5 -50t58 -28.5t71.5 -9v-22h-512v278q-42 -78 -98 -135.5t-120 -94t-135 -52.5q-58 -13 -116 -13q-13 1 -26 1q-42 2 -87.5 9t-90.5 20.5t-88 35.5t-81 53.5t-70.5 73.5t-56 96.5 t-36.5 122.5t-13 151v728q0 49 -14 82t-37 52.5t-51 28t-58 8.5h-22v29z" />
<glyph unicode="V" horiz-adv-x="1515" d="M700 1474v-29l-38 -5q-21 -2 -38.5 -10t-28.5 -24t-9 -46q0 -11 2 -23l4 -23l307 -790l239 682l6 29q3 16 5.5 31t4.5 29q1 15 1 25q0 26 -12 48t-32.5 39.5t-47 27.5t-56.5 10v29h472v-29q-38 -4 -73 -21.5t-63.5 -44.5t-50.5 -60t-34 -67l-456 -1268h-34l-500 1274 q-14 35 -34 67.5t-48.5 58.5t-67 42.5t-90.5 18.5v29h672z" />
<glyph unicode="v" horiz-adv-x="1515" d="M700 1474v-29l-38 -5q-21 -2 -38.5 -10t-28.5 -24t-9 -46q0 -11 2 -23l4 -23l307 -790l239 682l6 29q3 16 5.5 31t4.5 29q1 15 1 25q0 26 -12 48t-32.5 39.5t-47 27.5t-56.5 10v29h472v-29q-38 -4 -73 -21.5t-63.5 -44.5t-50.5 -60t-34 -67l-456 -1268h-34l-500 1274 q-14 35 -34 67.5t-48.5 58.5t-67 42.5t-90.5 18.5v29h672z" />
<glyph unicode="W" horiz-adv-x="2217" d="M688 1474v-29q-20 -2 -42.5 -7t-43 -16.5t-34.5 -30.5t-16 -49q-1 -14 0 -28q2 -14 6 -28l227 -706l267 768q-13 30 -30.5 49t-40 30t-49 14.5t-56.5 3.5v29h660v-15v-14q-22 0 -45 -2t-42 -10.5t-31.5 -25.5t-12.5 -47q0 -18 2.5 -37t8.5 -37l234 -688l222 654 q3 10 5.5 21t3.5 22t2 20.5t0 15.5q-2 30 -12 50.5t-28.5 34.5t-46.5 20.5t-66 8.5v29h466v-29q-34 -2 -69 -21.5t-66 -49.5t-56 -66q-25 -38 -37 -74l-420 -1245h-34l-410 1223l-422 -1217h-34l-432 1285q-10 28 -26.5 57.5t-39 53.5t-50.5 39t-60 15h-28v29h676z" />
<glyph unicode="w" horiz-adv-x="2217" d="M688 1474v-29q-20 -2 -42.5 -7t-43 -16.5t-34.5 -30.5t-16 -49q-1 -14 0 -28q2 -14 6 -28l227 -706l267 768q-13 30 -30.5 49t-40 30t-49 14.5t-56.5 3.5v29h660v-15v-14q-22 0 -45 -2t-42 -10.5t-31.5 -25.5t-12.5 -47q0 -18 2.5 -37t8.5 -37l234 -688l222 654 q3 10 5.5 21t3.5 22t2 20.5t0 15.5q-2 30 -12 50.5t-28.5 34.5t-46.5 20.5t-66 8.5v29h466v-29q-34 -2 -69 -21.5t-66 -49.5t-56 -66q-25 -38 -37 -74l-420 -1245h-34l-410 1223l-422 -1217h-34l-432 1285q-10 28 -26.5 57.5t-39 53.5t-50.5 39t-60 15h-28v29h676z" />
<glyph unicode="X" horiz-adv-x="1705" d="M808 1474v-29h-28q-18 0 -36.5 -5.5t-33 -16t-24.5 -26.5q-9 -15 -9 -37q0 -20 5 -38t12 -36l234 -348l204 274q12 16 23 34t19.5 37t12.5 38t2 39q-4 39 -36.5 57.5t-88.5 27.5v29h534v-29q-42 -6 -82 -18.5t-77 -31.5t-68 -45t-57 -58l-336 -438l388 -592 q26 -40 60 -81t73.5 -73.5t84.5 -53t94 -20.5v-34h-809l1 28q40 0 71.5 4t53 15t34.5 29.5t17 48.5q2 14 -1.5 26.5t-10 25.5t-14.5 26t-13 25l-239 346l-262 -346q-6 -12 -14 -25t-15 -25.5t-12 -25.5t-4 -27q2 -28 11.5 -44t26 -26.5t40 -16.5t53.5 -16v-22h-570v28 q47 2 98.5 20.5t101.5 48t94 67.5t76 80l325 422l-417 620q-25 38 -52.5 67.5t-55.5 50t-56.5 31t-55.5 10.5h-34v29h762z" />
<glyph unicode="x" horiz-adv-x="1705" d="M808 1474v-29h-28q-18 0 -36.5 -5.5t-33 -16t-24.5 -26.5q-9 -15 -9 -37q0 -20 5 -38t12 -36l234 -348l204 274q12 16 23 34t19.5 37t12.5 38t2 39q-4 39 -36.5 57.5t-88.5 27.5v29h534v-29q-42 -6 -82 -18.5t-77 -31.5t-68 -45t-57 -58l-336 -438l388 -592 q26 -40 60 -81t73.5 -73.5t84.5 -53t94 -20.5v-34h-809l1 28q40 0 71.5 4t53 15t34.5 29.5t17 48.5q2 14 -1.5 26.5t-10 25.5t-14.5 26t-13 25l-239 346l-262 -346q-6 -12 -14 -25t-15 -25.5t-12 -25.5t-4 -27q2 -28 11.5 -44t26 -26.5t40 -16.5t53.5 -16v-22h-570v28 q47 2 98.5 20.5t101.5 48t94 67.5t76 80l325 422l-417 620q-25 38 -52.5 67.5t-55.5 50t-56.5 31t-55.5 10.5h-34v29h762z" />
<glyph unicode="Y" d="M746 1474v-29h-46q-14 0 -29 -5t-27 -14.5t-19 -23.5t-5 -31q2 -16 8 -32.5t15 -30.5l307 -438l228 336q11 16 20.5 36t16 40t10.5 38.5t4 33.5q0 20 -9.5 37t-26.5 29t-41 18.5t-54 6.5v29h552v-29q-47 -2 -92.5 -16.5t-85.5 -36.5t-72 -50q-32 -26 -52 -56l-336 -490 v-614q0 -27 10 -54.5t29 -49.5t48 -36t67 -14h28v-27h-688v27h28q27 0 53.5 8t47.5 26t34 48t13 72v535l-448 597q-19 25 -39.5 48.5t-44.5 41.5t-55 29.5t-73 11.5v29h724z" />
<glyph unicode="y" d="M746 1474v-29h-46q-14 0 -29 -5t-27 -14.5t-19 -23.5t-5 -31q2 -16 8 -32.5t15 -30.5l307 -438l228 336q11 16 20.5 36t16 40t10.5 38.5t4 33.5q0 20 -9.5 37t-26.5 29t-41 18.5t-54 6.5v29h552v-29q-47 -2 -92.5 -16.5t-85.5 -36.5t-72 -50q-32 -26 -52 -56l-336 -490 v-614q0 -27 10 -54.5t29 -49.5t48 -36t67 -14h28v-27h-688v27h28q27 0 53.5 8t47.5 26t34 48t13 72v535l-448 597q-19 25 -39.5 48.5t-44.5 41.5t-55 29.5t-73 11.5v29h724z" />
<glyph unicode="Z" horiz-adv-x="1515" d="M1434 1474l-962 -1388h609q56 0 106.5 10t94.5 40t82 86t70 148h28l-57 -370h-1383l956 1394h-568q-52 0 -101 -19t-88 -57t-66 -94.5t-35 -131.5h-34l34 382h1314z" />
<glyph unicode="z" horiz-adv-x="1515" d="M1434 1474l-962 -1388h609q56 0 106.5 10t94.5 40t82 86t70 148h28l-57 -370h-1383l956 1394h-568q-52 0 -101 -19t-88 -57t-66 -94.5t-35 -131.5h-34l34 382h1314z" />
<glyph unicode="[" horiz-adv-x="767" d="M239 1474h529v-29h-80q-34 0 -63 -11.5t-50 -31.5t-33.5 -48t-12.5 -62v-1303q0 -38 9.5 -68.5t29.5 -52t50 -33t70 -11.5h80v-28h-529v1678z" />
<glyph unicode="\" horiz-adv-x="570" d="M125 1388l455 -1416h-136l-444 1416h125z" />
<glyph unicode="]" horiz-adv-x="767" d="M524 1474v-1678h-529v28h79q40 0 70 11.5t50 33t30 51.5t10 69v1303q0 34 -12.5 62t-34 48t-50.5 31.5t-63 11.5h-79v29h529z" />
<glyph unicode="^" horiz-adv-x="1190" d="M558 1388h79l404 -716h-159l-296 506l-284 -506h-160z" />
<glyph unicode="_" horiz-adv-x="1024" d="M-11 -153h1041v-103h-1041v103z" />
<glyph unicode="`" horiz-adv-x="682" d="M51 1980h399l232 -398h-50l-581 386v12z" />
<glyph unicode="{" horiz-adv-x="767" d="M672 1468q-50 -11 -85.5 -28.5t-58.5 -42t-34.5 -54t-13.5 -65.5q-2 -43 7 -87.5t19 -87.5l19 -85t7 -82q-2 -58 -28.5 -112.5t-71.5 -98t-104.5 -73.5t-128.5 -38q70 -20 130.5 -52t105 -74.5t70 -94.5t27.5 -111q1 -35 -7.5 -75.5t-19 -83t-19 -86t-6.5 -84.5 q1 -34 10.5 -66.5t32 -60t59 -47t92.5 -25.5l-2 -44q-102 -4 -176 21t-124 69t-76 103t-32 123q-2 21 0 44.5t6 47.5t9 50l11 49l10 47q6 23 10 42.5t7 35.5t1 28q-2 41 -11 75.5t-31 60.5t-59 45t-92 29l3 55q44 7 80 29t61 53t38 68t11 74q-1 24 -9 63l-18 84 q-10 45 -18.5 92.5t-8.5 88.5q-1 60 25.5 117t78.5 101.5t129 72.5t175 30v-40z" />
<glyph unicode="|" horiz-adv-x="410" d="M125 1376h148v-1740h-148v1740z" />
<glyph unicode="}" horiz-adv-x="767" d="M88 1468v40q98 -2 174.5 -30t128.5 -72.5t78.5 -101t25.5 -117.5q0 -42 -8.5 -89t-18.5 -92l-18 -84q-8 -39 -9 -63q-2 -38 11.5 -74.5t38.5 -67.5t61 -53t80 -29l2 -55q-56 -10 -92 -29t-58 -45t-31.5 -60.5t-11.5 -75.5q0 -12 2 -28t6.5 -36l9.5 -42l11 -47 q6 -24 11 -49.5t9 -49.5t5.5 -47.5t-0.5 -44.5q-4 -64 -30.5 -123t-76.5 -103t-124 -69t-176 -21l-2 44q56 6 92 25.5t58.5 47t32 60.5t10.5 66q2 42 -6.5 85t-18.5 85.5t-18 83t-8 75.5q1 59 26.5 111t70.5 94.5t105 74.5t130 52q-68 8 -128 38t-104.5 73.5t-71 98 t-28.5 112.5q-2 39 7 81.5l19 85.5t18 87t7 88q-1 36 -12.5 65.5t-35 54t-59 42t-84.5 28.5z" />
<glyph unicode="~" horiz-adv-x="1065" d="M273 711q33 1 70.5 -7t77 -21t81.5 -30l82 -36l80 -35q40 -17 76 -30.5t67 -21.5t57 -6q32 1 61 12t53 33t40 55.5t23 81.5h57q-2 -74 -23 -134t-57 -101t-84 -62.5t-104 -21.5q-35 0 -73.5 7.5t-78.5 20.5t-82 29l-82 34l-80 34q-39 16 -74 29t-65.5 20.5t-55.5 7.5 q-31 0 -58.5 -11t-50 -33.5t-38 -56.5t-24.5 -81h-56q0 68 17.5 126.5t51 101.5t82 68.5t110.5 27.5z" />
<glyph unicode="&#xa1;" horiz-adv-x="492" d="M248 -11q-44 2 -80 27t-62 65.5t-40 92.5t-12 104q4 102 24 203t45 201l53 199q28 99 50 199h50q20 -100 48 -200t53 -200t44 -201t21 -201q0 -22 -1.5 -46t-6 -49t-11.5 -49t-18 -46t-25.5 -41t-34 -32t-43.5 -20t-54 -6zM248 1479q33 0 62 -12.5t50.5 -34.5t34.5 -51 t13 -61t-13 -61.5t-34.5 -51t-50.5 -34.5t-62 -13t-62 13t-50.5 34.5t-34.5 51t-13 61.5q0 33 13 61.5t34.5 50.5t50.5 34.5t62 12.5z" />
<glyph unicode="&#xa2;" horiz-adv-x="1152" d="M648 1013q44 0 84 -4.5t83 -13.5l79 247h54l-77 -258l56 -12q30 -8 58 -12q3 0 11.5 5t17.5 12.5t16 17t7 18.5h30v-371h-30q-10 50 -27.5 92.5t-41.5 76t-53.5 59.5t-62.5 43l-269 -849q30 -9 63.5 -13.5t65.5 -4.5q67 0 118.5 16t94.5 43t81 62l74 73v-93 q-37 -50 -89.5 -87.5t-113.5 -63t-126 -38t-129 -12.5q-18 0 -37 1t-37 3l-76 -250h-74l88 260q-57 10 -106.5 29t-91 44.5t-75.5 57t-60.5 66.5t-46.5 74t-32 80t-18 83t-4 83q2 54 13 105.5t31 99.5t50 91t68 79.5t84.5 66t101 50.5t116.5 32.5t132 11.5zM794 940 q-34 10 -64.5 15t-62.5 5q-40 0 -77 -10t-70 -29t-61.5 -46t-51.5 -60t-40 -71t-28 -79t-15 -84t0 -87q4 -57 11.5 -112t27.5 -107t58 -99.5t104 -91.5z" />
<glyph unicode="&#xa3;" horiz-adv-x="1300" d="M834 1490q52 0 101 -7t96.5 -21t94 -32t93.5 -40l-112 -315l-32 11q4 29 3.5 58.5t-5.5 57.5t-14 54t-22.5 49t-30.5 42t-37.5 32t-44.5 21t-50 8q-34 0 -63 -12t-52 -33t-41 -50t-33 -64t-26 -74t-20 -81t-16 -85t-13 -85h288v-203h-313l-90 -427q58 -10 113 -21 l112 -23q56 -12 114 -22t122 -16q41 -4 79.5 5t74.5 31t69.5 54t64.5 72h22q-6 -52 -20 -97t-35 -82t-47 -67.5t-56.5 -54t-64 -40.5t-69.5 -28t-72 -16t-72 -5q-44 1 -88 6.5t-88 13t-88 17.5l-88 21l-86 22q-44 11 -87.5 20t-87 15.5t-85.5 10.5q-14 1 -28 -1t-28 -6 l-28 -7l-28 -8v37q34 12 60 35t46 54.5t35 69.5t27 80.5t20 88l16 91.5l15 91q7 45 15 86h-173v203h223q10 52 23 103t31 101t41 96t53 86t67 73.5t84 57t104.5 36.5t126.5 13z" />
<glyph unicode="&#xa4;" horiz-adv-x="1165" d="M682 1490q44 0 86 -7t84.5 -18.5l86 -24l89.5 -24.5q3 0 11.5 6.5t18 17.5t16.5 24.5t7 25.5h31v-523h-31q-16 118 -53.5 202.5t-89 138.5t-113 79t-125.5 24q-76 -2 -134 -36t-100 -94.5t-69 -145t-39 -186.5l682 1l-54 -147l-639 1q0 -9 -0.5 -18.5t-0.5 -17.5 q0 -24 1 -48t1 -46h578l-44 -140h-517q20 -105 58.5 -182t89.5 -127.5t111 -75t125 -24.5q68 0 121 22.5t97 60.5t82 88l77 102v-130q-38 -70 -92 -124t-116.5 -90t-130 -53t-131.5 -17q-62 0 -118 12t-104.5 34t-90 53t-77 69t-64 82t-50.5 93t-38 101t-26 106l-180 2 l58 140h106v58q0 16 1 33t3 34h-160l52 143l129 1q26 116 76.5 215.5t124.5 173t170.5 115t213.5 41.5z" />
<glyph unicode="&#xa5;" d="M746 1474v-29h-46q-14 0 -29 -5t-27 -14.5t-19 -23.5t-5 -31q2 -16 8 -32.5t15 -30.5l307 -438l228 336q11 16 20.5 36t16 40t10.5 38.5t4 33.5q0 20 -9.5 37t-26.5 29t-41 18.5t-54 6.5v29h552v-29q-47 -2 -92.5 -16.5t-85.5 -36.5t-72 -49t-52 -57l-287 -419l499 -1 v-84h-548v-282h548v-82h-548v-236q0 -27 10 -54.5t29 -49.5t48 -36t67 -14h28v-27h-688v27h28q27 0 53.5 8t47.5 26t34 48t13 72v232h-544v84h544v219l-50 67h-496v82h434l-336 448q-18 25 -39 48.5t-45 41.5t-55 29.5t-73 11.5v29h724z" />
<glyph unicode="&#xa6;" horiz-adv-x="532" d="M186 1490h151v-784h-151v784zM186 362h151v-784h-151v784z" />
<glyph unicode="&#xa7;" horiz-adv-x="935" d="M778 1153h-33q-14 60 -40.5 111.5t-61.5 87.5t-77 54t-88 13q-45 -5 -77.5 -23t-52.5 -43t-28.5 -56t-5.5 -61q4 -44 23.5 -82.5t48 -73t65.5 -66.5l74 -64l55 -42l56 -42q28 -21 54 -43.5t50 -47t44 -53t35 -61.5t24 -72t11 -85q2 -49 -12 -97.5t-38 -91.5t-54.5 -77 t-61.5 -51q16 -24 38 -51t41.5 -56.5t33 -61.5t11.5 -65q-1 -36 -7.5 -72.5t-19 -70.5t-31 -66t-43 -59.5t-55 -50t-67 -37.5t-79.5 -22t-92 -5q-32 1 -66 8.5t-67 17.5l-61 17q-29 7 -50 11q-9 2 -18.5 -2t-17 -11t-13 -16t-6.5 -17h-29v382h40q2 -38 11 -72.5t23 -64.5 t33 -55.5t41 -45.5t46 -36t50 -27t51.5 -16t50.5 -5q34 0 67 18t60 46t43.5 62.5t16.5 68.5q0 40 -16.5 73.5t-43.5 64t-59 59.5l-66 58q-30 27 -62 52l-65 51l-64 53q-32 27 -59.5 56t-51.5 62t-42 71.5t-27.5 83t-9.5 97.5q0 41 9.5 83t26 81.5t40 75t51.5 62.5 q-5 20 -12.5 39l-14.5 38.5t-11 39t-4 39.5q4 96 33 177t78 137.5t114 85t141 22.5q26 -2 52 -7t50 -11l51 -14q25 -7 51 -12l40 44h26v-341zM242 832q-3 -12 -7.5 -24.5t-8.5 -25t-6 -25.5t-2 -26q1 -40 13.5 -74t32.5 -64.5t47 -57.5t59 -53l64 -50l66 -49 q33 -25 62.5 -51t55.5 -54q8 11 15.5 23.5t14 26.5t10.5 28t4 28q1 30 -11.5 60t-34.5 58t-52 56t-64 56l-70 54l-70 55q-34 27 -64.5 54t-53.5 55z" />
<glyph unicode="&#xa8;" horiz-adv-x="682" d="M102 1584q-27 0 -51.5 10.5t-41.5 28t-27.5 41.5t-10.5 52q0 27 10.5 50.5t27.5 41.5t41 28.5t52 10.5q27 0 50.5 -10.5t41.5 -28.5t28.5 -42t10.5 -50q0 -27 -10.5 -51.5t-28.5 -42t-41.5 -28t-50.5 -10.5zM577 1584q-27 0 -51 10.5t-42 28t-28 41.5t-10 52 q0 27 10 50.5t28 41.5t42 28.5t51 10.5t51 -10.5t42 -28.5t28 -42t10 -50q0 -27 -10 -51.5t-28 -42t-42 -28t-51 -10.5z" />
<glyph unicode="&#xa9;" horiz-adv-x="1580" d="M811 1122q30 0 59.5 -4t59.5 -10t60 -13t62 -13q2 0 8.5 4t13 9.5t11.5 13t5 13.5h22v-284h-22q-12 64 -38 110t-62 75.5t-79 43t-87 13.5q-64 -1 -110.5 -28t-76.5 -73.5t-45 -109.5t-16 -139q-2 -90 21 -157t62 -109.5t91 -63t108 -20.5q48 0 85 12t68 32.5t57 47.5 l53 56v-71q-27 -38 -64.5 -67.5t-81 -49t-90.5 -29t-92 -9.5q-54 0 -100.5 10t-85.5 28t-71 42t-57.5 53t-43.5 62.5t-29.5 69t-17 72t-4.5 72.5q2 82 32 156.5t84 131.5t132.5 90t178.5 33zM778 96q64 0 125.5 13t117 36.5t105.5 57t92.5 76.5t76 93t57.5 105.5t37 117 t13 125.5t-13 125t-37 117t-57.5 106t-76 92t-92.5 76t-105.5 58t-117 36t-125.5 12t-125 -12t-117 -36t-106 -58t-92 -76t-76 -92t-58 -106t-36.5 -117t-12.5 -125t12.5 -125.5t36.5 -117t58 -105.5t76 -93t92 -76.5t106 -57t117 -36.5t125 -13zM778 -11q-76 0 -147 14.5 t-136.5 42.5t-124 67.5t-108.5 89t-90 108.5t-67.5 124.5t-42 137t-14.5 147.5t14.5 147t42 136.5t67.5 124t90 108.5t108.5 89.5t124 67t136.5 42.5t147 15t147.5 -15t137 -42.5t124.5 -67t108 -89.5t89 -108.5t68 -124t43 -136.5t15 -147t-15 -147.5t-43 -137t-68 -124.5 t-89 -108.5t-108 -89t-124.5 -67.5t-137 -42.5t-147.5 -14.5z" />
<glyph unicode="&#xaa;" horiz-adv-x="830" d="M376 1488q22 0 45.5 -2.5t47 -8t47 -13.5t44 -20t38.5 -28t30.5 -37t20 -46t7.5 -57v-292q0 -6 1 -13.5t4 -14t7 -10.5t10 -4q15 2 22.5 16t11.5 36h54q-2 -36 -17 -61t-36.5 -40t-49 -20t-55.5 -5q-21 0 -41.5 3t-40.5 10.5t-38 20.5t-33 34q-29 -20 -54 -32.5t-48 -20 t-47 -10.5t-50 -5q-38 -2 -73 10t-63 33.5t-44 50t-16 60.5q0 28 10 50t28 40t43 33t54 26.5t61 21t64 17.5l65 17q32 7 61 15v36q0 30 -13 50t-33 32t-43 17t-45 5q-26 0 -50 -5t-47 -17t-42.5 -31t-35.5 -49l-47 13q8 50 37 87.5t70 61.5t88.5 36t90.5 10zM442 1192 q-30 -13 -59 -24t-52.5 -26.5t-38 -39.5t-14.5 -62q0 -15 3 -31.5t11.5 -31t22 -24t35.5 -9.5q13 0 24.5 4t22.5 11t22 15t23 15v203z" />
<glyph unicode="&#xab;" horiz-adv-x="917" d="M444 1229l-142 -501l136 -500h-22l-394 500l394 501h28zM887 1229l-143 -501l137 -500h-23l-392 500l392 501h29z" />
<glyph unicode="&#xac;" horiz-adv-x="1460" d="M33 590h1350v-590h-104v482h-1246v108z" />
<glyph unicode="&#xad;" horiz-adv-x="1217" d="M104 819h550v-175h-550v175z" />
<glyph unicode="&#xae;" horiz-adv-x="1580" d="M778 96q64 0 125.5 13t117 36.5t105.5 57t92.5 76.5t76 93t57.5 105.5t37 117t13 125.5t-13 125t-37 117t-57.5 106t-76 92t-92.5 76t-105.5 58t-117 36t-125.5 12t-125 -12t-117 -36t-106 -58t-92 -76t-76 -92t-58 -106t-36.5 -117t-12.5 -125t12.5 -125.5t36.5 -117 t58 -105.5t76 -93t92 -76.5t106 -57t117 -36.5t125 -13zM778 -11q-76 0 -147 14.5t-136.5 42.5t-124 67.5t-108.5 89t-90 108.5t-67.5 124.5t-42 137t-14.5 147.5t14.5 147t42 136.5t67.5 124t90 108.5t108.5 89.5t124 67t136.5 42.5t147 15t147.5 -15t137 -42.5t124.5 -67 t108 -89.5t89 -108.5t68 -124t43 -136.5t15 -147t-15 -147.5t-43 -137t-68 -124.5t-89 -108.5t-108 -89t-124.5 -67.5t-137 -42.5t-147.5 -14.5zM384 1116h425q20 0 40.5 -3t41 -9.5t40 -16t37.5 -22.5t33 -28.5t25 -34t15 -40.5t5 -46q-1 -28 -9.5 -55t-25.5 -50t-44 -42 t-68 -33q24 -18 43 -39t35.5 -45t30.5 -48l28 -50l16 -30l19 -31l20 -33q10 -16 21.5 -31t22.5 -28t23 -22t23.5 -14.5t22.5 -5.5v-18l-247 -1q-14 22 -28.5 49t-28.5 57l-28 60q-14 30 -29.5 59t-32 54t-34.5 44t-39 29.5t-45 10.5h-38v-272q0 -14 5.5 -27.5t16 -24.5 t23.5 -17t29 -6h18v-15h-362v17h16q14 0 28.5 4t26 13t18.5 24t7 38v583q0 20 -7 35.5t-18 25.5t-25 15t-28 5h-18v15zM650 1074v-326h54q48 0 80 15t51 38.5t26.5 53t7.5 57.5q0 29 -8.5 58t-27.5 52t-50 37.5t-75 14.5h-58z" />
<glyph unicode="&#xaf;" horiz-adv-x="1024" d="M-11 1735h1041v-103h-1041v103z" />
<glyph unicode="&#xb0;" horiz-adv-x="820" d="M410 864q47 0 88.5 18t72.5 49t48.5 73t17.5 88q0 47 -17.5 88.5t-48.5 72.5t-73 49t-88 18q-47 0 -88.5 -18t-72.5 -49t-49 -72.5t-18 -88.5q0 -46 18 -88t49 -73t72.5 -49t88.5 -18zM410 785q-64 0 -120 24.5t-98 66t-66 97t-24 119.5t24 120t66 97.5t98 66t120 24.5 t119.5 -24.5t97 -66t66 -97.5t24.5 -120t-24.5 -119.5t-66 -97t-97 -66t-119.5 -24.5z" />
<glyph unicode="&#xb1;" horiz-adv-x="1125" d="M506 1320h108v-484h484v-108h-484v-500h-108v500h-484v108h484v484zM22 114h1076v-114h-1076v114z" />
<glyph unicode="&#xb2;" horiz-adv-x="705" d="M318 1490q44 0 89.5 -12.5t83 -38t61.5 -63.5t26 -89q0 -34 -9 -67.5t-27 -66t-41.5 -63.5t-51 -60.5t-57.5 -56.5l-62 -52l-59 -47l-55 -42h326q25 0 46 11t38.5 28t31.5 38t24 41h18l-42 -234h-663l66 57l67 58l64 59q32 30 60 61t52 63t42 65t30 66t15 68 q2 20 -8.5 46.5t-32.5 50t-53 39t-71 15.5q-30 -1 -60 -10.5t-56 -25.5t-46 -37t-31 -45h-21q8 65 38 111.5t73 76t94 43t101 13.5z" />
<glyph unicode="&#xb3;" horiz-adv-x="620" d="M258 1493q44 -2 90 -10.5t84.5 -29.5t65 -57t32.5 -91q2 -26 -11 -51t-35 -46.5t-50 -39.5t-58 -30q43 -4 80.5 -20.5t66.5 -43.5t47 -62.5t20 -77.5q3 -42 -17.5 -84t-59.5 -76t-95 -54t-124 -16q-48 2 -86 10t-71 20t-63 28t-62 38v54q51 -34 106 -56t115 -25 q40 -2 69.5 13.5t48 39.5t27 53t8.5 55q0 24 -9 53t-34.5 53t-69 40t-111.5 16q-21 0 -48.5 -4t-51.5 -6v54q27 -4 53.5 -4t53.5 -2q52 -2 86.5 12.5t54.5 38t27 52.5t7 55q-2 42 -11.5 71.5t-26 48t-39.5 27.5t-52 9q-33 0 -64 -12t-57 -33t-44 -49t-24 -62h-14v195h14 q2 -4 7 -10.5t10.5 -11t12 -7t13.5 -1.5q8 2 23.5 8.5t38.5 12.5t55 11t72 4z" />
<glyph unicode="&#xb4;" horiz-adv-x="682" d="M666 1980l-592 -396h-46l228 396h410z" />
<glyph unicode="&#xb5;" horiz-adv-x="1180" d="M125 1018h171v-734q0 -32 17 -64.5t44 -58.5t61 -42.5t66 -16.5q18 0 38 5.5t40 14t40 20.5t37.5 24.5t33 26t26.5 25.5t17 22t6 16v768h177v-819q0 -22 8.5 -47.5t23.5 -46.5t34 -35t42 -14q22 0 38.5 10.5t29.5 29t22 45t18 58.5h40q-11 -64 -34 -108t-54.5 -71.5 t-70 -41.5t-80.5 -18q-34 -4 -67 8t-59 37t-43 64t-19 90l-68 -74q-34 -36 -73 -63.5t-85 -42.5t-104 -13q-28 1 -55 5.5t-52 15t-49 27t-48 42.5q0 -28 3 -56t8 -56t12 -55t15 -51q13 -39 21.5 -77t8.5 -85q0 -22 -7 -47t-20 -47t-31 -36t-39 -12q-23 2 -41 17t-31 38 t-21 49t-10 50q-3 34 6.5 68t22 68t23.5 68t11 68v1052z" />
<glyph unicode="&#xb6;" horiz-adv-x="900" d="M910 1468v-171h-114v-1701h-142v1701h-188v-1695h-130v1035q-48 6 -88 20t-72 33.5t-57 44.5t-44 54t-32 60t-21 64t-12 67t-4 66q0 33 4 69t14 71.5t24 70.5t34 66t45 57.5t55.5 46t67 30.5t78.5 11h582z" />
<glyph unicode="&#xb7;" horiz-adv-x="682" d="M244 574q-32 0 -61 13t-51 34.5t-34.5 50.5t-12.5 62t12.5 61.5t34.5 50.5t51 34.5t61 12.5q33 0 62.5 -12.5t50.5 -34.5t34 -50.5t13 -61.5t-13 -62t-34 -50.5t-50.5 -34.5t-62.5 -13z" />
<glyph unicode="&#x2219;" horiz-adv-x="682" d="M244 574q-32 0 -61 13t-51 34.5t-34.5 50.5t-12.5 62t12.5 61.5t34.5 50.5t51 34.5t61 12.5q33 0 62.5 -12.5t50.5 -34.5t34 -50.5t13 -61.5t-13 -62t-34 -50.5t-50.5 -34.5t-62.5 -13z" />
<glyph unicode="&#xb8;" horiz-adv-x="682" d="M160 -74l102 69q18 1 37 3t37 2q36 0 72.5 -7t66 -24.5t47.5 -47t18 -74.5q0 -44 -19 -72.5t-58 -45t-98 -23.5t-137 -7q-40 0 -78.5 0.5t-81.5 5.5v68l35 -3l33 -3q26 -2 57 3t57 16.5t43 29.5t14 42q-2 23 -16.5 36.5t-35.5 19.5t-47 8z" />
<glyph unicode="&#xb9;" horiz-adv-x="425" d="M324 1490v-679q0 -20 8.5 -35t22.5 -24.5t31 -14.5t34 -5h18v-15l-424 -1v16h18q18 0 34.5 4t29.5 14t21 26t8 41v396q0 7 -0.5 16t-4 17.5t-11 14t-19.5 5.5q-20 0 -41 -8t-35 -18l-14 14l303 236h21z" />
<glyph unicode="&#xba;" horiz-adv-x="1024" d="M512 1440q-26 0 -47 -7.5t-38 -20t-29 -29t-21 -36t-15 -40.5t-9 -42t-5 -41t-2 -38q0 -17 1.5 -36.5t5 -40.5t8.5 -42t14 -40t21.5 -35t29 -29t38 -20t48.5 -7q28 0 50 6.5t38 18.5t28 28.5t20 35.5t12.5 40t7 42t3.5 41t1 36q0 18 -1 38t-3.5 41t-7 42.5t-12.5 41 t-20 36.5t-28 29.5t-38 20t-50 7.5zM510 1494q54 0 99 -7t83 -21t69 -33t54 -42t40 -48.5t28 -53t16.5 -55t5.5 -54.5q0 -26 -5 -53t-15.5 -54t-26.5 -51.5t-39 -47t-53 -40.5t-67 -32t-82.5 -21t-99.5 -8q-56 0 -102.5 7t-84.5 20t-67 31.5t-51 40.5t-38 46t-26 50 t-15.5 52t-7.5 50q-2 27 1.5 55.5t13.5 55.5t26 54t39.5 50t54 43t67.5 34.5t83 23t100 8.5z" />
<glyph unicode="&#xbb;" horiz-adv-x="920" d="M466 1229h28l393 -501l-393 -500h-22l136 500zM23 1229h29l392 -501l-392 -500h-24l138 500z" />
<glyph unicode="&#xbc;" horiz-adv-x="1707" d="M474 1485v-659q0 -20 6.5 -34t17 -24t22.5 -15t24 -5h14v-14h-308v14h12q13 0 25 4t21.5 14t15.5 26t6 40v384q0 7 -1 15.5t-3 16.5t-7 13.5t-15 5.5q-14 0 -29 -7.5t-25 -18.5l-11 15l220 229h15zM1342 256h-301v17l367 449h91v-410h168v-53h-168v-193q0 -14 4.5 -28 t13.5 -25.5t22 -19t31 -7.5h23v-14h-344v14h14q14 0 28 5t25.5 14t18.5 23t7 32v196zM1126 312h216v268zM1508 1490l-1092 -1540h-160l1086 1540h166z" />
<glyph unicode="&#xbd;" horiz-adv-x="1707" d="M474 1485v-659q0 -20 6.5 -34t17 -24t22.5 -15t24 -5h14v-14h-308v14h12q13 0 25 4t21.5 14t15.5 26t6 40v384q0 7 -1 15.5t-3 16.5t-7 13.5t-15 5.5q-14 0 -29 -7.5t-25 -18.5l-11 15l220 229h15zM1474 1490l-1093 -1540h-159l1086 1540h166zM1350 722q37 0 74.5 -12 t68.5 -37t51 -62t21 -87q1 -33 -7 -65.5t-22 -63.5t-34 -61t-43 -59t-48 -55l-50 -50l-50 -46l-45 -40h270q20 0 38 10t32 27t26 37.5t20 39.5h15l-35 -226h-550l55 54l56 56l53 58q26 29 49.5 59.5t43 61.5t35 62t25 64t12.5 66q2 20 -7.5 45.5t-27 48.5t-44 38t-58.5 14 q-25 0 -49.5 -9.5t-46.5 -24.5t-39 -36t-25 -45h-18q6 64 31 109t61 74t78.5 42t83.5 13z" />
<glyph unicode="&#xbe;" horiz-adv-x="1707" d="M1342 256h-301v17l367 449h91v-409h168v-54h-168v-193q0 -13 4.5 -27.5t13.5 -26t22 -19t31 -7.5h23v-14h-344v14h14q14 0 28 5t25.5 14t18.5 23t7 32v196zM1126 313h216v267zM1508 1490l-1092 -1540h-160l1086 1540h166zM297 1488q45 -1 92 -9.5t86 -28.5t66 -55t33 -89 q2 -26 -11 -49t-35 -44t-51 -38.5t-60 -29.5q44 -3 82.5 -19t68 -42t48 -60t20.5 -74q3 -40 -18 -81.5t-61 -74t-96.5 -51.5t-126.5 -15q-49 2 -88.5 9t-72.5 19t-64 28t-63 36v52q52 -32 108 -53t118 -25q41 -2 70.5 12.5t48.5 38t28 51.5t9 54q0 24 -10 51t-35 50 t-70 38.5t-115 15.5q-22 0 -49 -3.5t-53 -5.5v52q28 -4 55 -4t55 -2q53 -2 88 12t55.5 36.5t27.5 50.5t7 54q-2 40 -11 68.5t-26.5 46.5t-41 26t-51.5 8q-34 0 -66 -11.5t-58 -31.5t-44.5 -47.5t-25.5 -58.5h-14v187h14l7.5 -10t10.5 -11t13 -7t13 0q8 2 24 8t40 12t56 10.5 t73 3.5z" />
<glyph unicode="&#xbf;" horiz-adv-x="705" d="M387 1494q34 0 64 -13t52.5 -35t35.5 -52t13 -64t-13 -64t-35.5 -52.5t-52.5 -35.5t-64 -13t-64 13t-52.5 35.5t-35.5 52.5t-13 64t13 64t35.5 52t52.5 35t64 13zM342 -18q-57 2 -113.5 22t-101 61t-73 102t-31.5 145q-2 66 21.5 129t63.5 124t94 120l110 117 q22 22 43 47t38 52.5t29 56.5t16 59q1 10 -1.5 19.5t-4.5 20.5h18q15 -20 29.5 -41.5t25.5 -46t18 -50t6 -50.5q0 -34 -8.5 -68.5t-20.5 -67.5t-28 -65t-34 -62l-29 -52q-14 -26 -25.5 -54t-18.5 -59t-7 -67q0 -27 11.5 -54.5t32 -49.5t48.5 -36t62 -14q20 0 41 5.5t40 15 t35 23.5t26 30h12h12q-20 -66 -53 -123.5t-77 -100t-96 -66.5t-110 -22z" />
<glyph unicode="&#xc0;" horiz-adv-x="1622" d="M876 1490l444 -1166l18 -48q9 -24 19 -48t22 -47t26.5 -43.5t33.5 -38.5t41.5 -32.5t50 -24.5t62.5 -14v-28h-694v28q34 2 58.5 9t40.5 17t26 23t13.5 28t3 31t-3.5 32t-8 31t-11 29l-125 324h-443l-114 -336q-9 -28 -10.5 -57t11.5 -55t43 -47t86 -29v-28h-444v28 q47 8 84.5 34t65.5 62t49 78t35 82l426 1206h194zM490 650l364 -2l-188 501zM455 1974h404l227 -393h-45z" />
<glyph unicode="&#xe0;" horiz-adv-x="1622" d="M876 1490l444 -1166l18 -48q9 -24 19 -48t22 -47t26.5 -43.5t33.5 -38.5t41.5 -32.5t50 -24.5t62.5 -14v-28h-694v28q34 2 58.5 9t40.5 17t26 23t13.5 28t3 31t-3.5 32t-8 31t-11 29l-125 324h-443l-114 -336q-9 -28 -10.5 -57t11.5 -55t43 -47t86 -29v-28h-444v28 q47 8 84.5 34t65.5 62t49 78t35 82l426 1206h194zM490 650l364 -2l-188 501zM455 1974h404l227 -393h-45z" />
<glyph unicode="&#xc1;" horiz-adv-x="1622" d="M1132 1974l-586 -393h-44l226 393h404zM876 1490l444 -1166l18 -48q9 -24 19 -48t22 -47t26.5 -43.5t33.5 -38.5t41.5 -32.5t50 -24.5t62.5 -14v-28h-694v28q34 2 58.5 9t40.5 17t26 23t13.5 28t3 31t-3.5 32t-8 31t-11 29l-125 324h-443l-114 -336q-9 -28 -10.5 -57 t11.5 -55t43 -47t86 -29v-28h-444v28q47 8 84.5 34t65.5 62t49 78t35 82l426 1206h194zM490 650l364 -2l-188 501z" />
<glyph unicode="&#xe1;" horiz-adv-x="1622" d="M1132 1974l-586 -393h-44l226 393h404zM876 1490l444 -1166l18 -48q9 -24 19 -48t22 -47t26.5 -43.5t33.5 -38.5t41.5 -32.5t50 -24.5t62.5 -14v-28h-694v28q34 2 58.5 9t40.5 17t26 23t13.5 28t3 31t-3.5 32t-8 31t-11 29l-125 324h-443l-114 -336q-9 -28 -10.5 -57 t11.5 -55t43 -47t86 -29v-28h-444v28q47 8 84.5 34t65.5 62t49 78t35 82l426 1206h194zM490 650l364 -2l-188 501z" />
<glyph unicode="&#xc2;" horiz-adv-x="1622" d="M876 1490l444 -1166l18 -48q9 -24 19 -48t22 -47t26.5 -43.5t33.5 -38.5t41.5 -32.5t50 -24.5t62.5 -14v-28h-694v28q34 2 58.5 9t40.5 17t26 23t13.5 28t3 31t-3.5 32t-8 31t-11 29l-125 324h-443l-114 -336q-9 -28 -10.5 -57t11.5 -55t43 -47t86 -29v-28h-444v28 q47 8 84.5 34t65.5 62t49 78t35 82l426 1206h194zM490 650l364 -2l-188 501zM962 1986l228 -399h-52l-324 251l-324 -245h-58l256 393h274z" />
<glyph unicode="&#xe2;" horiz-adv-x="1622" d="M876 1490l444 -1166l18 -48q9 -24 19 -48t22 -47t26.5 -43.5t33.5 -38.5t41.5 -32.5t50 -24.5t62.5 -14v-28h-694v28q34 2 58.5 9t40.5 17t26 23t13.5 28t3 31t-3.5 32t-8 31t-11 29l-125 324h-443l-114 -336q-9 -28 -10.5 -57t11.5 -55t43 -47t86 -29v-28h-444v28 q47 8 84.5 34t65.5 62t49 78t35 82l426 1206h194zM490 650l364 -2l-188 501zM962 1986l228 -399h-52l-324 251l-324 -245h-58l256 393h274z" />
<glyph unicode="&#xc3;" horiz-adv-x="1622" d="M876 1490l444 -1166l18 -48q9 -24 19 -48t22 -47t26.5 -43.5t33.5 -38.5t41.5 -32.5t50 -24.5t62.5 -14v-28h-694v28q34 2 58.5 9t40.5 17t26 23t13.5 28t3 31t-3.5 32t-8 31t-11 29l-125 324h-443l-114 -336q-9 -28 -10.5 -57t11.5 -55t43 -47t86 -29v-28h-444v28 q47 8 84.5 34t65.5 62t49 78t35 82l426 1206h194zM490 650l364 -2l-188 501zM643 1878q26 2 52.5 -1.5t51.5 -9t50 -13.5l50 -17l51 -17q26 -8 53 -15.5t55 -12t58 -6.5q17 -1 32.5 5.5t28.5 18.5t22 29t13 39h58q-4 -66 -23 -120t-49.5 -91t-72 -56.5t-89.5 -17.5 q-28 1 -56.5 5.5t-58 11l-59.5 13.5t-60 15l-56 16q-27 8 -51.5 14t-46.5 10.5t-38 5.5q-17 1 -34.5 -6.5t-32 -20.5t-24 -30t-12.5 -34h-51q6 76 29 129.5t56 87.5t73.5 50t80.5 18z" />
<glyph unicode="&#xe3;" horiz-adv-x="1622" d="M876 1490l444 -1166l18 -48q9 -24 19 -48t22 -47t26.5 -43.5t33.5 -38.5t41.5 -32.5t50 -24.5t62.5 -14v-28h-694v28q34 2 58.5 9t40.5 17t26 23t13.5 28t3 31t-3.5 32t-8 31t-11 29l-125 324h-443l-114 -336q-9 -28 -10.5 -57t11.5 -55t43 -47t86 -29v-28h-444v28 q47 8 84.5 34t65.5 62t49 78t35 82l426 1206h194zM490 650l364 -2l-188 501zM643 1878q26 2 52.5 -1.5t51.5 -9t50 -13.5l50 -17l51 -17q26 -8 53 -15.5t55 -12t58 -6.5q17 -1 32.5 5.5t28.5 18.5t22 29t13 39h58q-4 -66 -23 -120t-49.5 -91t-72 -56.5t-89.5 -17.5 q-28 1 -56.5 5.5t-58 11l-59.5 13.5t-60 15l-56 16q-27 8 -51.5 14t-46.5 10.5t-38 5.5q-17 1 -34.5 -6.5t-32 -20.5t-24 -30t-12.5 -34h-51q6 76 29 129.5t56 87.5t73.5 50t80.5 18z" />
<glyph unicode="&#xc4;" horiz-adv-x="1622" d="M876 1490l444 -1166l18 -48q9 -24 19 -48t22 -47t26.5 -43.5t33.5 -38.5t41.5 -32.5t50 -24.5t62.5 -14v-28h-694v28q34 2 58.5 9t40.5 17t26 23t13.5 28t3 31t-3.5 32t-8 31t-11 29l-125 324h-443l-114 -336q-9 -28 -10.5 -57t11.5 -55t43 -47t86 -29v-28h-444v28 q47 8 84.5 34t65.5 62t49 78t35 82l426 1206h194zM490 650l364 -2l-188 501zM571 1584q-28 0 -51.5 10.5t-41.5 28t-28 41.5t-10 52q0 27 10 50.5t28 41.5t42 28.5t51 10.5t51 -10.5t42 -28.5t28 -42t10 -50q0 -27 -10 -51.5t-28 -42t-42 -28t-51 -10.5zM1046 1584 q-27 0 -50.5 10.5t-41.5 28t-28.5 41.5t-10.5 52q0 27 10.5 50.5t28.5 41.5t42 28.5t50 10.5q27 0 51.5 -10.5t42 -28.5t28 -42t10.5 -50q0 -27 -10.5 -51.5t-28 -42t-42 -28t-51.5 -10.5z" />
<glyph unicode="&#xe4;" horiz-adv-x="1622" d="M876 1490l444 -1166l18 -48q9 -24 19 -48t22 -47t26.5 -43.5t33.5 -38.5t41.5 -32.5t50 -24.5t62.5 -14v-28h-694v28q34 2 58.5 9t40.5 17t26 23t13.5 28t3 31t-3.5 32t-8 31t-11 29l-125 324h-443l-114 -336q-9 -28 -10.5 -57t11.5 -55t43 -47t86 -29v-28h-444v28 q47 8 84.5 34t65.5 62t49 78t35 82l426 1206h194zM490 650l364 -2l-188 501zM571 1584q-28 0 -51.5 10.5t-41.5 28t-28 41.5t-10 52q0 27 10 50.5t28 41.5t42 28.5t51 10.5t51 -10.5t42 -28.5t28 -42t10 -50q0 -27 -10 -51.5t-28 -42t-42 -28t-51 -10.5zM1046 1584 q-27 0 -50.5 10.5t-41.5 28t-28.5 41.5t-10.5 52q0 27 10.5 50.5t28.5 41.5t42 28.5t50 10.5q27 0 51.5 -10.5t42 -28.5t28 -42t10.5 -50q0 -27 -10.5 -51.5t-28 -42t-42 -28t-51.5 -10.5z" />
<glyph unicode="&#xc5;" horiz-adv-x="1622" d="M876 1490l444 -1166l18 -48q9 -24 19 -48t22 -47t26.5 -43.5t33.5 -38.5t41.5 -32.5t50 -24.5t62.5 -14v-28h-694v28q34 2 58.5 9t40.5 17t26 23t13.5 28t3 31t-3.5 32t-8 31t-11 29l-125 324h-443l-114 -336q-9 -28 -10.5 -57t11.5 -55t43 -47t86 -29v-28h-444v28 q47 8 84.5 34t65.5 62t49 78t35 82l426 1206h194zM490 650l364 -2l-188 501zM808 1678q25 0 46.5 9.5t37.5 26t25.5 38.5t9.5 46q0 25 -9.5 46.5t-25.5 37.5t-38 25.5t-46 9.5t-46 -9.5t-38.5 -25.5t-26 -38t-9.5 -46t9.5 -46t26 -38.5t38.5 -26t46 -9.5zM808 1587 q-43 0 -81.5 16.5t-67.5 45.5t-45.5 67t-16.5 82t16.5 82t45.5 66.5t67 45t82 16.5t82 -16.5t66.5 -45t45 -66.5t16.5 -82q0 -43 -16.5 -81.5t-45 -67.5t-66.5 -45.5t-82 -16.5z" />
<glyph unicode="&#xe5;" horiz-adv-x="1622" d="M876 1490l444 -1166l18 -48q9 -24 19 -48t22 -47t26.5 -43.5t33.5 -38.5t41.5 -32.5t50 -24.5t62.5 -14v-28h-694v28q34 2 58.5 9t40.5 17t26 23t13.5 28t3 31t-3.5 32t-8 31t-11 29l-125 324h-443l-114 -336q-9 -28 -10.5 -57t11.5 -55t43 -47t86 -29v-28h-444v28 q47 8 84.5 34t65.5 62t49 78t35 82l426 1206h194zM490 650l364 -2l-188 501zM808 1678q25 0 46.5 9.5t37.5 26t25.5 38.5t9.5 46q0 25 -9.5 46.5t-25.5 37.5t-38 25.5t-46 9.5t-46 -9.5t-38.5 -25.5t-26 -38t-9.5 -46t9.5 -46t26 -38.5t38.5 -26t46 -9.5zM808 1587 q-43 0 -81.5 16.5t-67.5 45.5t-45.5 67t-16.5 82t16.5 82t45.5 66.5t67 45t82 16.5t82 -16.5t66.5 -45t45 -66.5t16.5 -82q0 -43 -16.5 -81.5t-45 -67.5t-66.5 -45.5t-82 -16.5z" />
<glyph unicode="&#xc6;" horiz-adv-x="2027" d="M734 1474h1189l11 -336h-28q-4 47 -18 92.5t-39 82t-60 59t-83 22.5h-330v-626h296q31 0 57.5 16t46.5 42.5t33 62t17 73.5h23l-1 -433h-28q-2 38 -16.5 68t-37 50.5t-50 30.5t-55.5 10h-285v-454q0 -28 15 -56t38 -49.5t51 -35t56 -13.5h165q47 0 91 20t79 56t59 86 t32 110h29l-23 -357h-1098v33h29q34 0 62.5 12t48.5 33.5t31 51t11 63.5v406l-489 -2l-69 -124l-66 -116l-58 -104q-26 -48 -40 -88q-7 -19 -0.5 -42t22.5 -43t37 -33.5t43 -13.5h34v-28h-449v28l34 6q28 5 52.5 19.5t46 35.5t39.5 45t33 48l96 159l107 181l109 189l106 187 l94 172l76 143q33 63 52 103t20 50q1 11 -3 24.5t-16 25.5t-33.5 20.5t-55.5 8.5h-40v29zM620 694h426v694h-34z" />
<glyph unicode="&#xe6;" horiz-adv-x="2027" d="M734 1474h1189l11 -336h-28q-4 47 -18 92.5t-39 82t-60 59t-83 22.5h-330v-626h296q31 0 57.5 16t46.5 42.5t33 62t17 73.5h23l-1 -433h-28q-2 38 -16.5 68t-37 50.5t-50 30.5t-55.5 10h-285v-454q0 -28 15 -56t38 -49.5t51 -35t56 -13.5h165q47 0 91 20t79 56t59 86 t32 110h29l-23 -357h-1098v33h29q34 0 62.5 12t48.5 33.5t31 51t11 63.5v406l-489 -2l-69 -124l-66 -116l-58 -104q-26 -48 -40 -88q-7 -19 -0.5 -42t22.5 -43t37 -33.5t43 -13.5h34v-28h-449v28l34 6q28 5 52.5 19.5t46 35.5t39.5 45t33 48l96 159l107 181l109 189l106 187 l94 172l76 143q33 63 52 103t20 50q1 11 -3 24.5t-16 25.5t-33.5 20.5t-55.5 8.5h-40v29zM620 694h426v694h-34z" />
<glyph unicode="&#xc7;" horiz-adv-x="1472" d="M859 1490q56 0 110 -7t108 -19l110 -24q55 -14 115 -24q4 0 15.5 6.5t23 17.5t21 24.5t9.5 25.5h40v-523h-40q-22 118 -69.5 202.5t-113.5 138.5t-145 79t-161 24q-118 -2 -203 -50.5t-140 -134.5t-83 -203t-30 -255q-1 -83 9.5 -155t30.5 -132.5t49 -110.5t65 -90 t78 -69t88.5 -48t96 -28.5t101.5 -9.5q88 0 156 22.5t124.5 60.5t105.5 88l98 102v-130q-41 -59 -96.5 -106.5t-119.5 -82t-134 -57t-142 -32.5q-3 0 -3 -2t2 -4t4.5 -4t4.5 -2q21 -2 41.5 -10t36.5 -23.5t26 -39.5t10 -58q0 -42 -24 -71.5t-65 -47.5t-96 -26t-117 -8 q-42 0 -85 4t-85 7v68l31 -4t31 -2q36 0 68 5.5t54.5 16.5t35.5 28t13 41q0 21 -14.5 34.5t-36 20.5t-48 8.5t-48.5 -0.5l92 65q-92 6 -170 27.5t-144 55.5t-120 78.5t-96.5 97.5t-73.5 112t-50.5 121.5t-28.5 127t-7 128.5q2 76 17 148.5t42 140t65.5 128.5t89 113 t111.5 94t133 71t153.5 45t173.5 16z" />
<glyph unicode="&#xe7;" horiz-adv-x="1472" d="M859 1490q56 0 110 -7t108 -19l110 -24q55 -14 115 -24q4 0 15.5 6.5t23 17.5t21 24.5t9.5 25.5h40v-523h-40q-22 118 -69.5 202.5t-113.5 138.5t-145 79t-161 24q-118 -2 -203 -50.5t-140 -134.5t-83 -203t-30 -255q-1 -83 9.5 -155t30.5 -132.5t49 -110.5t65 -90 t78 -69t88.5 -48t96 -28.5t101.5 -9.5q88 0 156 22.5t124.5 60.5t105.5 88l98 102v-130q-41 -59 -96.5 -106.5t-119.5 -82t-134 -57t-142 -32.5q-3 0 -3 -2t2 -4t4.5 -4t4.5 -2q21 -2 41.5 -10t36.5 -23.5t26 -39.5t10 -58q0 -42 -24 -71.5t-65 -47.5t-96 -26t-117 -8 q-42 0 -85 4t-85 7v68l31 -4t31 -2q36 0 68 5.5t54.5 16.5t35.5 28t13 41q0 21 -14.5 34.5t-36 20.5t-48 8.5t-48.5 -0.5l92 65q-92 6 -170 27.5t-144 55.5t-120 78.5t-96.5 97.5t-73.5 112t-50.5 121.5t-28.5 127t-7 128.5q2 76 17 148.5t42 140t65.5 128.5t89 113 t111.5 94t133 71t153.5 45t173.5 16z" />
<glyph unicode="&#xc8;" horiz-adv-x="1195" d="M28 1474h1053l11 -336h-28q-4 47 -18 92.5t-39 82t-60 59t-83 22.5h-330v-626h296q31 0 57.5 16t46.5 42.5t33 62t17 73.5h23v-433h-29q-2 38 -16.5 68t-37 50.5t-49.5 30.5t-56 10h-285v-454q0 -28 15 -56t38 -49.5t51 -35t56 -13.5h165q47 0 91 20t79 56t59 86t32 110 h29l-23 -357h-1098v33h29q34 0 62.5 12t48.5 33.5t31 51t11 63.5v1098q0 25 -7 51.5t-23 49.5t-39 38t-55 15h-58v34zM244 1974h404l228 -393h-46z" />
<glyph unicode="&#xe8;" horiz-adv-x="1195" d="M28 1474h1053l11 -336h-28q-4 47 -18 92.5t-39 82t-60 59t-83 22.5h-330v-626h296q31 0 57.5 16t46.5 42.5t33 62t17 73.5h23v-433h-29q-2 38 -16.5 68t-37 50.5t-49.5 30.5t-56 10h-285v-454q0 -28 15 -56t38 -49.5t51 -35t56 -13.5h165q47 0 91 20t79 56t59 86t32 110 h29l-23 -357h-1098v33h29q34 0 62.5 12t48.5 33.5t31 51t11 63.5v1098q0 25 -7 51.5t-23 49.5t-39 38t-55 15h-58v34zM244 1974h404l228 -393h-46z" />
<glyph unicode="&#xc9;" horiz-adv-x="1195" d="M28 1474h1053l11 -336h-28q-4 47 -18 92.5t-39 82t-60 59t-83 22.5h-330v-626h296q31 0 57.5 16t46.5 42.5t33 62t17 73.5h23v-433h-29q-2 38 -16.5 68t-37 50.5t-49.5 30.5t-56 10h-285v-454q0 -28 15 -56t38 -49.5t51 -35t56 -13.5h165q47 0 91 20t79 56t59 86t32 110 h29l-23 -357h-1098v33h29q34 0 62.5 12t48.5 33.5t31 51t11 63.5v1098q0 25 -7 51.5t-23 49.5t-39 38t-55 15h-58v34zM978 1974l-586 -393h-45l227 393h404z" />
<glyph unicode="&#xe9;" horiz-adv-x="1195" d="M28 1474h1053l11 -336h-28q-4 47 -18 92.5t-39 82t-60 59t-83 22.5h-330v-626h296q31 0 57.5 16t46.5 42.5t33 62t17 73.5h23v-433h-29q-2 38 -16.5 68t-37 50.5t-49.5 30.5t-56 10h-285v-454q0 -28 15 -56t38 -49.5t51 -35t56 -13.5h165q47 0 91 20t79 56t59 86t32 110 h29l-23 -357h-1098v33h29q34 0 62.5 12t48.5 33.5t31 51t11 63.5v1098q0 25 -7 51.5t-23 49.5t-39 38t-55 15h-58v34zM978 1974l-586 -393h-45l227 393h404z" />
<glyph unicode="&#xca;" horiz-adv-x="1195" d="M28 1474h1053l11 -336h-28q-4 47 -18 92.5t-39 82t-60 59t-83 22.5h-330v-626h296q31 0 57.5 16t46.5 42.5t33 62t17 73.5h23v-433h-29q-2 38 -16.5 68t-37 50.5t-49.5 30.5t-56 10h-285v-454q0 -28 15 -56t38 -49.5t51 -35t56 -13.5h165q47 0 91 20t79 56t59 86t32 110 h29l-23 -357h-1098v33h29q34 0 62.5 12t48.5 33.5t31 51t11 63.5v1098q0 25 -7 51.5t-23 49.5t-39 38t-55 15h-58v34zM746 1986l227 -399h-51l-324 251l-325 -245h-57l256 393h274z" />
<glyph unicode="&#xea;" horiz-adv-x="1195" d="M28 1474h1053l11 -336h-28q-4 47 -18 92.5t-39 82t-60 59t-83 22.5h-330v-626h296q31 0 57.5 16t46.5 42.5t33 62t17 73.5h23v-433h-29q-2 38 -16.5 68t-37 50.5t-49.5 30.5t-56 10h-285v-454q0 -28 15 -56t38 -49.5t51 -35t56 -13.5h165q47 0 91 20t79 56t59 86t32 110 h29l-23 -357h-1098v33h29q34 0 62.5 12t48.5 33.5t31 51t11 63.5v1098q0 25 -7 51.5t-23 49.5t-39 38t-55 15h-58v34zM746 1986l227 -399h-51l-324 251l-325 -245h-57l256 393h274z" />
<glyph unicode="&#xcb;" horiz-adv-x="1195" d="M28 1474h1053l11 -336h-28q-4 47 -18 92.5t-39 82t-60 59t-83 22.5h-330v-626h296q31 0 57.5 16t46.5 42.5t33 62t17 73.5h23v-433h-29q-2 38 -16.5 68t-37 50.5t-49.5 30.5t-56 10h-285v-454q0 -28 15 -56t38 -49.5t51 -35t56 -13.5h165q47 0 91 20t79 56t59 86t32 110 h29l-23 -357h-1098v33h29q34 0 62.5 12t48.5 33.5t31 51t11 63.5v1098q0 25 -7 51.5t-23 49.5t-39 38t-55 15h-58v34zM354 1584q-27 0 -50.5 10.5t-41.5 28t-28.5 41.5t-10.5 52q0 27 10.5 50.5t28.5 41.5t42 28.5t50 10.5q27 0 51.5 -10.5t42 -28.5t28 -42t10.5 -50 q0 -27 -10.5 -51.5t-28 -42t-42 -28t-51.5 -10.5zM830 1584q-27 0 -51 10.5t-41.5 28t-28 41.5t-10.5 52q0 27 10.5 50.5t28 41.5t41.5 28.5t51 10.5t51 -10.5t41.5 -28.5t28.5 -42t11 -50q0 -27 -11 -51.5t-28.5 -42t-41.5 -28t-51 -10.5z" />
<glyph unicode="&#xeb;" horiz-adv-x="1195" d="M28 1474h1053l11 -336h-28q-4 47 -18 92.5t-39 82t-60 59t-83 22.5h-330v-626h296q31 0 57.5 16t46.5 42.5t33 62t17 73.5h23v-433h-29q-2 38 -16.5 68t-37 50.5t-49.5 30.5t-56 10h-285v-454q0 -28 15 -56t38 -49.5t51 -35t56 -13.5h165q47 0 91 20t79 56t59 86t32 110 h29l-23 -357h-1098v33h29q34 0 62.5 12t48.5 33.5t31 51t11 63.5v1098q0 25 -7 51.5t-23 49.5t-39 38t-55 15h-58v34zM354 1584q-27 0 -50.5 10.5t-41.5 28t-28.5 41.5t-10.5 52q0 27 10.5 50.5t28.5 41.5t42 28.5t50 10.5q27 0 51.5 -10.5t42 -28.5t28 -42t10.5 -50 q0 -27 -10.5 -51.5t-28 -42t-42 -28t-51.5 -10.5zM830 1584q-27 0 -51 10.5t-41.5 28t-28 41.5t-10.5 52q0 27 10.5 50.5t28 41.5t41.5 28.5t51 10.5t51 -10.5t41.5 -28.5t28.5 -42t11 -50q0 -27 -11 -51.5t-28.5 -42t-41.5 -28t-51 -10.5z" />
<glyph unicode="&#xcc;" horiz-adv-x="747" d="M28 1474h689v-29h-17q-52 0 -84 -15.5t-50 -40t-25 -55t-7 -60.5v-1098q0 -27 11 -53.5t31 -47.5t50 -34t68 -13h23v-28h-689v28h18q47 0 78.5 14t50.5 37.5t27 54.5t8 65v1087q0 43 -15 72.5t-39 49.5t-53 28.5t-57 8.5h-18v29zM80 1974h404l226 -393h-44z" />
<glyph unicode="&#xec;" horiz-adv-x="747" d="M28 1474h689v-29h-17q-52 0 -84 -15.5t-50 -40t-25 -55t-7 -60.5v-1098q0 -27 11 -53.5t31 -47.5t50 -34t68 -13h23v-28h-689v28h18q47 0 78.5 14t50.5 37.5t27 54.5t8 65v1087q0 43 -15 72.5t-39 49.5t-53 28.5t-57 8.5h-18v29zM80 1974h404l226 -393h-44z" />
<glyph unicode="&#xcd;" horiz-adv-x="747" d="M28 1474h689v-29h-17q-52 0 -84 -15.5t-50 -40t-25 -55t-7 -60.5v-1098q0 -27 11 -53.5t31 -47.5t50 -34t68 -13h23v-28h-689v28h18q47 0 78.5 14t50.5 37.5t27 54.5t8 65v1087q0 43 -15 72.5t-39 49.5t-53 28.5t-57 8.5h-18v29zM704 1974l-585 -393h-45l227 393h403z " />
<glyph unicode="&#xed;" horiz-adv-x="747" d="M28 1474h689v-29h-17q-52 0 -84 -15.5t-50 -40t-25 -55t-7 -60.5v-1098q0 -27 11 -53.5t31 -47.5t50 -34t68 -13h23v-28h-689v28h18q47 0 78.5 14t50.5 37.5t27 54.5t8 65v1087q0 43 -15 72.5t-39 49.5t-53 28.5t-57 8.5h-18v29zM704 1974l-585 -393h-45l227 393h403z " />
<glyph unicode="&#xce;" horiz-adv-x="747" d="M28 1474h689v-29h-17q-52 0 -84 -15.5t-50 -40t-25 -55t-7 -60.5v-1098q0 -27 11 -53.5t31 -47.5t50 -34t68 -13h23v-28h-689v28h18q47 0 78.5 14t50.5 37.5t27 54.5t8 65v1087q0 43 -15 72.5t-39 49.5t-53 28.5t-57 8.5h-18v29zM529 1986l228 -399h-51l-325 251 l-324 -245h-57l256 393h273z" />
<glyph unicode="&#xee;" horiz-adv-x="747" d="M28 1474h689v-29h-17q-52 0 -84 -15.5t-50 -40t-25 -55t-7 -60.5v-1098q0 -27 11 -53.5t31 -47.5t50 -34t68 -13h23v-28h-689v28h18q47 0 78.5 14t50.5 37.5t27 54.5t8 65v1087q0 43 -15 72.5t-39 49.5t-53 28.5t-57 8.5h-18v29zM529 1986l228 -399h-51l-325 251 l-324 -245h-57l256 393h273z" />
<glyph unicode="&#xcf;" horiz-adv-x="747" d="M28 1474h689v-29h-17q-52 0 -84 -15.5t-50 -40t-25 -55t-7 -60.5v-1098q0 -27 11 -53.5t31 -47.5t50 -34t68 -13h23v-28h-689v28h18q47 0 78.5 14t50.5 37.5t27 54.5t8 65v1087q0 43 -15 72.5t-39 49.5t-53 28.5t-57 8.5h-18v29zM138 1584q-27 0 -50.5 10.5t-41.5 28 t-28.5 41.5t-10.5 52q0 27 10.5 50.5t28.5 41.5t42 28.5t50 10.5q27 0 51.5 -10.5t42 -28.5t28 -42t10.5 -50q0 -27 -10.5 -51.5t-28 -42t-42 -28t-51.5 -10.5zM614 1584q-27 0 -51 10.5t-41.5 28t-28.5 41.5t-11 52q0 27 11 50.5t28.5 41.5t41.5 28.5t51 10.5t51 -10.5 t41.5 -28.5t28.5 -42t11 -50q0 -27 -11 -51.5t-28.5 -42t-41.5 -28t-51 -10.5z" />
<glyph unicode="&#xef;" horiz-adv-x="747" d="M28 1474h689v-29h-17q-52 0 -84 -15.5t-50 -40t-25 -55t-7 -60.5v-1098q0 -27 11 -53.5t31 -47.5t50 -34t68 -13h23v-28h-689v28h18q47 0 78.5 14t50.5 37.5t27 54.5t8 65v1087q0 43 -15 72.5t-39 49.5t-53 28.5t-57 8.5h-18v29zM138 1584q-27 0 -50.5 10.5t-41.5 28 t-28.5 41.5t-10.5 52q0 27 10.5 50.5t28.5 41.5t42 28.5t50 10.5q27 0 51.5 -10.5t42 -28.5t28 -42t10.5 -50q0 -27 -10.5 -51.5t-28 -42t-42 -28t-51.5 -10.5zM614 1584q-27 0 -51 10.5t-41.5 28t-28.5 41.5t-11 52q0 27 11 50.5t28.5 41.5t41.5 28.5t51 10.5t51 -10.5 t41.5 -28.5t28.5 -42t11 -50q0 -27 -11 -51.5t-28.5 -42t-41.5 -28t-51 -10.5z" />
<glyph unicode="&#xd0;" horiz-adv-x="1730" d="M17 1474h871q92 0 174 -18t152 -50t129 -76.5t106 -98t83 -115t60.5 -127t37.5 -133.5t14 -134q2 -64 -9.5 -129t-34 -128t-57.5 -121.5t-81 -110t-104 -94.5t-126 -74t-147 -48t-169 -17h-894v34h52q25 0 48.5 15t42 37t29.5 49t11 53v500h-183v86l183 -1v519 q0 37 -14 65.5t-36.5 48t-49.5 29.5t-54 10h-34v29zM524 1376v-602h369v-86h-369v-438q0 -36 13 -66.5t41 -53t72 -35.5t106 -15q51 -1 101.5 5.5t97.5 22t90.5 41t81 62.5t68.5 86.5t53 113t35 140.5t14 171q1 63 -8.5 126.5t-29 123.5t-48.5 115.5t-68.5 104t-88 87.5 t-107 66.5t-126 42t-144.5 12.5q-38 -1 -76.5 -4.5t-76.5 -19.5z" />
<glyph unicode="&#xf0;" horiz-adv-x="1730" d="M17 1474h871q92 0 174 -18t152 -50t129 -76.5t106 -98t83 -115t60.5 -127t37.5 -133.5t14 -134q2 -64 -9.5 -129t-34 -128t-57.5 -121.5t-81 -110t-104 -94.5t-126 -74t-147 -48t-169 -17h-894v34h52q25 0 48.5 15t42 37t29.5 49t11 53v500h-183v86l183 -1v519 q0 37 -14 65.5t-36.5 48t-49.5 29.5t-54 10h-34v29zM524 1376v-602h369v-86h-369v-438q0 -36 13 -66.5t41 -53t72 -35.5t106 -15q51 -1 101.5 5.5t97.5 22t90.5 41t81 62.5t68.5 86.5t53 113t35 140.5t14 171q1 63 -8.5 126.5t-29 123.5t-48.5 115.5t-68.5 104t-88 87.5 t-107 66.5t-126 42t-144.5 12.5q-38 -1 -76.5 -4.5t-76.5 -19.5z" />
<glyph unicode="&#xd1;" horiz-adv-x="1772" d="M28 1474h530l898 -945v711q0 44 -17.5 82t-46 65t-63.5 42.5t-71 15.5h-24v29h507v-29h-17q-34 0 -65 -16t-54.5 -43.5t-37.5 -63.5t-14 -76v-1262h-39l-1070 1131v-871q0 -12 2.5 -28t8 -33t13.5 -35t19.5 -34t25.5 -31t31.5 -26t37.5 -17t44 -6h22v-34h-523v34h29 q32 0 66 15t62 40.5t46.5 59.5t18.5 73l-2 995l-73 71q-35 34 -72 64t-78.5 54t-93.5 39v29zM717 1878q27 2 53 -1.5t51 -9t50 -13.5l51 -17l51 -17l52.5 -15.5t54.5 -12t58 -6.5q16 -1 32 5.5t29 18.5t22 29t13 39h58q-4 -66 -23 -120t-49 -91t-71 -56.5t-91 -17.5 q-28 1 -56.5 5.5t-58 11l-59.5 13.5l-59 15l-57 16q-28 8 -52 14t-46 10.5t-38 5.5q-17 1 -34.5 -6.5t-32 -20.5t-24 -30t-12.5 -34h-51q6 76 29 129.5t56 87.5t73.5 50t80.5 18z" />
<glyph unicode="&#xf1;" horiz-adv-x="1772" d="M28 1474h530l898 -945v711q0 44 -17.5 82t-46 65t-63.5 42.5t-71 15.5h-24v29h507v-29h-17q-34 0 -65 -16t-54.5 -43.5t-37.5 -63.5t-14 -76v-1262h-39l-1070 1131v-871q0 -12 2.5 -28t8 -33t13.5 -35t19.5 -34t25.5 -31t31.5 -26t37.5 -17t44 -6h22v-34h-523v34h29 q32 0 66 15t62 40.5t46.5 59.5t18.5 73l-2 995l-73 71q-35 34 -72 64t-78.5 54t-93.5 39v29zM717 1878q27 2 53 -1.5t51 -9t50 -13.5l51 -17l51 -17l52.5 -15.5t54.5 -12t58 -6.5q16 -1 32 5.5t29 18.5t22 29t13 39h58q-4 -66 -23 -120t-49 -91t-71 -56.5t-91 -17.5 q-28 1 -56.5 5.5t-58 11l-59.5 13.5l-59 15l-57 16q-28 8 -52 14t-46 10.5t-38 5.5q-17 1 -34.5 -6.5t-32 -20.5t-24 -30t-12.5 -34h-51q6 76 29 129.5t56 87.5t73.5 50t80.5 18z" />
<glyph unicode="&#xd2;" d="M547 1974h403l228 -393h-46zM836 1490q100 0 186.5 -17.5t159.5 -50t132.5 -77t106.5 -98.5t81.5 -115.5t57 -127.5t33.5 -134.5t11 -135.5q0 -68 -11 -136t-34 -134t-57.5 -127t-82 -115t-107.5 -98.5t-133 -76t-160 -48.5t-189 -15q-96 1 -179 18.5t-154.5 50 t-130.5 77t-106 98t-82.5 114t-58.5 125.5t-34 132.5t-11 134.5t11 135.5t34 134t57 127t81 115.5t106 99t131 77.5t157.5 50t184.5 17.5zM836 1411q-65 0 -117.5 -17.5t-93.5 -48.5t-72.5 -73t-54 -91t-37.5 -103.5t-24 -110t-12.5 -109.5t-3.5 -102q0 -50 2.5 -106 t10.5 -114.5t21 -116t35 -109.5t52.5 -97t73 -77.5t97 -50.5t123.5 -17q72 1 128 19.5t98 49.5t73 74t52 92t34 103.5t19.5 110t9 109.5t2.5 102q0 50 -3.5 106t-12 113t-23.5 114t-37 108.5t-53 96t-73 76.5t-95 50.5t-119 18.5z" />
<glyph unicode="&#xf2;" d="M547 1974h403l228 -393h-46zM836 1490q100 0 186.5 -17.5t159.5 -50t132.5 -77t106.5 -98.5t81.5 -115.5t57 -127.5t33.5 -134.5t11 -135.5q0 -68 -11 -136t-34 -134t-57.5 -127t-82 -115t-107.5 -98.5t-133 -76t-160 -48.5t-189 -15q-96 1 -179 18.5t-154.5 50 t-130.5 77t-106 98t-82.5 114t-58.5 125.5t-34 132.5t-11 134.5t11 135.5t34 134t57 127t81 115.5t106 99t131 77.5t157.5 50t184.5 17.5zM836 1411q-65 0 -117.5 -17.5t-93.5 -48.5t-72.5 -73t-54 -91t-37.5 -103.5t-24 -110t-12.5 -109.5t-3.5 -102q0 -50 2.5 -106 t10.5 -114.5t21 -116t35 -109.5t52.5 -97t73 -77.5t97 -50.5t123.5 -17q72 1 128 19.5t98 49.5t73 74t52 92t34 103.5t19.5 110t9 109.5t2.5 102q0 50 -3.5 106t-12 113t-23.5 114t-37 108.5t-53 96t-73 76.5t-95 50.5t-119 18.5z" />
<glyph unicode="&#xd3;" d="M1160 1974l-586 -393h-45l227 393h404zM836 1490q100 0 186.5 -17.5t159.5 -50t132.5 -77t106.5 -98.5t81.5 -115.5t57 -127.5t33.5 -134.5t11 -135.5q0 -68 -11 -136t-34 -134t-57.5 -127t-82 -115t-107.5 -98.5t-133 -76t-160 -48.5t-189 -15q-96 1 -179 18.5 t-154.5 50t-130.5 77t-106 98t-82.5 114t-58.5 125.5t-34 132.5t-11 134.5t11 135.5t34 134t57 127t81 115.5t106 99t131 77.5t157.5 50t184.5 17.5zM836 1411q-65 0 -117.5 -17.5t-93.5 -48.5t-72.5 -73t-54 -91t-37.5 -103.5t-24 -110t-12.5 -109.5t-3.5 -102 q0 -50 2.5 -106t10.5 -114.5t21 -116t35 -109.5t52.5 -97t73 -77.5t97 -50.5t123.5 -17q72 1 128 19.5t98 49.5t73 74t52 92t34 103.5t19.5 110t9 109.5t2.5 102q0 50 -3.5 106t-12 113t-23.5 114t-37 108.5t-53 96t-73 76.5t-95 50.5t-119 18.5z" />
<glyph unicode="&#xf3;" d="M1160 1974l-586 -393h-45l227 393h404zM836 1490q100 0 186.5 -17.5t159.5 -50t132.5 -77t106.5 -98.5t81.5 -115.5t57 -127.5t33.5 -134.5t11 -135.5q0 -68 -11 -136t-34 -134t-57.5 -127t-82 -115t-107.5 -98.5t-133 -76t-160 -48.5t-189 -15q-96 1 -179 18.5 t-154.5 50t-130.5 77t-106 98t-82.5 114t-58.5 125.5t-34 132.5t-11 134.5t11 135.5t34 134t57 127t81 115.5t106 99t131 77.5t157.5 50t184.5 17.5zM836 1411q-65 0 -117.5 -17.5t-93.5 -48.5t-72.5 -73t-54 -91t-37.5 -103.5t-24 -110t-12.5 -109.5t-3.5 -102 q0 -50 2.5 -106t10.5 -114.5t21 -116t35 -109.5t52.5 -97t73 -77.5t97 -50.5t123.5 -17q72 1 128 19.5t98 49.5t73 74t52 92t34 103.5t19.5 110t9 109.5t2.5 102q0 50 -3.5 106t-12 113t-23.5 114t-37 108.5t-53 96t-73 76.5t-95 50.5t-119 18.5z" />
<glyph unicode="&#xd4;" d="M984 1986l228 -399h-52l-324 251l-324 -245h-57l256 393h273zM836 1490q100 0 186.5 -17.5t159.5 -50t132.5 -77t106.5 -98.5t81.5 -115.5t57 -127.5t33.5 -134.5t11 -135.5q0 -68 -11 -136t-34 -134t-57.5 -127t-82 -115t-107.5 -98.5t-133 -76t-160 -48.5t-189 -15 q-96 1 -179 18.5t-154.5 50t-130.5 77t-106 98t-82.5 114t-58.5 125.5t-34 132.5t-11 134.5t11 135.5t34 134t57 127t81 115.5t106 99t131 77.5t157.5 50t184.5 17.5zM836 1411q-65 0 -117.5 -17.5t-93.5 -48.5t-72.5 -73t-54 -91t-37.5 -103.5t-24 -110t-12.5 -109.5 t-3.5 -102q0 -50 2.5 -106t10.5 -114.5t21 -116t35 -109.5t52.5 -97t73 -77.5t97 -50.5t123.5 -17q72 1 128 19.5t98 49.5t73 74t52 92t34 103.5t19.5 110t9 109.5t2.5 102q0 50 -3.5 106t-12 113t-23.5 114t-37 108.5t-53 96t-73 76.5t-95 50.5t-119 18.5z" />
<glyph unicode="&#xf4;" d="M984 1986l228 -399h-52l-324 251l-324 -245h-57l256 393h273zM836 1490q100 0 186.5 -17.5t159.5 -50t132.5 -77t106.5 -98.5t81.5 -115.5t57 -127.5t33.5 -134.5t11 -135.5q0 -68 -11 -136t-34 -134t-57.5 -127t-82 -115t-107.5 -98.5t-133 -76t-160 -48.5t-189 -15 q-96 1 -179 18.5t-154.5 50t-130.5 77t-106 98t-82.5 114t-58.5 125.5t-34 132.5t-11 134.5t11 135.5t34 134t57 127t81 115.5t106 99t131 77.5t157.5 50t184.5 17.5zM836 1411q-65 0 -117.5 -17.5t-93.5 -48.5t-72.5 -73t-54 -91t-37.5 -103.5t-24 -110t-12.5 -109.5 t-3.5 -102q0 -50 2.5 -106t10.5 -114.5t21 -116t35 -109.5t52.5 -97t73 -77.5t97 -50.5t123.5 -17q72 1 128 19.5t98 49.5t73 74t52 92t34 103.5t19.5 110t9 109.5t2.5 102q0 50 -3.5 106t-12 113t-23.5 114t-37 108.5t-53 96t-73 76.5t-95 50.5t-119 18.5z" />
<glyph unicode="&#xd5;" d="M666 1878q26 2 52 -1.5t51.5 -9t50.5 -13.5l50 -17l51 -17l52.5 -15.5t54.5 -12t58 -6.5q17 -1 32.5 5.5t28.5 18.5t23 29t14 39h56q-4 -66 -22.5 -120t-49 -91t-71.5 -56.5t-90 -17.5q-27 1 -56 5.5t-59 11l-60 13.5t-58 15l-57 16q-27 8 -52 14t-46 10.5t-39 5.5 q-17 1 -34 -6.5t-31.5 -20.5t-24.5 -30t-12 -34h-52q6 76 29.5 129.5t56.5 87.5t73.5 50t80.5 18zM836 1490q100 0 186.5 -17.5t159.5 -50t132.5 -77t106.5 -98.5t81.5 -115.5t57 -127.5t33.5 -134.5t11 -135.5q0 -68 -11 -136t-34 -134t-57.5 -127t-82 -115t-107.5 -98.5 t-133 -76t-160 -48.5t-189 -15q-96 1 -179 18.5t-154.5 50t-130.5 77t-106 98t-82.5 114t-58.5 125.5t-34 132.5t-11 134.5t11 135.5t34 134t57 127t81 115.5t106 99t131 77.5t157.5 50t184.5 17.5zM836 1411q-65 0 -117.5 -17.5t-93.5 -48.5t-72.5 -73t-54 -91 t-37.5 -103.5t-24 -110t-12.5 -109.5t-3.5 -102q0 -50 2.5 -106t10.5 -114.5t21 -116t35 -109.5t52.5 -97t73 -77.5t97 -50.5t123.5 -17q72 1 128 19.5t98 49.5t73 74t52 92t34 103.5t19.5 110t9 109.5t2.5 102q0 50 -3.5 106t-12 113t-23.5 114t-37 108.5t-53 96t-73 76.5 t-95 50.5t-119 18.5z" />
<glyph unicode="&#xd6;" d="M836 1490q100 0 186.5 -17.5t159.5 -50t132.5 -77t106.5 -98.5t81.5 -115.5t57 -127.5t33.5 -134.5t11 -135.5q0 -68 -11 -136t-34 -134t-57.5 -127t-82 -115t-107.5 -98.5t-133 -76t-160 -48.5t-189 -15q-96 1 -179 18.5t-154.5 50t-130.5 77t-106 98t-82.5 114 t-58.5 125.5t-34 132.5t-11 134.5t11 135.5t34 134t57 127t81 115.5t106 99t131 77.5t157.5 50t184.5 17.5zM836 1411q-65 0 -117.5 -17.5t-93.5 -48.5t-72.5 -73t-54 -91t-37.5 -103.5t-24 -110t-12.5 -109.5t-3.5 -102q0 -50 2.5 -106t10.5 -114.5t21 -116t35 -109.5 t52.5 -97t73 -77.5t97 -50.5t123.5 -17q72 1 128 19.5t98 49.5t73 74t52 92t34 103.5t19.5 110t9 109.5t2.5 102q0 50 -3.5 106t-12 113t-23.5 114t-37 108.5t-53 96t-73 76.5t-95 50.5t-119 18.5zM605 1584q-27 0 -51 10.5t-42 28t-28 41.5t-10 52q0 27 10 50.5t28 41.5 t42 28.5t51 10.5t51 -10.5t42 -28.5t28 -42t10 -50q0 -27 -10 -51.5t-28 -42t-42 -28t-51 -10.5zM1080 1584q-27 0 -50.5 10.5t-41.5 28t-28.5 41.5t-10.5 52q0 27 10.5 50.5t28.5 41.5t42 28.5t50 10.5q27 0 51.5 -10.5t42 -28.5t28 -42t10.5 -50q0 -27 -10.5 -51.5 t-28 -42t-42 -28t-51.5 -10.5z" />
<glyph unicode="&#xf6;" d="M836 1490q100 0 186.5 -17.5t159.5 -50t132.5 -77t106.5 -98.5t81.5 -115.5t57 -127.5t33.5 -134.5t11 -135.5q0 -68 -11 -136t-34 -134t-57.5 -127t-82 -115t-107.5 -98.5t-133 -76t-160 -48.5t-189 -15q-96 1 -179 18.5t-154.5 50t-130.5 77t-106 98t-82.5 114 t-58.5 125.5t-34 132.5t-11 134.5t11 135.5t34 134t57 127t81 115.5t106 99t131 77.5t157.5 50t184.5 17.5zM836 1411q-65 0 -117.5 -17.5t-93.5 -48.5t-72.5 -73t-54 -91t-37.5 -103.5t-24 -110t-12.5 -109.5t-3.5 -102q0 -50 2.5 -106t10.5 -114.5t21 -116t35 -109.5 t52.5 -97t73 -77.5t97 -50.5t123.5 -17q72 1 128 19.5t98 49.5t73 74t52 92t34 103.5t19.5 110t9 109.5t2.5 102q0 50 -3.5 106t-12 113t-23.5 114t-37 108.5t-53 96t-73 76.5t-95 50.5t-119 18.5zM605 1584q-27 0 -51 10.5t-42 28t-28 41.5t-10 52q0 27 10 50.5t28 41.5 t42 28.5t51 10.5t51 -10.5t42 -28.5t28 -42t10 -50q0 -27 -10 -51.5t-28 -42t-42 -28t-51 -10.5zM1080 1584q-27 0 -50.5 10.5t-41.5 28t-28.5 41.5t-10.5 52q0 27 10.5 50.5t28.5 41.5t42 28.5t50 10.5q27 0 51.5 -10.5t42 -28.5t28 -42t10.5 -50q0 -27 -10.5 -51.5 t-28 -42t-42 -28t-51.5 -10.5z" />
<glyph unicode="&#xd7;" horiz-adv-x="1167" d="M244 1115l336 -341l342 340l94 -93l-342 -341l338 -339l-94 -93l-338 338l-332 -332l-92 90l336 336l-342 341z" />
<glyph unicode="&#xd8;" d="M836 1411q-65 0 -117.5 -17.5t-93.5 -48.5t-72.5 -73t-54 -91t-37.5 -103.5t-24 -110t-12.5 -109.5t-3.5 -102q0 -42 1.5 -87.5t6.5 -93.5t14 -97.5t23 -99.5l704 804q-23 50 -53.5 91.5t-71.5 72t-93 48t-116 17.5zM1206 1104l-706 -808q22 -47 53 -89t72.5 -73.5 t94 -48.5t116.5 -17q72 1 128 19.5t98 49.5t73 74t52 92t34 103.5t19.5 110t9 109.5t2.5 102q0 40 -2.5 87t-7.5 96t-14 99t-22 94zM836 1490q76 0 144 -10t128 -29t112 -46t96 -61l129 146l63 -56l-128 -144q58 -56 100 -121.5t70 -137.5t41 -147.5t13 -149.5 q0 -68 -11 -136t-34 -134t-57.5 -127t-82 -115t-107.5 -98t-133 -76t-160 -49t-189 -15q-72 0 -137.5 11t-124 30t-110.5 46t-96 61l-134 -148l-63 56l134 146q-57 55 -99 120.5t-70 136t-42 144.5t-14 147q0 67 11 135t34 134t57 127.5t81 115.5t106 99t131 77.5t157.5 50 t184.5 17.5z" />
<glyph unicode="&#xf8;" d="M836 1411q-65 0 -117.5 -17.5t-93.5 -48.5t-72.5 -73t-54 -91t-37.5 -103.5t-24 -110t-12.5 -109.5t-3.5 -102q0 -42 1.5 -87.5t6.5 -93.5t14 -97.5t23 -99.5l704 804q-23 50 -53.5 91.5t-71.5 72t-93 48t-116 17.5zM1206 1104l-706 -808q22 -47 53 -89t72.5 -73.5 t94 -48.5t116.5 -17q72 1 128 19.5t98 49.5t73 74t52 92t34 103.5t19.5 110t9 109.5t2.5 102q0 40 -2.5 87t-7.5 96t-14 99t-22 94zM836 1490q76 0 144 -10t128 -29t112 -46t96 -61l129 146l63 -56l-128 -144q58 -56 100 -121.5t70 -137.5t41 -147.5t13 -149.5 q0 -68 -11 -136t-34 -134t-57.5 -127t-82 -115t-107.5 -98t-133 -76t-160 -49t-189 -15q-72 0 -137.5 11t-124 30t-110.5 46t-96 61l-134 -148l-63 56l134 146q-57 55 -99 120.5t-70 136t-42 144.5t-14 147q0 67 11 135t34 134t57 127.5t81 115.5t106 99t131 77.5t157.5 50 t184.5 17.5z" />
<glyph unicode="&#xd9;" horiz-adv-x="1750" d="M6 1474h688v-29h-22q-32 0 -61 -9.5t-51 -28.5t-35 -46.5t-13 -63.5v-763q0 -44 8 -84t22 -74t34 -63t44 -52t52 -40.5t58 -29t61 -16.5t63 -5q32 1 64.5 7.5t63.5 18.5t59.5 30t53.5 42t45.5 53.5t35 66t22.5 78.5t8 92v739q0 40 -14 68.5t-36 46t-50 25.5t-54 8h-28v29 h688v-29h-22q-27 0 -54.5 -7.5t-49.5 -24.5t-36 -47t-14 -74v-1110q0 -42 14 -72.5t38.5 -50t58 -28.5t71.5 -9v-22h-512v278q-42 -78 -98 -135.5t-120 -94t-134.5 -52.5t-142.5 -12q-42 2 -87.5 9t-90.5 20.5t-88 35.5t-81 53.5t-70.5 73.5t-56 96.5t-36.5 122.5t-13 151 v728q0 49 -14 82t-37 52.5t-51 28t-58 8.5h-22v29zM524 1974h404l227 -393h-45z" />
<glyph unicode="&#xf9;" horiz-adv-x="1750" d="M6 1474h688v-29h-22q-32 0 -61 -9.5t-51 -28.5t-35 -46.5t-13 -63.5v-763q0 -44 8 -84t22 -74t34 -63t44 -52t52 -40.5t58 -29t61 -16.5t63 -5q32 1 64.5 7.5t63.5 18.5t59.5 30t53.5 42t45.5 53.5t35 66t22.5 78.5t8 92v739q0 40 -14 68.5t-36 46t-50 25.5t-54 8h-28v29 h688v-29h-22q-27 0 -54.5 -7.5t-49.5 -24.5t-36 -47t-14 -74v-1110q0 -42 14 -72.5t38.5 -50t58 -28.5t71.5 -9v-22h-512v278q-42 -78 -98 -135.5t-120 -94t-134.5 -52.5t-142.5 -12q-42 2 -87.5 9t-90.5 20.5t-88 35.5t-81 53.5t-70.5 73.5t-56 96.5t-36.5 122.5t-13 151 v728q0 49 -14 82t-37 52.5t-51 28t-58 8.5h-22v29zM524 1974h404l227 -393h-45z" />
<glyph unicode="&#xda;" horiz-adv-x="1750" d="M6 1474h688v-29h-22q-32 0 -61 -9.5t-51 -28.5t-35 -46.5t-13 -63.5v-763q0 -44 8 -84t22 -74t34 -63t44 -52t52 -40.5t58 -29t61 -16.5t63 -5q32 1 64.5 7.5t63.5 18.5t59.5 30t53.5 42t45.5 53.5t35 66t22.5 78.5t8 92v739q0 40 -14 68.5t-36 46t-50 25.5t-54 8h-28v29 h688v-29h-22q-27 0 -54.5 -7.5t-49.5 -24.5t-36 -47t-14 -74v-1110q0 -42 14 -72.5t38.5 -50t58 -28.5t71.5 -9v-22h-512v278q-42 -78 -98 -135.5t-120 -94t-134.5 -52.5t-142.5 -12q-42 2 -87.5 9t-90.5 20.5t-88 35.5t-81 53.5t-70.5 73.5t-56 96.5t-36.5 122.5t-13 151 v728q0 49 -14 82t-37 52.5t-51 28t-58 8.5h-22v29zM1263 1974l-586 -393h-45l227 393h404z" />
<glyph unicode="&#xfa;" horiz-adv-x="1750" d="M6 1474h688v-29h-22q-32 0 -61 -9.5t-51 -28.5t-35 -46.5t-13 -63.5v-763q0 -44 8 -84t22 -74t34 -63t44 -52t52 -40.5t58 -29t61 -16.5t63 -5q32 1 64.5 7.5t63.5 18.5t59.5 30t53.5 42t45.5 53.5t35 66t22.5 78.5t8 92v739q0 40 -14 68.5t-36 46t-50 25.5t-54 8h-28v29 h688v-29h-22q-27 0 -54.5 -7.5t-49.5 -24.5t-36 -47t-14 -74v-1110q0 -42 14 -72.5t38.5 -50t58 -28.5t71.5 -9v-22h-512v278q-42 -78 -98 -135.5t-120 -94t-134.5 -52.5t-142.5 -12q-42 2 -87.5 9t-90.5 20.5t-88 35.5t-81 53.5t-70.5 73.5t-56 96.5t-36.5 122.5t-13 151 v728q0 49 -14 82t-37 52.5t-51 28t-58 8.5h-22v29zM1263 1974l-586 -393h-45l227 393h404z" />
<glyph unicode="&#xdb;" horiz-adv-x="1750" d="M6 1474h688v-29h-22q-32 0 -61 -9.5t-51 -28.5t-35 -46.5t-13 -63.5v-763q0 -44 8 -84t22 -74t34 -63t44 -52t52 -40.5t58 -29t61 -16.5t63 -5q32 1 64.5 7.5t63.5 18.5t59.5 30t53.5 42t45.5 53.5t35 66t22.5 78.5t8 92v739q0 40 -14 68.5t-36 46t-50 25.5t-54 8h-28v29 h688v-29h-22q-27 0 -54.5 -7.5t-49.5 -24.5t-36 -47t-14 -74v-1110q0 -42 14 -72.5t38.5 -50t58 -28.5t71.5 -9v-22h-512v278q-42 -78 -98 -135.5t-120 -94t-134.5 -52.5t-142.5 -12q-42 2 -87.5 9t-90.5 20.5t-88 35.5t-81 53.5t-70.5 73.5t-56 96.5t-36.5 122.5t-13 151 v728q0 49 -14 82t-37 52.5t-51 28t-58 8.5h-22v29zM1018 1986l228 -399h-52l-324 251l-324 -245h-57l256 393h273z" />
<glyph unicode="&#xfb;" horiz-adv-x="1750" d="M6 1474h688v-29h-22q-32 0 -61 -9.5t-51 -28.5t-35 -46.5t-13 -63.5v-763q0 -44 8 -84t22 -74t34 -63t44 -52t52 -40.5t58 -29t61 -16.5t63 -5q32 1 64.5 7.5t63.5 18.5t59.5 30t53.5 42t45.5 53.5t35 66t22.5 78.5t8 92v739q0 40 -14 68.5t-36 46t-50 25.5t-54 8h-28v29 h688v-29h-22q-27 0 -54.5 -7.5t-49.5 -24.5t-36 -47t-14 -74v-1110q0 -42 14 -72.5t38.5 -50t58 -28.5t71.5 -9v-22h-512v278q-42 -78 -98 -135.5t-120 -94t-134.5 -52.5t-142.5 -12q-42 2 -87.5 9t-90.5 20.5t-88 35.5t-81 53.5t-70.5 73.5t-56 96.5t-36.5 122.5t-13 151 v728q0 49 -14 82t-37 52.5t-51 28t-58 8.5h-22v29zM1018 1986l228 -399h-52l-324 251l-324 -245h-57l256 393h273z" />
<glyph unicode="&#xdc;" horiz-adv-x="1750" d="M6 1474h688v-29h-22q-32 0 -61 -9.5t-51 -28.5t-35 -46.5t-13 -63.5v-763q0 -44 8 -84t22 -74t34 -63t44 -52t52 -40.5t58 -29t61 -16.5t63 -5q32 1 64.5 7.5t63.5 18.5t59.5 30t53.5 42t45.5 53.5t35 66t22.5 78.5t8 92v739q0 40 -14 68.5t-36 46t-50 25.5t-54 8h-28v29 h688v-29h-22q-27 0 -54.5 -7.5t-49.5 -24.5t-36 -47t-14 -74v-1110q0 -42 14 -72.5t38.5 -50t58 -28.5t71.5 -9v-22h-512v278q-42 -78 -98 -135.5t-120 -94t-134.5 -52.5t-142.5 -12q-42 2 -87.5 9t-90.5 20.5t-88 35.5t-81 53.5t-70.5 73.5t-56 96.5t-36.5 122.5t-13 151 v728q0 49 -14 82t-37 52.5t-51 28t-58 8.5h-22v29zM639 1584q-27 0 -51 10.5t-42 28t-28 41.5t-10 52q0 27 10 50.5t28 41.5t42 28.5t51 10.5t51 -10.5t42 -28.5t28 -42t10 -50q0 -27 -10 -51.5t-28 -42t-42 -28t-51 -10.5zM1114 1584q-27 0 -50.5 10.5t-41.5 28t-28.5 41.5 t-10.5 52q0 27 10.5 50.5t28.5 41.5t42 28.5t50 10.5q27 0 51.5 -10.5t42 -28.5t28 -42t10.5 -50q0 -27 -10.5 -51.5t-28 -42t-42 -28t-51.5 -10.5z" />
<glyph unicode="&#xfc;" horiz-adv-x="1750" d="M6 1474h688v-29h-22q-32 0 -61 -9.5t-51 -28.5t-35 -46.5t-13 -63.5v-763q0 -44 8 -84t22 -74t34 -63t44 -52t52 -40.5t58 -29t61 -16.5t63 -5q32 1 64.5 7.5t63.5 18.5t59.5 30t53.5 42t45.5 53.5t35 66t22.5 78.5t8 92v739q0 40 -14 68.5t-36 46t-50 25.5t-54 8h-28v29 h688v-29h-22q-27 0 -54.5 -7.5t-49.5 -24.5t-36 -47t-14 -74v-1110q0 -42 14 -72.5t38.5 -50t58 -28.5t71.5 -9v-22h-512v278q-42 -78 -98 -135.5t-120 -94t-134.5 -52.5t-142.5 -12q-42 2 -87.5 9t-90.5 20.5t-88 35.5t-81 53.5t-70.5 73.5t-56 96.5t-36.5 122.5t-13 151 v728q0 49 -14 82t-37 52.5t-51 28t-58 8.5h-22v29zM639 1584q-27 0 -51 10.5t-42 28t-28 41.5t-10 52q0 27 10 50.5t28 41.5t42 28.5t51 10.5t51 -10.5t42 -28.5t28 -42t10 -50q0 -27 -10 -51.5t-28 -42t-42 -28t-51 -10.5zM1114 1584q-27 0 -50.5 10.5t-41.5 28t-28.5 41.5 t-10.5 52q0 27 10.5 50.5t28.5 41.5t42 28.5t50 10.5q27 0 51.5 -10.5t42 -28.5t28 -42t10.5 -50q0 -27 -10.5 -51.5t-28 -42t-42 -28t-51.5 -10.5z" />
<glyph unicode="&#xdd;" d="M746 1474v-29h-46q-14 0 -29 -5t-27 -14.5t-19 -23.5t-5 -31q2 -16 8 -32.5t15 -30.5l307 -438l228 336q11 16 20.5 36t16 40t10.5 38.5t4 33.5q0 20 -9.5 37t-26.5 29t-41 18.5t-54 6.5v29h552v-29q-47 -2 -92.5 -16.5t-85.5 -36.5t-72 -49t-52 -57l-336 -490v-614 q0 -27 10 -54.5t29 -49.5t48 -36t67 -14h28v-27h-688v27h28q27 0 53.5 8t47.5 26t34 48t13 72v535l-448 597q-19 25 -39.5 48.5t-44.5 41.5t-55 29.5t-73 11.5v29h724zM1229 1974l-586 -393h-45l227 393h404z" />
<glyph unicode="&#xfd;" d="M746 1474v-29h-46q-14 0 -29 -5t-27 -14.5t-19 -23.5t-5 -31q2 -16 8 -32.5t15 -30.5l307 -438l228 336q11 16 20.5 36t16 40t10.5 38.5t4 33.5q0 20 -9.5 37t-26.5 29t-41 18.5t-54 6.5v29h552v-29q-47 -2 -92.5 -16.5t-85.5 -36.5t-72 -49t-52 -57l-336 -490v-614 q0 -27 10 -54.5t29 -49.5t48 -36t67 -14h28v-27h-688v27h28q27 0 53.5 8t47.5 26t34 48t13 72v535l-448 597q-19 25 -39.5 48.5t-44.5 41.5t-55 29.5t-73 11.5v29h724zM1229 1974l-586 -393h-45l227 393h404z" />
<glyph unicode="&#xde;" horiz-adv-x="1300" d="M17 1474h689v-29h-18q-32 0 -61.5 -9.5t-52.5 -27t-36.5 -43t-13.5 -57.5v-164h318q51 0 95.5 -10t82.5 -27t69.5 -40.5t57 -52t43.5 -61.5t31 -68.5t19 -72t6 -72.5q0 -37 -7.5 -75t-23 -74.5t-39 -70t-56 -63t-74.5 -54.5t-93 -42t-113 -27t-134 -10q-46 0 -91 7 t-91 11v-137q0 -9 0.5 -21t3 -26t7.5 -29t14 -29.5t21 -27t30 -22.5t41 -16t53 -6h23l1 -28h-701v28h23q32 0 60 9t49 27t33 43.5t12 57.5v1127q0 42 -15 71.5t-38 47.5t-51 26t-56 8h-17v29zM524 1052v-631q26 -8 54 -8.5t54 -2.5q36 -2 68 5t59.5 22t51 36.5t42 47.5 t33 55t23.5 59.5t14 61.5t5 59t-5 56t-15 55t-24 52t-33.5 47.5t-43.5 41t-52.5 31.5t-62.5 19.5t-72 5.5q-24 0 -48 -4.5t-48 -7.5z" />
<glyph unicode="&#xfe;" horiz-adv-x="1300" d="M17 1474h689v-29h-18q-32 0 -61.5 -9.5t-52.5 -27t-36.5 -43t-13.5 -57.5v-164h318q51 0 95.5 -10t82.5 -27t69.5 -40.5t57 -52t43.5 -61.5t31 -68.5t19 -72t6 -72.5q0 -37 -7.5 -75t-23 -74.5t-39 -70t-56 -63t-74.5 -54.5t-93 -42t-113 -27t-134 -10q-46 0 -91 7 t-91 11v-137q0 -9 0.5 -21t3 -26t7.5 -29t14 -29.5t21 -27t30 -22.5t41 -16t53 -6h23l1 -28h-701v28h23q32 0 60 9t49 27t33 43.5t12 57.5v1127q0 42 -15 71.5t-38 47.5t-51 26t-56 8h-17v29zM524 1052v-631q26 -8 54 -8.5t54 -2.5q36 -2 68 5t59.5 22t51 36.5t42 47.5 t33 55t23.5 59.5t14 61.5t5 59t-5 56t-15 55t-24 52t-33.5 47.5t-43.5 41t-52.5 31.5t-62.5 19.5t-72 5.5q-24 0 -48 -4.5t-48 -7.5z" />
<glyph unicode="&#xf5;" horiz-adv-x="1300" d="M17 1474h689v-29h-18q-32 0 -61.5 -9.5t-52.5 -27t-36.5 -43t-13.5 -57.5v-164h318q51 0 95.5 -10t82.5 -27t69.5 -40.5t57 -52t43.5 -61.5t31 -68.5t19 -72t6 -72.5q0 -37 -7.5 -75t-23 -74.5t-39 -70t-56 -63t-74.5 -54.5t-93 -42t-113 -27t-134 -10q-46 0 -91 7 t-91 11v-137q0 -9 0.5 -21t3 -26t7.5 -29t14 -29.5t21 -27t30 -22.5t41 -16t53 -6h23l1 -28h-701v28h23q32 0 60 9t49 27t33 43.5t12 57.5v1127q0 42 -15 71.5t-38 47.5t-51 26t-56 8h-17v29zM524 1052v-631q26 -8 54 -8.5t54 -2.5q36 -2 68 5t59.5 22t51 36.5t42 47.5 t33 55t23.5 59.5t14 61.5t5 59t-5 56t-15 55t-24 52t-33.5 47.5t-43.5 41t-52.5 31.5t-62.5 19.5t-72 5.5q-24 0 -48 -4.5t-48 -7.5z" />
<glyph unicode="&#xdf;" horiz-adv-x="1342" d="M-5 0v28h39q22 0 45 9t42 24t31.5 35t12.5 40v984q0 50 14.5 92.5t40.5 77t61 61.5t76 48t86 36t91 25t91 14t86 5q40 0 84.5 -3t89.5 -11t88.5 -21.5t83 -33t73.5 -46t58 -61.5t38 -79t14 -98q0 -29 -8 -53.5t-22.5 -46.5t-34 -40t-42 -32.5t-47 -26t-48.5 -19.5 t-46 -13t-42 -7q102 -20 174.5 -65t117.5 -107t63.5 -134t14.5 -144q-2 -38 -9 -78t-19 -78.5t-30 -75t-43 -68.5t-57 -59t-72 -47t-89 -31t-108 -12q-18 0 -38.5 1.5t-41 5.5t-41 10.5t-40 16t-36 21t-30.5 26.5t-23 33t-11 39q-4 22 4 42.5t25.5 37t43 27.5t57.5 13 q20 2 41 -4.5t38 -19t30 -29.5t17 -39q2 -10 0 -19t-5 -18t-4 -18t3 -19t11 -18.5t16.5 -15t20 -10t20.5 -1.5q12 2 24.5 9.5t22.5 17.5t15.5 22t5.5 25q-2 33 -15 64t-29 61t-28.5 61t-12.5 65v267q0 36 -7.5 71.5t-31 62.5t-67 43t-116.5 16v69q32 -6 61.5 2.5t52.5 27.5 t37 44t14 51v176q0 64 -15 101.5t-40 57t-57 26.5t-64 9q-31 2 -62 -7.5t-55.5 -30.5t-40.5 -54.5t-16 -81.5v-1226h-531z" />
<glyph unicode="&#xf7;" horiz-adv-x="1125" d="M546 712q-23 0 -43.5 9t-36.5 24t-25 36t-9 44q0 24 9 44.5t25 35.5t36.5 24t43.5 9q24 0 44.5 -9t36 -24t24.5 -36t9 -44q0 -24 -9 -44.5t-24.5 -35.5t-36 -24t-44.5 -9zM546 148q-23 0 -43.5 9t-36.5 24.5t-25 36t-9 44.5t9 44t25 35.5t36.5 24.5t43.5 9q24 0 44.5 -9 t36 -24.5t24.5 -35.5t9 -44t-9 -44.5t-24.5 -36t-36 -24.5t-44.5 -9zM17 598h1075v-114h-1075v114z" />
<glyph unicode="&#xff;" horiz-adv-x="1687" d="M746 1474v-29h-46q-14 0 -29 -5t-27 -14.5t-19 -23.5t-5 -31q2 -16 8 -32.5t15 -30.5l307 -438l228 336q11 16 20.5 36t16 40t10.5 38.5t4 33.5q0 20 -9.5 37t-26.5 29t-41 18.5t-54 6.5v29h552v-29q-47 -2 -92.5 -16.5t-85.5 -36.5t-72 -49t-52 -57l-336 -490v-614 q0 -27 10 -54.5t29 -49.5t48 -36t67 -14h28v-27h-688v27h28q27 0 53.5 8t47.5 26t34 48t13 72v535l-448 597q-19 25 -39.5 48.5t-44.5 41.5t-55 29.5t-73 11.5v29h724zM604 1584q-28 0 -52 10.5t-42 28.5t-28 42t-10 51q0 28 10 52t28 42t42 28t52 10q27 0 51.5 -10t42 -28 t28 -42t10.5 -52q0 -27 -10.5 -51t-28 -42t-42 -28.5t-51.5 -10.5zM1078 1584q-28 0 -51.5 10.5t-41.5 28.5t-28.5 42t-10.5 51q0 28 10.5 52t28.5 42t41.5 28t51.5 10q27 0 51.5 -10t42.5 -28t28 -42t10 -52q0 -27 -10 -51t-28 -42t-42.5 -28.5t-51.5 -10.5z" />
<glyph unicode="&#x178;" horiz-adv-x="1687" d="M746 1474v-29h-46q-14 0 -29 -5t-27 -14.5t-19 -23.5t-5 -31q2 -16 8 -32.5t15 -30.5l307 -438l228 336q11 16 20.5 36t16 40t10.5 38.5t4 33.5q0 20 -9.5 37t-26.5 29t-41 18.5t-54 6.5v29h552v-29q-47 -2 -92.5 -16.5t-85.5 -36.5t-72 -49t-52 -57l-336 -490v-614 q0 -27 10 -54.5t29 -49.5t48 -36t67 -14h28v-27h-688v27h28q27 0 53.5 8t47.5 26t34 48t13 72v535l-448 597q-19 25 -39.5 48.5t-44.5 41.5t-55 29.5t-73 11.5v29h724zM604 1584q-28 0 -52 10.5t-42 28.5t-28 42t-10 51q0 28 10 52t28 42t42 28t52 10q27 0 51.5 -10t42 -28 t28 -42t10.5 -52q0 -27 -10.5 -51t-28 -42t-42 -28.5t-51.5 -10.5zM1078 1584q-28 0 -51.5 10.5t-41.5 28.5t-28.5 42t-10.5 51q0 28 10.5 52t28.5 42t41.5 28t51.5 10q27 0 51.5 -10t42.5 -28t28 -42t10 -52q0 -27 -10 -51t-28 -42t-42.5 -28.5t-51.5 -10.5z" />
<glyph unicode="&#x152;" horiz-adv-x="2110" d="M899 1474h1103l12 -336h-28q-4 47 -18.5 92.5t-39 82t-60.5 59t-82 22.5h-330v-626h296q30 0 57 16t47 42.5t33 62t17 73.5h22v-433h-28q-2 38 -16.5 68t-37 50.5t-50 30.5t-55.5 10h-285v-454q0 -28 15 -56t38 -49.5t51 -35t56 -13.5h164q48 0 91.5 20t79 56t59.5 86 t32 110h28l-22 -357h-1098q-18 -3 -36.5 -8t-37.5 -3q-104 6 -193 27t-164 54t-135.5 77.5t-108 97t-82.5 112.5t-58.5 124.5t-35 132t-13.5 137.5q-2 86 13.5 164t46 146t73.5 127t96 106.5t113 84t124 60.5t130 36t132 9q22 -1 42.5 -1t42.5 -4zM910 1400 q-50 -1 -98 -13.5t-92 -35.5t-83.5 -56t-73 -75t-59.5 -92.5t-44 -108t-27 -122.5t-7 -135q2 -54 9 -112t21 -116.5t35.5 -115.5t51 -108.5t68.5 -95t88 -76t108 -51t131 -19.5q34 0 69 10t62.5 33.5t45 61t17.5 89.5v938q0 37 -12 73.5t-39 64.5t-69 45.5t-102 16.5z" />
<glyph unicode="&#x153;" horiz-adv-x="2110" d="M899 1474h1103l12 -336h-28q-4 47 -18.5 92.5t-39 82t-60.5 59t-82 22.5h-330v-626h296q30 0 57 16t47 42.5t33 62t17 73.5h22v-433h-28q-2 38 -16.5 68t-37 50.5t-50 30.5t-55.5 10h-285v-454q0 -28 15 -56t38 -49.5t51 -35t56 -13.5h164q48 0 91.5 20t79 56t59.5 86 t32 110h28l-22 -357h-1098q-18 -3 -36.5 -8t-37.5 -3q-104 6 -193 27t-164 54t-135.5 77.5t-108 97t-82.5 112.5t-58.5 124.5t-35 132t-13.5 137.5q-2 86 13.5 164t46 146t73.5 127t96 106.5t113 84t124 60.5t130 36t132 9q22 -1 42.5 -1t42.5 -4zM910 1400 q-50 -1 -98 -13.5t-92 -35.5t-83.5 -56t-73 -75t-59.5 -92.5t-44 -108t-27 -122.5t-7 -135q2 -54 9 -112t21 -116.5t35.5 -115.5t51 -108.5t68.5 -95t88 -76t108 -51t131 -19.5q34 0 69 10t62.5 33.5t45 61t17.5 89.5v938q0 37 -12 73.5t-39 64.5t-69 45.5t-102 16.5z" />
<glyph unicode="&#x2c6;" horiz-adv-x="682" d="M210 1980h280l227 -393h-51l-319 251l-335 -251h-51z" />
<glyph unicode="&#x2dc;" horiz-adv-x="682" d="M177 1876q27 0 54.5 -4t55 -10t55.5 -14l54 -16l54 -16q26 -8 51.5 -14t49.5 -10t46 -4q16 0 31 4.5t27.5 15t22 27t14.5 40.5h56q-6 -68 -24.5 -121.5t-48 -90.5t-70.5 -55t-93 -17q-27 0 -55.5 4.5t-56.5 10.5t-57 14l-57 16l-54 16q-27 8 -52.5 14t-48.5 10t-43 4 q-16 0 -33 -6t-31 -18t-24 -28.5t-12 -36.5h-58q4 24 10 48.5t14 48.5t19 48t25 44.5t32 38t40 30.5t48.5 20t58.5 7z" />
<glyph unicode="&#x2000;" horiz-adv-x="1004" />
<glyph unicode="&#x2001;" horiz-adv-x="2008" />
<glyph unicode="&#x2002;" horiz-adv-x="1004" />
<glyph unicode="&#x2003;" horiz-adv-x="2008" />
<glyph unicode="&#x2004;" horiz-adv-x="669" />
<glyph unicode="&#x2005;" horiz-adv-x="502" />
<glyph unicode="&#x2006;" horiz-adv-x="334" />
<glyph unicode="&#x2007;" horiz-adv-x="334" />
<glyph unicode="&#x2008;" horiz-adv-x="251" />
<glyph unicode="&#x2009;" horiz-adv-x="401" />
<glyph unicode="&#x200a;" horiz-adv-x="111" />
<glyph unicode="&#x2010;" horiz-adv-x="705" d="M74 814h552v-171h-552v171z" />
<glyph unicode="&#x2011;" horiz-adv-x="705" d="M74 814h552v-171h-552v171z" />
<glyph unicode="&#x2012;" horiz-adv-x="705" d="M74 814h552v-171h-552v171z" />
<glyph unicode="&#x2013;" horiz-adv-x="1024" d="M-10 804h1044v-130h-1044v130z" />
<glyph unicode="&#x2014;" horiz-adv-x="2048" d="M-10 804h2060v-130h-2060v130z" />
<glyph unicode="&#x2018;" horiz-adv-x="492" d="M246 905q-34 3 -66 16t-57 38t-41 62.5t-18 88.5q-2 34 6 67.5t23 65.5t36 62.5t48 57t57.5 49t64 40.5t69.5 29t72 16v-35q-20 -10 -45 -29t-50 -47t-44 -64t-26 -81q34 -4 60.5 -19.5t45.5 -37.5t30 -49t12 -53q2 -36 -13.5 -69t-41.5 -58t-58.5 -38.5t-63.5 -11.5z " />
<glyph unicode="&#x2019;" horiz-adv-x="492" d="M242 1490q34 -2 66 -15t57 -38t41 -62t18 -89q2 -34 -6 -67.5t-22.5 -66t-36 -62.5t-47.5 -56.5t-57 -49.5t-65 -40.5t-70 -29t-72 -15.5v34q20 10 46 29.5t50 47.5t44 64t26 81q-34 4 -61 19.5t-46 37.5t-29 48.5t-12 53.5q-2 36 13.5 69t41 58t58 38t63.5 11z" />
<glyph unicode="&#x201a;" horiz-adv-x="492" d="M239 318q34 0 67.5 -12.5t60.5 -38t43 -64t16 -89.5q0 -36 -9 -69t-25.5 -64t-40 -59t-50.5 -52t-57 -44t-62 -35.5t-63.5 -26t-61.5 -14.5v40q28 10 53 28t45.5 41.5t36.5 52t24 60.5q2 6 -4.5 11t-12.5 6q-40 4 -65 20.5t-39 39.5t-19.5 51t-7.5 54q-2 30 10 59t35 53 t55.5 38t70.5 14z" />
<glyph unicode="&#x201c;" horiz-adv-x="937" d="M238 905q-34 3 -66 16t-57 38t-41 62.5t-18 88.5q-2 34 6 67.5t23 65.5t36 62.5t47.5 57t57.5 49t64.5 40.5t69.5 29t72 16v-35q-19 -10 -45 -29t-50.5 -47t-44 -64t-25.5 -81q34 -4 60.5 -19.5t45.5 -37.5t29 -49t12 -53q2 -36 -13 -69t-41 -58t-58.5 -38.5t-63.5 -11.5 zM691 905q-34 3 -66 16t-57 38t-41 62.5t-18 88.5q-2 34 5.5 67.5t22.5 65.5t36 62.5t48 57t58 49t64 40.5t69 29t72 16v-35q-20 -10 -45 -29t-50 -47t-44 -64t-25 -81q34 -4 60.5 -19.5t45 -37.5t29.5 -49t13 -53q2 -36 -14 -69t-42 -58t-58 -38.5t-63 -11.5z" />
<glyph unicode="&#x201d;" horiz-adv-x="937" d="M694 1490q34 -2 66 -15t57.5 -38t41 -62t17.5 -89q2 -34 -5.5 -67.5t-22 -66t-36 -62.5t-48 -56.5t-57.5 -49.5t-64.5 -40.5t-69 -29t-71.5 -15.5v34q19 10 44.5 29.5t50 47.5t44 64t25.5 81q-34 4 -61 19.5t-45.5 37.5t-29 48.5t-12.5 53.5q-2 36 14 69t41.5 58t58 38 t62.5 11zM242 1490q34 -2 66 -15t57 -38t41 -62t18 -89q2 -34 -6 -67.5t-22.5 -66t-36 -62.5t-47.5 -56.5t-57 -49.5t-65 -40.5t-70 -29t-72 -15.5v34q20 10 46 29.5t50 47.5t44 64t26 81q-34 4 -61 19.5t-46 37.5t-29 48.5t-12 53.5q-2 36 13.5 69t41 58t58 38t63.5 11z " />
<glyph unicode="&#x201e;" horiz-adv-x="937" d="M239 318q34 0 67.5 -12.5t60.5 -38t43 -64t16 -89.5q0 -36 -9 -69t-25.5 -64t-40 -59t-50.5 -52t-57 -44t-62 -35.5t-63.5 -26t-61.5 -14.5v40q28 10 53 28t45.5 41.5t36.5 52t24 60.5q2 6 -4.5 11t-12.5 6q-40 4 -65 20.5t-39 39.5t-19.5 51t-7.5 54q-2 30 10 59t35 53 t55.5 38t70.5 14zM694 318q34 0 67.5 -12.5t60 -38t43.5 -64t17 -89.5q0 -36 -9.5 -69t-26 -64t-39.5 -59t-50 -52t-58 -44t-62 -35.5t-63 -26t-62 -14.5v40q28 10 53 28t46 41.5t36 52t25 60.5q2 6 -5 11t-13 6q-40 4 -65 20.5t-39 39.5t-19 51t-7 54q-2 30 9.5 59t34.5 53 t55.5 38t70.5 14z" />
<glyph unicode="&#x2022;" horiz-adv-x="725" d="M358 394q-58 0 -110 22t-91 61t-61 91t-22 110q0 59 22 111t61 90.5t91 61.5t110 23q59 0 111 -23t90.5 -61.5t61.5 -90t23 -111.5q0 -59 -23 -110.5t-61.5 -90.5t-90.5 -61t-111 -22z" />
<glyph unicode="&#x2026;" horiz-adv-x="2048" d="M296 -22q-34 0 -64 13t-52.5 35t-35.5 52t-13 64t13 64t35.5 52.5t52.5 35.5t64 13t64 -13t52 -35.5t35 -52.5t13 -64t-13 -64t-35 -52t-52 -35t-64 -13zM978 -22q-34 0 -64 13t-52 35t-35 52t-13 64t13 64t35 52.5t52 35.5t64 13t64 -13t53 -35.5t36 -52.5t13 -64 t-13 -64t-36 -52t-53 -35t-64 -13zM1661 -22q-34 0 -64 13t-52.5 35t-35.5 52t-13 64t13 64t35.5 52.5t52.5 35.5t64 13t64 -13t52.5 -35.5t35.5 -52.5t13 -64t-13 -64t-35.5 -52t-52.5 -35t-64 -13z" />
<glyph unicode="&#x202f;" horiz-adv-x="401" />
<glyph unicode="&#x2039;" horiz-adv-x="470" d="M444 1229l-142 -501l136 -500h-22l-394 500l394 501h28z" />
<glyph unicode="&#x203a;" horiz-adv-x="470" d="M22 1229h29l393 -501l-393 -500h-23l137 500z" />
<glyph unicode="&#x205f;" horiz-adv-x="502" />
<glyph unicode="&#x2122;" horiz-adv-x="2155" d="M1274 1473l275 -526l260 526h312v-15q-24 -2 -43.5 -4.5t-35.5 -10t-26 -19.5t-14 -32l52 -566q2 -22 6 -46t15 -44t34 -35t64 -19v-15h-442v15q35 0 58 8.5t36 22t18 30.5t3 33l-44 545l-316 -654h-26l-322 625l-53 -488q-1 -14 4.5 -35t21 -39.5t41.5 -32t67 -11.5v-22 h-327v22q36 -1 60.5 13.5t40 37.5t23 50t10.5 51l66 523q-14 19 -29 34t-34 27t-43 21t-56 15v15h344zM-5 1292l3 188q17 -3 34.5 -7.5t35.5 -4.5h684q13 0 28.5 4.5t31.5 7.5l6 -188h-17q-2 25 -11 48.5t-23 40.5t-33 27t-42 10h-186v-646q0 -16 6 -31t19 -27.5t32 -20 t45 -7.5h10v-16h-428v18h28q20 0 36 7t28 18t18 25t6 31v649h-189q-22 0 -39.5 -13t-29.5 -32t-20 -41t-13 -40h-20z" />
<glyph unicode="&#xe000;" horiz-adv-x="1475" d="M0 1475h1475v-1475h-1475v1475z" />
<glyph unicode="&#xfb01;" horiz-adv-x="1900" d="M1180 1474h689v-29h-17q-52 0 -84 -15.5t-50 -40t-25 -55t-7 -60.5v-1098q0 -27 11 -53.5t31 -47.5t50 -34t68 -13h23v-28h-689v28h18q47 0 78.5 14t50.5 37.5t27 54.5t8 65v1087q0 43 -15 72.5t-39 49.5t-53 28.5t-57 8.5h-18v29zM28 1474h1053l11 -336h-28 q-4 47 -18 92.5t-39 82t-60 59t-83 22.5h-330v-609h296q31 0 57.5 15.5t46.5 42.5t33 62t17 73h23v-432h-29q-2 38 -16.5 68t-37 50t-49.5 31t-56 11h-285v-472q0 -32 6 -68t22.5 -67t46.5 -51q29 -20 79 -20h34v-28h-694v28h29q34 0 62.5 12t48.5 33.5t31 51t11 63.5v1098 q0 25 -7 51.5t-23 49.5t-39 38t-55 15h-58v34z" />
<glyph unicode="&#xfb02;" horiz-adv-x="2390" d="M1180 1474h689v-29h-11q-45 0 -77.5 -12.5t-53.5 -34.5t-31 -54t-10 -70v-1052q0 -25 10 -49.5t28.5 -44t46 -31.5t63.5 -12h171q54 0 101.5 21.5t87.5 60.5t71.5 93.5t52.5 120.5l28 1l-50 -382h-1116v28q85 0 131 37t46 119v1108q0 36 -13.5 64t-34.5 48t-47 30.5 t-53 10.5h-29v29zM28 1474h1053l11 -336h-28q-4 47 -18 92.5t-39 82t-60 59t-83 22.5h-330v-609h296q31 0 57.5 15.5t46.5 42.5t33 62t17 73h23v-432h-29q-2 38 -16.5 68t-37 50t-49.5 31t-56 11h-285v-472q0 -32 6 -68t22.5 -67t46.5 -51q29 -20 79 -20h34v-28h-694v28h29 q34 0 62.5 12t48.5 33.5t31 51t11 63.5v1098q0 25 -7 51.5t-23 49.5t-39 38t-55 15h-58v34z" />
<glyph unicode="&#xfb03;" horiz-adv-x="3052" d="M2333 1474h689v-29h-17q-52 0 -84 -15.5t-50 -40t-25 -55t-7 -60.5v-1098q0 -27 11 -53.5t31 -47.5t50 -34t68 -13h23v-28h-689v28h18q47 0 78.5 14t50.5 37.5t27 54.5t8 65v1087q0 43 -15 72.5t-39 49.5t-53 28.5t-57 8.5h-18v29zM1180 1474h1053l11 -336h-28 q-4 47 -18 92.5t-39 82t-60 59t-83 22.5h-330v-609h296q31 0 57.5 15.5t46.5 42.5t33 62t17 73h23v-432h-29q-2 38 -16.5 68t-37 50t-49.5 31t-56 11h-285v-472q0 -32 6 -68t22.5 -67t46.5 -51q29 -20 79 -20h34v-28h-694v28h29q34 0 62.5 12t48.5 33.5t31 51t11 63.5v1098 q0 25 -7 51.5t-23 49.5t-39 38t-55 15h-58v34zM28 1474h1053l11 -336h-28q-4 47 -18 92.5t-39 82t-60 59t-83 22.5h-330v-609h296q31 0 57.5 15.5t46.5 42.5t33 62t17 73h23v-432h-29q-2 38 -16.5 68t-37 50t-49.5 31t-56 11h-285v-472q0 -32 6 -68t22.5 -67t46.5 -51 q29 -20 79 -20h34v-28h-694v28h29q34 0 62.5 12t48.5 33.5t31 51t11 63.5v1098q0 25 -7 51.5t-23 49.5t-39 38t-55 15h-58v34z" />
<glyph unicode="&#xfb04;" horiz-adv-x="3542" d="M2333 1474h689v-29h-11q-45 0 -77.5 -12.5t-53.5 -34.5t-31 -54t-10 -70v-1052q0 -25 10 -49.5t28.5 -44t46 -31.5t63.5 -12h171q54 0 101.5 21.5t87.5 60.5t71.5 93.5t52.5 120.5l28 1l-50 -382h-1116v28q85 0 131 37t46 119v1108q0 36 -13.5 64t-34.5 48t-47 30.5 t-53 10.5h-29v29zM1180 1474h1053l11 -336h-28q-4 47 -18 92.5t-39 82t-60 59t-83 22.5h-330v-609h296q31 0 57.5 15.5t46.5 42.5t33 62t17 73h23v-432h-29q-2 38 -16.5 68t-37 50t-49.5 31t-56 11h-285v-472q0 -32 6 -68t22.5 -67t46.5 -51q29 -20 79 -20h34v-28h-694v28 h29q34 0 62.5 12t48.5 33.5t31 51t11 63.5v1098q0 25 -7 51.5t-23 49.5t-39 38t-55 15h-58v34zM28 1474h1053l11 -336h-28q-4 47 -18 92.5t-39 82t-60 59t-83 22.5h-330v-609h296q31 0 57.5 15.5t46.5 42.5t33 62t17 73h23v-432h-29q-2 38 -16.5 68t-37 50t-49.5 31t-56 11 h-285v-472q0 -32 6 -68t22.5 -67t46.5 -51q29 -20 79 -20h34v-28h-694v28h29q34 0 62.5 12t48.5 33.5t31 51t11 63.5v1098q0 25 -7 51.5t-23 49.5t-39 38t-55 15h-58v34z" />
</font>
</defs>
</svg>
