<?xml version="1.0" encoding="utf-8"?>
<!-- Generator: Adobe Illustrator 16.0.4, SVG Export Plug-In . SVG Version: 6.00 Build 0)  -->
<!DOCTYPE svg PUBLIC "-//W3C//DTD SVG 1.1//EN" "http://www.w3.org/Graphics/SVG/1.1/DTD/svg11.dtd">
<svg version="1.1" id="Layer_1" xmlns="http://www.w3.org/2000/svg" xmlns:xlink="http://www.w3.org/1999/xlink" x="0px" y="0px"
	 width="247.934px" height="113.316px" viewBox="0 8.402 247.934 113.316" enable-background="new 0 8.402 247.934 113.316"
	 xml:space="preserve">
<g>
	<path fill="#FFFFFF" d="M138.226,46.39v4.176h-27.72v18.576h24.624v4.176h-24.624v24.479h-4.896V46.39H138.226z"/>
	<path fill="#FFFFFF" d="M146.757,85.522c0.456,1.752,1.188,3.324,2.196,4.716c1.008,1.393,2.279,2.545,3.816,3.456
		c1.536,0.913,3.384,1.368,5.544,1.368c3.312,0,5.904-0.864,7.776-2.592c1.872-1.729,3.168-4.032,3.888-6.912h4.536
		c-0.96,4.225-2.725,7.487-5.292,9.792c-2.568,2.304-6.204,3.456-10.908,3.456c-2.929,0-5.461-0.517-7.596-1.548
		c-2.136-1.031-3.876-2.447-5.22-4.247c-1.345-1.801-2.34-3.889-2.988-6.265c-0.648-2.376-0.972-4.884-0.972-7.523
		c0-2.448,0.324-4.849,0.972-7.2c0.648-2.353,1.644-4.452,2.988-6.3c1.343-1.848,3.083-3.335,5.22-4.465
		c2.135-1.127,4.667-1.691,7.596-1.691c2.976,0,5.519,0.601,7.632,1.8c2.112,1.201,3.827,2.772,5.148,4.716
		c1.32,1.944,2.268,4.176,2.844,6.696c0.576,2.52,0.815,5.076,0.72,7.668h-28.584C146.073,82.078,146.301,83.77,146.757,85.522z
		 M169.221,71.662c-0.552-1.584-1.332-2.988-2.34-4.212c-1.008-1.224-2.232-2.207-3.672-2.952c-1.44-0.744-3.072-1.116-4.896-1.116
		c-1.872,0-3.528,0.373-4.968,1.116c-1.44,0.745-2.664,1.729-3.672,2.952c-1.008,1.224-1.812,2.641-2.412,4.248
		c-0.601,1.609-0.997,3.252-1.188,4.932h24.048C170.073,74.902,169.772,73.246,169.221,71.662z"/>
	<path fill="#FFFFFF" d="M185.385,46.39v51.407h-4.535V46.39H185.385z"/>
	<path fill="#FFFFFF" d="M198.705,46.39v7.271h-4.536V46.39H198.705z M198.705,60.646v37.151h-4.536V60.646H198.705z"/>
	<path fill="#FFFFFF" d="M204.25,60.646h5.688l10.584,14.111l10.367-14.111h5.689L223.186,78.43l14.471,19.367h-5.76l-11.664-15.624
		l-11.447,15.624h-5.615l14.398-19.296L204.25,60.646z"/>
</g>
<g>
	<path fill="#FFFFFF" d="M25.709,61.557c0.025,0,0.054-0.002,0.084-0.007c0.432-0.049,0.688-0.305,0.981-0.602l0.139-0.136
		c0.535-0.52,0.495-0.572-0.213-1.458l-0.125-0.159c-0.201-0.255-0.268-0.341-0.357-0.341c-0.125,0-0.138,0.128-0.168,0.408
		l-0.022,0.219c-0.079,0.688-0.207,0.998-0.351,1.349c-0.02,0.047-0.049,0.103-0.08,0.157c-0.091,0.17-0.185,0.346-0.11,0.47
		C25.524,61.523,25.599,61.557,25.709,61.557"/>
	<path fill="#FFFFFF" d="M22.331,61.657L22.331,61.657v0.002V61.657z M22.294,61.744l0.037,0.002c0.353,0,0.83-0.397,1.341-0.816
		c0.276-0.228,0.586-0.638,0.888-1.035c0.219-0.291,0.446-0.59,0.655-0.811c0.463-0.488,0.45-0.615,0.312-1.123l-0.042-0.152
		c-0.002-0.027-0.042-0.287-0.456-0.838c-0.14-0.186-0.254-0.271-0.365-0.271c-0.228,0-0.293,0.327-0.365,0.691
		c-0.067,0.337-0.357,0.908-0.568,1.328l-0.108,0.213c-0.058,0.114-0.13,0.278-0.215,0.466c-0.235,0.524-0.559,1.244-0.813,1.518
		l-0.162,0.17c-0.247,0.257-0.393,0.41-0.343,0.544C22.128,61.732,22.253,61.742,22.294,61.744"/>
	<path fill="#FFFFFF" d="M21.061,58.364c0.047,0,0.096-0.017,0.148-0.049c0.164-0.101,0.449-0.197,0.7-0.283
		c0.11-0.039,0.215-0.075,0.3-0.107c0.098-0.036,0.202-0.066,0.301-0.095c0.234-0.066,0.403-0.116,0.447-0.228
		c0.053-0.137,0.102-1.427,0.102-1.764c0-0.118,0.013-0.291,0.029-0.482c0.036-0.458,0.081-1.024-0.021-1.3
		c-0.091-0.248-0.168-0.392-0.286-0.392c-0.124,0-0.218,0.124-0.305,0.738c-0.023,0.164-0.132,0.424-0.225,0.653
		c-0.059,0.139-0.111,0.267-0.143,0.363l-0.036,0.122c-0.089,0.284-0.237,0.759-0.326,0.916c-0.032,0.057-0.083,0.158-0.146,0.286
		c-0.154,0.3-0.385,0.753-0.547,0.952c-0.153,0.192-0.216,0.432-0.153,0.568C20.933,58.329,20.99,58.364,21.061,58.364"/>
	<path fill="#FFFFFF" d="M21.822,53.862c0.225-0.867,0.491-2.082,0.2-2.613c-0.096-0.173-0.168-0.27-0.266-0.27
		c-0.151,0-0.205,0.182-0.361,0.729c-0.059,0.2-0.127,0.445-0.22,0.735c-0.188,0.613-0.474,1.24-0.78,1.721
		c-0.336,0.523-0.875,0.979-1.153,1.137c-0.093,0.057-0.191,0.119-0.168,0.216c0.026,0.105,0.164,0.111,0.44,0.125
		c0.066,0.002,0.155,0.004,0.255,0.004c0.264,0,0.746-0.018,1.029-0.134C21.168,55.357,21.628,54.619,21.822,53.862"/>
	<path fill="#FFFFFF" d="M27.442,42.126c-0.076-0.122-0.219-0.159-0.344-0.089c-0.194,0.111-0.771,0.283-1.432,0.43
		c-0.355,0.081-0.826,0.129-1.329,0.177c-0.357,0.037-0.73,0.074-1.09,0.125c-0.857,0.122-2.014,0.424-3.016,0.785
		c-0.36,0.13-0.675,0.25-0.965,0.36c-0.509,0.193-0.947,0.361-1.417,0.501c-0.446,0.132-1.136-0.024-1.56-0.142
		c-0.168-0.046-0.292-0.081-0.379-0.081h-0.002l-0.142,0.009l0.074,0.123c0.44,0.716,1.403,1.304,2.046,1.438
		c0.125,0.026,0.252,0.041,0.382,0.041c0.438,0,0.777-0.154,0.996-0.252c0.033-0.014,0.063-0.029,0.099-0.053
		c0,0.016,0,0.035,0,0.058c0,0.86-0.008,1.414-0.028,1.639c-0.017,0.209,0.023,0.383,0.066,0.57c0.03,0.132,0.061,0.27,0.072,0.43
		c0.028,0.369-0.025,2.619-0.068,3.252c-0.041,0.574-0.2,0.816-0.451,1.193c-0.142,0.213-0.263,0.396-0.19,0.535
		c0.061,0.112,0.221,0.127,0.337,0.127c0.079,0,0.174-0.006,0.29-0.023c0.818-0.106,1.201-0.808,1.469-1.479
		c0.319-0.802,0.404-2.155,0.404-2.829c0-0.655,0.25-1.029,0.75-1.773l0.276-0.415c0.61-0.931,1.826-1.786,2.479-2.245l0.185-0.133
		c0.205-0.146,0.529-0.285,0.874-0.432c0.638-0.274,1.299-0.558,1.512-0.984C27.517,42.631,27.555,42.31,27.442,42.126"/>
	<path fill="#FFFFFF" d="M12.096,40.147l0.002-0.002v0.007L12.096,40.147z M11.148,40.144c0.13,0.02,0.645,0.074,0.902,0.094
		l0.047,0.002c0.089,0,0.15-0.023,0.193-0.067c0.063-0.066,0.059-0.162,0.055-0.253l-0.009-0.109c0,0-0.127-0.312-0.235-0.57
		c-0.046-0.104-0.127-0.122-0.172-0.122c-0.149,0-0.321,0.177-0.524,0.381c-0.072,0.074-0.144,0.146-0.21,0.204
		c-0.187,0.164-0.246,0.251-0.221,0.336C11,40.125,11.102,40.138,11.148,40.144"/>
	<path fill="#FFFFFF" d="M11.493,38.008c-0.053-0.101-0.083-0.217-0.108-0.317c-0.041-0.152-0.073-0.284-0.192-0.284l-0.083,0.026
		l-0.023,0.021c-0.14,0.122-0.23,0.211-0.23,0.213c-0.397,0.249-0.578,0.444-0.54,0.582c0.036,0.124,0.204,0.124,0.259,0.124
		l0.283,0.002c0.349,0,0.568-0.025,0.642-0.15C11.528,38.181,11.546,38.108,11.493,38.008"/>
	<path fill="#FFFFFF" d="M15.931,35.732c-0.608-0.039-1.203-0.876-1.209-0.883l-0.071-0.105l-0.069,0.105
		c-0.018,0.022-0.385,0.581-0.373,1.216c0.019,0.882,0.618,1.354,1.885,1.483c0.083,0.009,0.164,0.014,0.238,0.014
		c1.206,0,1.557-1.014,1.773-1.636c0.223-0.645-0.193-1.418-0.543-1.736c-0.203-0.184-0.716-0.377-1.274-0.377
		c-0.325,0-0.622,0.067-0.856,0.201l-0.288,0.16h0.33c0.004,0,0.536,0,0.834,0.117c0.074,0.03,0.723,0.302,0.619,0.863
		C16.84,35.612,16.554,35.771,15.931,35.732"/>
	<path fill="#FFFFFF" d="M30.234,39.01c0.237-0.168,0.723-0.66,0.97-0.92c0,0.336,0.006,0.982,0.05,1.482
		C30.977,39.413,30.626,39.218,30.234,39.01 M54.444,59.385c-1.18-1.127-3.682-3.146-5.755-4.275
		c-0.714-0.392-1.807-1.031-2.863-1.65c-0.679-0.396-1.341-0.786-1.877-1.091c0.398-0.202,2.116-0.775,3.55-0.775
		c0.255,0,0.488,0.018,0.696,0.054c1.931,0.343,3.953,1.512,4.613,2.19c1.101,1.128,1.729,2.265,1.733,2.265
		c0.002,0.008,0.187,0.708,0.366,1.167C55.071,58.035,54.952,58.599,54.444,59.385 M87.789,48.055
		c-0.154-0.205-0.423-0.31-0.864-0.31h-0.006c-0.708,0.02-1.865,0.396-2.983,0.757c-0.428,0.139-0.855,0.276-1.26,0.398
		c-1.514,0.448-3.115,1.785-3.825,2.576c-0.73,0.818-1.875,2.447-2.558,3.551c-0.551,0.89-0.883,1.839-1.205,2.756
		c-0.095,0.274-0.189,0.542-0.285,0.797c-0.388,1.037-1.038,3.218-1.262,4.819c-0.214,1.505-0.785,4.061-1.096,5.229
		c-0.316,1.169-1.226,3.531-1.691,4.254c-0.485,0.76-2.12,3.047-2.14,3.074c-0.916,1.479-2.371,1.699-3.158,1.699
		c-0.43,0-0.721-0.063-0.737-0.066c-1.487-0.14-2.631-0.663-3.395-1.56c-0.598-0.704-1.36-3.398-1.571-4.299
		c-0.161-0.677-0.654-2.598-0.822-3.243c0.326,0.196,1.075,0.585,2.333,0.904c0.43,0.109,0.849,0.166,1.248,0.166
		c1.041,0,1.767-0.384,2.074-0.713c0.349-0.374,0.339-1.006,0.328-1.192c0.141-0.093,0.631-0.415,1.273-0.851
		c0.801-0.547,0.621-2.074,0.614-2.133c-0.021-0.479-0.365-0.799-0.697-1.109c-0.108-0.103-0.216-0.202-0.312-0.307
		c0.395-0.367,0.59-0.795,0.856-1.377l0.037-0.077c0.326-0.716-0.517-2.156-1.059-2.727c-0.085-0.087-0.17-0.183-0.264-0.285
		c-0.519-0.572-1.167-1.283-2.025-1.521c-0.88-0.244-2.626-0.314-3.054-0.329c0.025-0.235,0.089-0.89,0.155-1.721
		c0.052-0.639,0.137-2.846-0.861-4.469c-0.908-1.473-3.454-3.546-6.641-5.407c-3.21-1.873-7.832-2.373-10.057-2.373
		c-0.122,0-0.239,0-0.349,0.005c-2.077,0.049-5.923,0.998-6.563,1.158c-0.006-0.036-0.011-0.077-0.017-0.123
		c-0.042-0.327-0.11-0.875-0.438-1.75c-0.389-1.038-1.692-3.779-2.204-4.485c-0.188-0.253-0.311-0.421-0.23-1.511
		c0.04-0.563,0.031-1.166,0.023-1.648c-0.004-0.34-0.008-0.638,0.004-0.851c0.039-0.625-0.247-2.209-0.434-3.257
		c-0.079-0.443-0.14-0.786-0.152-0.915c-0.022-0.264,0.318-0.994,0.646-1.704c0.179-0.384,0.361-0.783,0.511-1.146
		c0.442-1.089-0.033-4.377-0.051-4.516h-0.062c-0.176-0.632-0.422-1.092-0.599-1.268l0.007-0.022l-0.045-0.036
		c-0.178-0.142-0.533-0.168-0.799-0.168c-1.625,0-5.05,1.057-7.385,3.887c-0.484-0.341-2.236-1.229-3.384-1.104
		c-0.004-0.056-0.006-0.139-0.006-0.222c-0.021-1.05-0.081-4.25-3.312-6.167l-0.056-0.032l-0.046,0.044
		c-0.177,0.161-0.358,0.304-0.541,0.447c-1.228,0.973-2.502,1.977-3.433,8.812l-0.032,0.231l0.174-0.156
		c0.23-0.207,0.704-0.33,1.27-0.33c0.696,0,1.373,0.187,1.802,0.5c0.917,0.667,1.117,2.375,1.117,2.975
		c0,0.697-0.36,1.12-0.364,1.125l-0.195,0.223l0.285-0.085c0.004,0,0.565-0.124,0.755-0.008c0.188,0.113,0.213,0.589,0.204,0.747
		l-0.008,0.219l0.155-0.155c0.005-0.005,0.385-0.383,0.787-0.679c0.361-0.266,2.203-1.405,3.674-1.852
		c0.649-0.195,1.401-0.309,2.064-0.309c0.638,0,1.764,0.111,2.139,0.843c0.562,1.097-0.087,2.671-0.319,2.952
		c-0.249,0.3-0.766,0.38-0.771,0.38l-0.327,0.051l0.31,0.114c0.113,0.043,0.424,0.196,0.5,0.39c0.091,0.231,0.009,0.415-0.187,0.749
		c-0.181,0.312-0.391,0.499-0.393,0.501l-0.117,0.104l0.15,0.042c0.005,0.003,0.572,0.171,1.423,0.861
		c0.864,0.704,0.961,1.635,1.037,2.384c0.011,0.092,0.03,0.175,0.052,0.25c-0.281-0.136-0.566-0.266-0.847-0.382
		c-2.17-0.911-5.272-2.066-7.72-2.412l-0.045,0.326c2.412,0.34,5.483,1.488,7.637,2.39c1.188,0.5,2.485,1.223,3.138,1.602
		c0.011,0.053,0.023,0.101,0.036,0.14c0.101,0.285,0.29,0.666,0.425,0.925c-0.119-0.078-0.263-0.178-0.401-0.279
		c-0.193-0.147-0.402-0.146-0.478,0.002c-0.137,0.252,0.161,0.797,0.438,1.209c0.292,0.438,0.244,0.536,0.2,0.55
		c-0.185,0-0.61-0.233-0.87-0.444c-0.529-0.429-0.726-0.158-1.012,0.641c-0.207,0.578,0.024,2.534,0.174,3.829
		c0.053,0.447,0.093,0.804,0.093,0.919c0,0.23-0.152,0.432-0.349,0.682c-0.14,0.182-0.298,0.387-0.436,0.649
		c-0.151,0.293-0.183,0.517-0.093,0.665c0.111,0.183,0.385,0.223,0.795,0.119c0.245-0.065,1.021-0.396,2-0.818
		c1.566-0.674,3.708-1.594,4.861-1.909c1.817-0.495,4.082-1.112,6.278-1.14h0.177c2.116,0,4.945,0.471,6.729,1.121
		c2.666,0.969,4.506,1.87,5.623,2.755c1.558,1.235,2.18,2.184,2.381,3.624c0.156,1.098,0.019,2.683-0.072,3.501
		c-0.129-0.657-0.354-1.768-0.499-2.409c-0.215-0.946-0.323-1.422-0.83-2.436c-0.5-1.005-2.163-2.154-3.434-2.834
		c-1.271-0.677-3.642-1.355-5.064-1.761c-1.354-0.387-3.742-0.59-5.397-0.59c-0.197,0-0.383,0.002-0.548,0.008
		c-1.499,0.058-3.934,0.667-5.447,1.047c-1.057,0.265-2.343,0.897-3.479,1.457c-0.417,0.207-0.82,0.404-1.2,0.578l-0.336,0.156
		c-1.133,0.518-1.337,0.612-1.625,1.374c-0.311,0.817-0.201,1.382,1.264,2.37c1.615,1.087,2.988,1.203,3.502,1.203
		c0.48,0,1.042-0.157,1.584-0.311c0.311-0.088,0.613-0.173,0.883-0.221c0.731-0.136,2.679-0.382,3.246-0.44
		c0.191-0.019,0.444-0.01,0.693,0.005c-0.365,0.033-0.787,0.073-1.148,0.11c-0.783,0.075-2.269,0.312-3.116,0.606
		c-0.893,0.308-2.405,0.675-3.417,0.544c-1.039-0.133-1.385-0.261-2.008-0.516c-0.368-0.147-0.655-0.322-0.889-0.463
		c-0.149-0.089-0.279-0.167-0.398-0.22c-0.174-0.081-0.444-0.14-0.588,0.008c-0.122,0.125-0.174,0.366-0.164,0.732
		c0.022,0.665,0.803,1.666,1.231,2.165c-0.459-0.206-1.231-0.532-1.593-0.608c-0.179-0.038-0.325,0.005-0.432,0.122
		c-0.163,0.181-0.221,0.55-0.165,1.097c0.035,0.348,0.122,0.498,0.208,0.633l-0.027,0.088c0,0,0-0.003-0.002-0.003l-0.06-0.087
		c-0.112-0.008-0.257-0.002-0.37,0.051c-0.317,0.141-0.404,1.072-0.323,1.652c0.022,0.169,0.051,0.317,0.078,0.451
		c0.066,0.34,0.108,0.563-0.011,0.752c-0.193,0.302-0.907,1.426-0.907,1.426l-0.032,0.053l0.036,0.045
		c0.009,0.012,0.185,0.24,0.584,0.413c0.404,0.172,0.588,0.199,1.067,0.253c0.442,0.044,0.832-0.277,1.059-0.467
		c0.049-0.04,0.092-0.074,0.125-0.1l0.07-0.05c0.174-0.134,0.381-0.26,0.556-0.071c0.264,0.29,0.393,0.659,0.554,1.28
		c0.045,0.172,0.02,0.209-0.013,0.215c-0.079,0-0.221-0.057-0.372-0.116c-0.162-0.062-0.342-0.136-0.527-0.176
		c-0.217-0.049-0.342,0.041-0.392,0.12c-0.208,0.316,0.118,1.104,0.185,1.26c0.069,0.16,0.17,0.277,0.279,0.402
		c0.204,0.239,0.458,0.537,0.619,1.282c0.231,1.081,4.301,7.425,4.992,8.5c-0.276-0.019-0.806-0.054-0.986-0.054
		c-0.283,0-0.542,0.024-1.082,0.321c-0.334,0.183-1.646,0.549-3.897,1.085l-0.139,0.032c-0.392,0.093-1.431,0.443-2.347,0.755
		c-0.436,0.146-0.838,0.282-1.114,0.372c-0.512,0.166-1.34,0.527-2.003,0.821c-0.347,0.149-0.642,0.279-0.814,0.345
		c-0.541,0.211-1.88,1.102-2.03,1.201c-0.208,0.139-0.7,0.464-1.034,0.686c0.12-0.187,0.258-0.395,0.324-0.475
		c0.126-0.148,0.735-0.664,1.127-0.977c0.669-0.533,2.149-1.38,2.844-1.676l0.27-0.114c0.945-0.405,3.159-1.358,4.676-1.676
		c1.701-0.358,3.704-0.787,3.942-0.842l-0.006-0.17c-0.37-0.057-0.714-0.069-1.11-0.081c-0.448-0.015-0.955-0.034-1.625-0.121
		c-1.163-0.151-2.873-0.172-4.267-0.056c-1.223,0.103-2.852,0.504-4.357,1.075c-1.22,0.467-3.146,1.54-4.553,3.038
		c-1.265,1.348-2.473,4.037-2.764,5.615c-0.277,1.486-0.277,2.883-0.277,4.65c0,1.108-0.053,2.683-0.16,4.685l-0.004,0.083
		c-0.006,0.138,0,0.284,0.007,0.424c0.016,0.346,0.029,0.645-0.177,0.739c-0.092,0.042-0.196,0.11-0.315,0.192
		c-0.359,0.24-0.848,0.572-1.713,0.651c-0.25,0.021-0.499,0.032-0.747,0.044c-0.915,0.039-1.863,0.081-2.619,0.772
		c-0.826,0.75-0.824,2.955-0.821,3.896c0,0.154,0,0.271-0.002,0.333c-0.017,0.253,0.069,0.502,0.223,0.666
		c0.136,0.147,0.319,0.207,0.487,0.159c0.284-0.067,0.617-0.285,0.791-0.41c0.041,0.082,0.1,0.255,0.151,0.41
		c0.081,0.237,0.181,0.528,0.3,0.803c0.229,0.53,0.664,0.538,1.527,0.549c0.27,0.004,0.586,0.009,0.96,0.028
		c1.625,0.085,2.225,0.059,3.872-0.526l0.386-0.138c1.638-0.576,3.335-1.176,4.439-2.103c0.956-0.801,1.712-2.839,2.25-6.058
		c0.124-0.739,0.222-1.429,0.316-2.098c0.201-1.408,0.388-2.739,0.779-4.314c0.482-1.957,3.455-1.96,6.147-1.922
		c0.344,0.008,0.682,0.012,1.006,0.012c3.019,0,6.28-0.325,9.695-0.964c1.719-0.319,2.978-0.564,3.347-0.636
		c-0.178,3.186,1.518,5.403,3.426,7.577c2.245,2.557,6.092,4.088,7.219,4.498c3.37,1.217,5.317,2.028,5.787,2.397
		c0.714,0.568,2.016,1.918,2.356,3.38c0.345,1.484,0.008,3.04-0.481,3.745c-0.483,0.702-1.294,1.868-1.574,2.741
		c-0.245,0.756,0.077,1.516,0.291,2.019c0.033,0.083,0.068,0.162,0.095,0.231c0.189,0.486,0.351,1.029,0.354,1.034l0.076,0.263
		l0.088-0.259c0.004-0.009,0.325-0.947,0.538-1.236c0.204-0.278,0.428-0.438,0.806-0.697c0.079,0.012,0.226,0.392,0.289,0.552
		l0.073,0.183c0.064,0.149,0.083,0.421,0.104,0.682c0.021,0.285,0.041,0.555,0.113,0.719c0.146,0.316,0.632,0.752,0.654,0.772
		l0.094,0.083l0.043-0.117c0.062-0.171,0.278-0.323,0.663-0.473c0.134-0.053,0.28-0.057,0.462-0.062
		c0.274-0.008,0.617-0.019,1.127-0.183c0.457-0.149,0.677-0.364,0.856-0.541c0.158-0.155,0.27-0.268,0.556-0.281
		c0.133,0,0.258,0.023,0.376,0.045c0.353,0.06,0.698,0.05,1.055-0.193c0.201-0.137,0.351-0.254,0.506-0.374
		c0.307-0.238,0.627-0.481,1.406-0.939c0.934-0.543,0.826-1.141,0.662-2.047c-0.056-0.306-0.117-0.654-0.151-1.05
		c-0.057-0.668-0.227-1.005-0.405-1.363c-0.266-0.532-0.569-1.134-0.667-2.972c-0.164-3.103-0.589-4.907-1.52-6.434
		c-0.826-1.353-2.701-3.16-5.012-4.825c-0.757-0.544-1.41-0.913-1.985-1.241c-0.992-0.562-1.774-1.002-2.547-2.031
		c-0.982-1.308-0.882-3.376-0.81-4.094c0.412,0.544,1.418,0.795,2.948,1.021c1.819,0.271,4.439-0.023,6.267-0.688
		c2.18-0.792,3.689-1.835,4.892-3.375c1.254-1.608,1.531-2.284,2.44-4.525l0.286-0.708c0.802-1.966,1.404-4.226,1.786-6.711
		c0.078-0.507,0.253-1.138,0.475-1.939c0.235-0.855,0.53-1.921,0.787-3.158c0.363-1.74,1.152-3.4,1.673-4.497
		c0.18-0.38,0.328-0.688,0.405-0.896c0.303-0.799,1.499-3.012,2.049-3.85c0.326-0.5,0.941-1.069,1.533-1.621
		c0.438-0.404,0.851-0.786,1.119-1.116c0.613-0.745,1.271-1.622,1.524-2.5C87.99,48.71,87.98,48.309,87.789,48.055"/>
	<path fill="#FFFFFF" d="M21.402,33.557l-0.067,0.322c0.398,0.081,0.758,0.211,1.053,0.353c-0.1,0.429-0.153,0.777-0.153,0.777
		l0.325,0.052c0-0.002,0.046-0.296,0.129-0.667c0.125,0.074,0.234,0.147,0.309,0.217l0.221-0.245
		c-0.104-0.096-0.264-0.197-0.447-0.3c0.047-0.146,0.138-0.359,0.26-0.609c0.948,0.507,1.68,1.333,2,1.696l0.079,0.089l0.246-0.219
		l-0.076-0.087c-0.334-0.38-1.097-1.24-2.101-1.776c0.317-0.616,0.74-1.33,1.052-1.691l-0.249-0.218
		c-0.331,0.387-0.769,1.123-1.098,1.769c-0.209-0.092-0.42-0.172-0.643-0.229c-0.472-0.115-0.78-0.087-0.795-0.087l0.032,0.329
		c0.002,0,0.271-0.021,0.685,0.079c0.198,0.048,0.389,0.119,0.574,0.2c-0.114,0.235-0.203,0.441-0.259,0.598
		C22.171,33.768,21.804,33.638,21.402,33.557"/>
	<path fill="#FFFFFF" d="M11.796,37.669c0,0.355,0.534,0.401,0.998,0.401c0.189,0,0.384-0.008,0.562-0.017l0.179-0.007
		c0.03,0.028,0.062,0.062,0.085,0.084c0.478,0.451,1.067,0.819,2.943,1.583c0.895,0.363,1.441,0.466,1.867,0.466
		c0.258,0,0.469-0.038,0.686-0.076c0.188-0.034,0.381-0.068,0.613-0.074c0.417-0.013,0.998-0.109,1.543-0.211
		c0.061-0.002,0.12-0.002,0.185-0.002l1.146,0.007c0.217,0,0.414-0.002,0.566-0.011c0.446-0.023,0.767-0.048,1.002-0.079
		c1.732,1.041,2.63,1.625,3.389,2.426c1.057,1.116,1.311,1.312,1.429,1.312c0.027,0,0.048-0.015,0.072-0.026l-0.091-0.166
		l0.071-0.13c-0.019-0.011-0.218-0.134-1.241-1.218c-0.743-0.785-1.607-1.361-3.178-2.312c0.041-0.023,0.072-0.046,0.088-0.075
		l0.019-0.093l-0.023-0.041c-0.02-0.031-0.044-0.062-0.075-0.096l0.049-0.048l-0.247-0.259c-0.435-0.454-0.631-0.663-0.85-0.576
		c-0.083,0.034-0.155,0.117-0.302,0.288c-0.015,0.017-0.036,0.038-0.053,0.061c-0.829-0.495-1.8-1.078-2.98-1.801l-0.172,0.277
		c1.152,0.708,2.107,1.282,2.921,1.77c-0.091,0.085-0.181,0.156-0.245,0.162c-0.104,0.008-0.365,0.062-0.7,0.133
		c-0.683,0.14-1.714,0.354-2.333,0.373c-0.256,0.008-0.459,0.044-0.659,0.08c-0.546,0.099-1.021,0.181-2.373-0.37
		c-1.829-0.742-2.39-1.093-2.841-1.517c-0.446-0.418-1.433-1.566-1.508-1.683l-0.063,0.04c-0.087-0.099-0.167-0.158-0.294-0.032
		c-0.046,0.048-0.081,0.133-0.106,0.242c-0.117,0.026-0.233,0.057-0.349,0.083c-0.026-0.081-0.098-0.143-0.125-0.168
		c-0.419-0.361-0.556-0.453-0.68-0.453c-0.109,0-0.168,0.079-0.229,0.164c-0.043,0.057-0.094,0.127-0.173,0.199l-0.12,0.105
		c-0.387,0.342-0.569,0.526-0.552,0.665c-2.231,0.675-4.444,1.535-5.932,2.116C2.983,39.453,2.404,39.68,2.1,39.773l0.098,0.314
		c0.315-0.098,0.898-0.324,1.635-0.612c1.952-0.764,5.154-2.007,7.988-2.668C11.8,37.056,11.796,37.354,11.796,37.669"/>
	<path fill="#FFFFFF" d="M16.036,40.3c0.341,0.274,1.267,0.89,1.788,0.922l0.019-0.331c-0.365-0.021-1.177-0.511-1.601-0.849
		L16.036,40.3z"/>
	<path fill="#FFFFFF" d="M17.513,43.078c-0.065-0.013-0.172-0.021-0.301-0.021c-0.064,0-0.616,0.004-0.823,0.128l-0.063,0.055
		l0.004,0.053c0.008,0.092,0.095,0.169,0.593,0.375c0.102,0.042,0.237,0.063,0.403,0.063c0.213,0,0.509-0.043,0.592-0.103
		l0.055-0.083l-0.01-0.053C17.931,43.348,17.704,43.116,17.513,43.078"/>
	<path fill="#FFFFFF" d="M13.866,31.74l0.038,0.327c0.127-0.015,0.347-0.012,0.59,0.006c0.02,0.229,0.045,0.435,0.079,0.574
		l0.321-0.079c-0.027-0.112-0.051-0.276-0.067-0.458c0.225,0.031,0.451,0.075,0.644,0.134l0.097-0.313
		c-0.229-0.072-0.501-0.122-0.763-0.153c-0.01-0.188-0.012-0.376-0.01-0.551c0.412,0.076,0.866,0.278,1.562,0.768l0.189-0.271
		c-0.768-0.538-1.273-0.753-1.737-0.832c0.009-0.087,0.018-0.164,0.03-0.221c0.231-0.961,0.311-1.048,0.542-1.31l0.066-0.073
		L15.2,29.071l-0.063,0.072c-0.286,0.315-0.379,0.455-0.619,1.452c-0.016,0.063-0.026,0.157-0.037,0.262
		c-0.177-0.01-0.357-0.004-0.55,0.006l0.015,0.327c0.185-0.008,0.354-0.013,0.521-0.004c-0.004,0.177-0.001,0.369,0.006,0.56
		C14.222,31.726,14.004,31.726,13.866,31.74"/>
	<path fill="#FFFFFF" d="M29.469,40.699c-1.495-1.141-4.28-2.797-9.068-4.188l-0.092,0.317c4.738,1.378,7.489,3.009,8.959,4.133
		L29.469,40.699z"/>
	<path fill="#FFFFFF" d="M12.609,35.196c-4.353-0.104-9.726,2.68-10.758,3.238c-0.643,0.349-1.229,0.697-1.229,0.697l0.168,0.286
		c0.002,0,0.583-0.347,1.218-0.69c1.018-0.553,6.326-3.308,10.592-3.199L12.609,35.196z"/>
	<path fill="#FFFFFF" d="M12.667,34.465l-0.014-0.33c-5.954,0.271-9.74,1.97-11.56,2.783C0.576,37.152,0.203,37.32,0,37.356
		l0.061,0.325c0.24-0.046,0.609-0.21,1.169-0.461C3.03,36.413,6.778,34.733,12.667,34.465"/>
</g>
</svg>
