<?xml version="1.0" encoding="utf-8"?>
<!-- Generator: Adobe Illustrator 16.0.4, SVG Export Plug-In . SVG Version: 6.00 Build 0)  -->
<!DOCTYPE svg PUBLIC "-//W3C//DTD SVG 1.1//EN" "http://www.w3.org/Graphics/SVG/1.1/DTD/svg11.dtd">
<svg version="1.1" id="Layer_1" xmlns="http://www.w3.org/2000/svg" xmlns:xlink="http://www.w3.org/1999/xlink" x="0px" y="0px"
	 width="459.368px" height="123.07px" viewBox="0 0 459.368 123.07" enable-background="new 0 0 459.368 123.07"
	 xml:space="preserve">
<g>
	<path fill="#FFFFFF" d="M33.055,61.998c0.02,0,0.044-0.002,0.067-0.005c0.347-0.039,0.553-0.245,0.788-0.482l0.111-0.11
		c0.429-0.416,0.397-0.458-0.171-1.169l-0.1-0.128c-0.161-0.204-0.215-0.273-0.287-0.273c-0.101,0-0.11,0.103-0.135,0.328
		l-0.018,0.175c-0.063,0.552-0.166,0.801-0.282,1.083c-0.016,0.037-0.039,0.082-0.064,0.126c-0.073,0.136-0.148,0.276-0.088,0.377
		C32.906,61.971,32.967,61.998,33.055,61.998"/>
	<path fill="#FFFFFF" d="M30.345,62.077L30.345,62.077v0.002V62.077z M30.316,62.148l0.029,0.001c0.284,0,0.666-0.319,1.075-0.655
		c0.222-0.182,0.47-0.511,0.713-0.83c0.175-0.234,0.357-0.473,0.524-0.649c0.372-0.393,0.361-0.494,0.25-0.902l-0.034-0.122
		c-0.001-0.022-0.034-0.23-0.366-0.672c-0.112-0.149-0.204-0.218-0.292-0.218c-0.183,0-0.235,0.263-0.292,0.555
		c-0.054,0.27-0.287,0.728-0.457,1.066l-0.086,0.17c-0.046,0.091-0.104,0.223-0.172,0.373c-0.188,0.421-0.448,0.999-0.652,1.218
		l-0.13,0.137c-0.198,0.206-0.315,0.328-0.275,0.436C30.182,62.137,30.283,62.145,30.316,62.148"/>
	<path fill="#FFFFFF" d="M29.327,59.436c0.038,0,0.078-0.014,0.118-0.039c0.132-0.081,0.361-0.159,0.562-0.228
		c0.088-0.031,0.172-0.061,0.241-0.085c0.078-0.03,0.161-0.054,0.241-0.077c0.188-0.053,0.323-0.093,0.358-0.182
		c0.042-0.11,0.082-1.145,0.082-1.415c0-0.095,0.01-0.234,0.022-0.387c0.029-0.367,0.065-0.822-0.017-1.042
		c-0.072-0.198-0.135-0.314-0.229-0.314c-0.099,0-0.175,0.1-0.245,0.592c-0.018,0.132-0.105,0.341-0.18,0.524
		c-0.048,0.111-0.09,0.213-0.116,0.291l-0.029,0.099c-0.071,0.227-0.19,0.608-0.261,0.733c-0.026,0.046-0.067,0.127-0.117,0.229
		c-0.124,0.241-0.309,0.604-0.439,0.764c-0.123,0.154-0.173,0.346-0.123,0.456C29.224,59.408,29.27,59.436,29.327,59.436"/>
	<path fill="#FFFFFF" d="M29.937,55.826c0.181-0.695,0.394-1.67,0.16-2.097c-0.077-0.138-0.135-0.215-0.213-0.215
		c-0.121,0-0.164,0.145-0.289,0.584c-0.047,0.161-0.102,0.357-0.177,0.59c-0.15,0.492-0.38,0.995-0.626,1.38
		c-0.269,0.42-0.701,0.786-0.924,0.912c-0.075,0.045-0.154,0.095-0.135,0.173c0.021,0.085,0.132,0.09,0.353,0.101
		c0.053,0.001,0.124,0.003,0.205,0.003c0.212,0,0.598-0.014,0.825-0.108C29.413,57.024,29.781,56.432,29.937,55.826"/>
	<path fill="#FFFFFF" d="M34.445,46.412c-0.061-0.098-0.176-0.127-0.276-0.071c-0.156,0.089-0.619,0.227-1.148,0.345
		c-0.285,0.065-0.663,0.104-1.066,0.142c-0.286,0.03-0.585,0.059-0.874,0.1c-0.688,0.098-1.616,0.34-2.42,0.629
		c-0.288,0.104-0.541,0.201-0.773,0.289c-0.409,0.155-0.76,0.291-1.137,0.403c-0.357,0.106-0.91-0.02-1.251-0.114
		c-0.134-0.037-0.234-0.065-0.303-0.065h-0.002l-0.113,0.007l0.059,0.099c0.353,0.574,1.125,1.046,1.642,1.154
		c0.1,0.021,0.202,0.033,0.306,0.033c0.352,0,0.624-0.124,0.799-0.202c0.027-0.011,0.051-0.024,0.08-0.042c0,0.012,0,0.028,0,0.046
		c0,0.69-0.007,1.134-0.023,1.314c-0.013,0.168,0.019,0.307,0.054,0.458c0.024,0.105,0.048,0.216,0.058,0.345
		c0.022,0.296-0.02,2.101-0.055,2.608c-0.032,0.46-0.159,0.654-0.362,0.957c-0.114,0.17-0.21,0.316-0.152,0.429
		c0.049,0.09,0.177,0.102,0.271,0.102c0.062,0,0.139-0.005,0.232-0.019c0.656-0.085,0.962-0.648,1.177-1.187
		c0.256-0.643,0.325-1.729,0.325-2.269c0-0.525,0.201-0.825,0.602-1.422l0.221-0.333c0.49-0.747,1.465-1.432,1.989-1.8l0.148-0.106
		c0.164-0.117,0.424-0.229,0.701-0.347c0.511-0.22,1.042-0.448,1.212-0.79C34.505,46.817,34.535,46.56,34.445,46.412"/>
	<path fill="#FFFFFF" d="M22.136,44.826l0.002-0.002v0.005L22.136,44.826z M21.376,44.823c0.104,0.017,0.517,0.06,0.723,0.076
		l0.038,0.001c0.072,0,0.121-0.019,0.155-0.054c0.05-0.053,0.048-0.13,0.044-0.203l-0.008-0.088c0,0-0.101-0.25-0.188-0.457
		C22.104,44.014,22.039,44,22.003,44c-0.12,0-0.258,0.142-0.421,0.305c-0.058,0.06-0.115,0.117-0.168,0.164
		c-0.15,0.132-0.198,0.202-0.177,0.27C21.257,44.807,21.339,44.818,21.376,44.823"/>
	<path fill="#FFFFFF" d="M21.653,43.109c-0.043-0.081-0.067-0.174-0.087-0.254c-0.033-0.122-0.059-0.228-0.154-0.228l-0.066,0.021
		l-0.019,0.017c-0.112,0.098-0.184,0.169-0.184,0.17c-0.319,0.2-0.464,0.357-0.434,0.467c0.029,0.099,0.164,0.099,0.208,0.099
		l0.227,0.001c0.28,0,0.456-0.02,0.515-0.121C21.681,43.248,21.696,43.19,21.653,43.109"/>
	<path fill="#FFFFFF" d="M25.212,41.284c-0.488-0.031-0.965-0.703-0.97-0.708l-0.058-0.085l-0.055,0.085
		c-0.015,0.018-0.309,0.466-0.299,0.975c0.015,0.707,0.495,1.086,1.512,1.189c0.066,0.008,0.131,0.011,0.191,0.011
		c0.967,0,1.249-0.812,1.422-1.312c0.179-0.517-0.155-1.137-0.436-1.392c-0.163-0.147-0.573-0.303-1.021-0.303
		c-0.261,0-0.499,0.054-0.687,0.162l-0.23,0.128h0.264c0.003,0,0.43,0,0.669,0.094c0.059,0.024,0.58,0.242,0.496,0.692
		C25.941,41.188,25.712,41.316,25.212,41.284"/>
	<path fill="#FFFFFF" d="M36.684,43.914c0.19-0.135,0.58-0.53,0.779-0.738c0,0.27,0.005,0.789,0.04,1.189
		C37.28,44.237,36.998,44.08,36.684,43.914 M56.102,60.255c-0.946-0.904-2.953-2.522-4.615-3.429
		c-0.573-0.314-1.45-0.827-2.296-1.324c-0.544-0.318-1.076-0.63-1.506-0.875c0.32-0.162,1.697-0.622,2.847-0.622
		c0.204,0,0.392,0.014,0.559,0.043c1.549,0.275,3.17,1.213,3.7,1.757c0.883,0.905,1.386,1.816,1.39,1.816
		c0.001,0.006,0.15,0.568,0.294,0.936C56.605,59.173,56.51,59.625,56.102,60.255 M82.847,51.169
		c-0.124-0.165-0.34-0.249-0.693-0.249h-0.005c-0.568,0.016-1.496,0.318-2.393,0.607c-0.343,0.112-0.686,0.222-1.011,0.32
		c-1.214,0.359-2.499,1.432-3.068,2.066c-0.585,0.657-1.504,1.962-2.052,2.848c-0.442,0.714-0.708,1.476-0.967,2.21
		c-0.076,0.221-0.151,0.436-0.229,0.64c-0.311,0.832-0.832,2.581-1.012,3.865c-0.171,1.207-0.63,3.257-0.879,4.194
		c-0.253,0.938-0.983,2.833-1.356,3.412c-0.389,0.609-1.7,2.443-1.716,2.465c-0.734,1.188-1.902,1.364-2.533,1.364
		c-0.345,0-0.578-0.051-0.59-0.053c-1.193-0.113-2.111-0.533-2.723-1.251c-0.479-0.565-1.091-2.726-1.26-3.448
		c-0.13-0.543-0.525-2.083-0.66-2.602c0.261,0.157,0.862,0.47,1.871,0.725c0.345,0.089,0.681,0.134,1.002,0.134
		c0.834,0,1.416-0.309,1.663-0.572c0.28-0.3,0.271-0.807,0.263-0.956c0.113-0.073,0.505-0.333,1.021-0.683
		c0.642-0.438,0.498-1.663,0.492-1.709c-0.017-0.387-0.292-0.642-0.559-0.892c-0.086-0.081-0.173-0.161-0.25-0.245
		c0.317-0.295,0.473-0.639,0.687-1.104l0.03-0.062c0.262-0.574-0.415-1.73-0.849-2.187c-0.068-0.069-0.137-0.146-0.212-0.229
		c-0.416-0.459-0.936-1.029-1.624-1.22c-0.706-0.196-2.107-0.252-2.449-0.265c0.02-0.188,0.07-0.713,0.124-1.379
		c0.042-0.512,0.111-2.282-0.689-3.584c-0.729-1.182-2.771-2.844-5.327-4.338c-2.575-1.502-6.281-1.902-8.067-1.902
		c-0.098,0-0.191,0-0.28,0.004c-1.665,0.039-4.75,0.8-5.264,0.928c-0.004-0.029-0.009-0.062-0.013-0.099
		c-0.034-0.262-0.089-0.702-0.352-1.403c-0.312-0.833-1.358-3.031-1.768-3.598c-0.151-0.203-0.25-0.337-0.185-1.211
		c0.033-0.452,0.024-0.935,0.019-1.322c-0.003-0.273-0.007-0.512,0.002-0.683c0.032-0.501-0.197-1.771-0.348-2.612
		c-0.063-0.355-0.112-0.631-0.122-0.734c-0.018-0.211,0.255-0.797,0.518-1.367c0.144-0.308,0.29-0.628,0.41-0.92
		c0.354-0.873-0.026-3.51-0.041-3.622h-0.049c-0.142-0.507-0.339-0.875-0.481-1.016l0.006-0.019l-0.036-0.029
		c-0.143-0.113-0.427-0.135-0.641-0.135c-1.304,0-4.05,0.848-5.923,3.118c-0.389-0.273-1.794-0.985-2.715-0.885
		c-0.003-0.045-0.004-0.111-0.004-0.178c-0.017-0.842-0.066-3.408-2.657-4.946l-0.045-0.026l-0.037,0.036
		c-0.142,0.129-0.288,0.243-0.434,0.358c-0.985,0.78-2.006,1.585-2.754,7.068l-0.025,0.186l0.14-0.125
		c0.185-0.167,0.565-0.265,1.019-0.265c0.558,0,1.102,0.149,1.445,0.401c0.735,0.535,0.896,1.906,0.896,2.386
		c0,0.559-0.289,0.898-0.292,0.902L26.66,37.46l0.229-0.068c0.003,0,0.454-0.099,0.606-0.005c0.15,0.091,0.171,0.472,0.164,0.599
		l-0.007,0.175l0.124-0.125c0.004-0.004,0.309-0.307,0.631-0.544c0.29-0.213,1.767-1.128,2.947-1.485
		c0.52-0.157,1.124-0.248,1.656-0.248c0.511,0,1.414,0.089,1.715,0.676c0.451,0.879-0.07,2.142-0.255,2.368
		c-0.2,0.24-0.615,0.305-0.619,0.305l-0.262,0.04l0.249,0.092c0.09,0.035,0.34,0.157,0.401,0.312
		c0.073,0.185,0.007,0.333-0.15,0.601c-0.145,0.25-0.313,0.4-0.315,0.402l-0.093,0.083l0.12,0.034
		c0.004,0.002,0.459,0.137,1.141,0.691c0.693,0.564,0.771,1.31,0.832,1.912c0.009,0.074,0.024,0.14,0.042,0.2
		c-0.226-0.109-0.454-0.213-0.68-0.306c-1.74-0.73-4.228-1.658-6.191-1.935l-0.036,0.262c1.935,0.272,4.397,1.193,6.125,1.916
		c0.953,0.401,1.994,0.981,2.518,1.285c0.008,0.042,0.018,0.08,0.028,0.111c0.082,0.229,0.233,0.534,0.341,0.742
		c-0.095-0.063-0.21-0.143-0.322-0.224c-0.154-0.119-0.322-0.117-0.383,0.001c-0.11,0.202,0.129,0.639,0.352,0.97
		c0.234,0.351,0.195,0.43,0.161,0.441c-0.149,0-0.49-0.188-0.698-0.356c-0.425-0.344-0.583-0.127-0.812,0.514
		c-0.166,0.463,0.02,2.033,0.141,3.071c0.041,0.359,0.074,0.645,0.074,0.737c0,0.185-0.122,0.346-0.279,0.547
		c-0.112,0.146-0.239,0.31-0.35,0.521c-0.121,0.235-0.146,0.415-0.074,0.533c0.088,0.146,0.308,0.179,0.637,0.096
		c0.197-0.053,0.819-0.318,1.604-0.657c1.256-0.541,2.974-1.278,3.899-1.531c1.458-0.397,3.274-0.893,5.036-0.915h0.142
		c1.697,0,3.967,0.378,5.396,0.9c2.139,0.776,3.614,1.5,4.51,2.209c1.25,0.991,1.749,1.751,1.91,2.907
		c0.126,0.881,0.016,2.152-0.057,2.808c-0.104-0.527-0.284-1.417-0.401-1.932c-0.171-0.759-0.258-1.141-0.666-1.954
		c-0.401-0.806-1.735-1.728-2.754-2.273c-1.02-0.542-2.92-1.087-4.062-1.412c-1.086-0.31-3.001-0.474-4.329-0.474
		c-0.157,0-0.307,0.002-0.439,0.007c-1.202,0.046-3.155,0.534-4.369,0.84c-0.847,0.212-1.879,0.72-2.79,1.168
		c-0.334,0.166-0.658,0.324-0.962,0.463l-0.27,0.125c-0.909,0.416-1.072,0.491-1.304,1.102c-0.249,0.655-0.161,1.108,1.014,1.901
		c1.295,0.872,2.396,0.964,2.809,0.964c0.386,0,0.836-0.125,1.271-0.249c0.25-0.07,0.492-0.139,0.708-0.177
		c0.586-0.108,2.148-0.306,2.604-0.353c0.153-0.016,0.355-0.008,0.555,0.003c-0.292,0.027-0.631,0.059-0.921,0.088
		c-0.628,0.061-1.819,0.251-2.5,0.487c-0.716,0.248-1.928,0.542-2.74,0.437c-0.834-0.107-1.111-0.209-1.611-0.414
		c-0.295-0.118-0.525-0.258-0.713-0.371c-0.119-0.071-0.224-0.134-0.319-0.176c-0.14-0.065-0.355-0.112-0.472,0.006
		c-0.098,0.1-0.139,0.294-0.131,0.587c0.018,0.534,0.644,1.336,0.988,1.737c-0.369-0.166-0.988-0.427-1.278-0.489
		c-0.144-0.03-0.261,0.004-0.346,0.099c-0.131,0.145-0.178,0.44-0.133,0.879c0.028,0.279,0.098,0.4,0.167,0.508l-0.022,0.07
		c0,0,0-0.002-0.001-0.002l-0.047-0.07c-0.091-0.006-0.207-0.002-0.298,0.041c-0.253,0.113-0.323,0.86-0.259,1.325
		c0.019,0.135,0.042,0.254,0.063,0.362c0.053,0.273,0.087,0.452-0.009,0.604c-0.155,0.242-0.728,1.144-0.728,1.144l-0.025,0.042
		l0.028,0.036c0.008,0.01,0.148,0.192,0.468,0.331c0.325,0.138,0.473,0.161,0.856,0.204c0.354,0.034,0.667-0.224,0.85-0.376
		c0.039-0.031,0.073-0.06,0.1-0.078l0.056-0.041c0.14-0.107,0.306-0.208,0.446-0.057c0.211,0.232,0.315,0.528,0.444,1.026
		c0.036,0.138,0.016,0.168-0.01,0.172c-0.063,0-0.177-0.044-0.298-0.093c-0.131-0.05-0.275-0.108-0.423-0.142
		c-0.174-0.038-0.274,0.034-0.314,0.097c-0.167,0.254,0.094,0.886,0.148,1.01c0.055,0.13,0.137,0.224,0.224,0.323
		c0.164,0.192,0.368,0.431,0.497,1.029c0.185,0.867,3.449,5.954,4.003,6.816c-0.222-0.014-0.646-0.043-0.791-0.043
		c-0.228,0-0.435,0.021-0.868,0.259c-0.267,0.146-1.32,0.439-3.125,0.87l-0.112,0.025c-0.315,0.074-1.148,0.356-1.883,0.605
		c-0.35,0.117-0.672,0.227-0.894,0.298c-0.411,0.134-1.074,0.424-1.606,0.659c-0.278,0.119-0.516,0.224-0.653,0.276
		c-0.434,0.17-1.508,0.884-1.628,0.964c-0.167,0.11-0.562,0.372-0.829,0.549c0.095-0.148,0.207-0.315,0.259-0.381
		c0.101-0.118,0.589-0.531,0.904-0.782c0.536-0.428,1.724-1.105,2.281-1.345l0.217-0.091c0.758-0.324,2.533-1.09,3.75-1.345
		c1.364-0.286,2.97-0.631,3.162-0.675l-0.005-0.136c-0.296-0.046-0.573-0.057-0.89-0.065c-0.36-0.012-0.767-0.028-1.304-0.098
		c-0.933-0.121-2.304-0.138-3.422-0.044c-0.981,0.083-2.288,0.403-3.494,0.862c-0.979,0.374-2.524,1.235-3.653,2.438
		c-1.014,1.081-1.983,3.237-2.217,4.504c-0.222,1.191-0.222,2.311-0.222,3.729c0,0.89-0.042,2.151-0.128,3.757l-0.003,0.067
		c-0.005,0.11,0,0.228,0.005,0.34c0.013,0.278,0.023,0.517-0.142,0.593c-0.074,0.034-0.157,0.089-0.252,0.154
		c-0.288,0.193-0.68,0.459-1.374,0.523c-0.201,0.016-0.4,0.024-0.599,0.034c-0.734,0.033-1.494,0.065-2.101,0.62
		c-0.662,0.602-0.66,2.37-0.659,3.123c0,0.124,0,0.22-0.001,0.269c-0.013,0.202,0.055,0.402,0.179,0.533
		c0.109,0.119,0.256,0.166,0.391,0.129c0.228-0.055,0.495-0.229,0.634-0.329c0.032,0.066,0.08,0.204,0.12,0.329
		c0.065,0.189,0.146,0.423,0.241,0.644c0.183,0.425,0.532,0.432,1.225,0.44c0.216,0.002,0.471,0.007,0.77,0.021
		c1.304,0.068,1.785,0.047,3.105-0.422l0.31-0.11c1.313-0.462,2.675-0.942,3.56-1.687c0.767-0.642,1.374-2.276,1.804-4.858
		c0.099-0.593,0.178-1.146,0.254-1.683c0.162-1.13,0.311-2.197,0.625-3.46c0.388-1.569,2.772-1.572,4.93-1.541
		c0.276,0.006,0.547,0.009,0.807,0.009c2.422,0,5.037-0.261,7.776-0.773c1.379-0.256,2.389-0.451,2.685-0.51
		c-0.143,2.555,1.217,4.334,2.748,6.077c1.801,2.052,4.887,3.28,5.79,3.608c2.703,0.976,4.265,1.626,4.642,1.922
		c0.572,0.456,1.617,1.539,1.89,2.712c0.277,1.19,0.006,2.438-0.385,3.004c-0.388,0.562-1.039,1.498-1.263,2.198
		c-0.197,0.605,0.061,1.217,0.233,1.619c0.026,0.067,0.055,0.129,0.076,0.185c0.151,0.392,0.282,0.826,0.284,0.83l0.062,0.211
		l0.07-0.207c0.003-0.008,0.261-0.76,0.432-0.992c0.164-0.224,0.343-0.351,0.646-0.559c0.063,0.009,0.181,0.313,0.231,0.441
		l0.059,0.147c0.051,0.119,0.067,0.338,0.083,0.546c0.017,0.229,0.033,0.446,0.09,0.577c0.117,0.253,0.507,0.603,0.525,0.619
		l0.075,0.066l0.035-0.093c0.05-0.137,0.223-0.26,0.532-0.38c0.108-0.042,0.225-0.046,0.371-0.05
		c0.22-0.006,0.495-0.016,0.904-0.147c0.366-0.118,0.544-0.291,0.687-0.435c0.127-0.123,0.216-0.214,0.446-0.224
		c0.106,0,0.207,0.019,0.301,0.036c0.283,0.047,0.561,0.039,0.846-0.155c0.161-0.11,0.282-0.204,0.406-0.301
		c0.247-0.191,0.502-0.386,1.128-0.753c0.748-0.437,0.662-0.916,0.53-1.643c-0.045-0.246-0.094-0.524-0.121-0.842
		c-0.046-0.536-0.183-0.805-0.325-1.094c-0.214-0.427-0.457-0.908-0.536-2.382c-0.131-2.489-0.472-3.937-1.219-5.162
		c-0.662-1.084-2.166-2.534-4.02-3.869c-0.607-0.436-1.131-0.733-1.592-0.996c-0.796-0.45-1.423-0.803-2.043-1.628
		c-0.788-1.05-0.708-2.709-0.649-3.284c0.33,0.437,1.137,0.637,2.364,0.818c1.459,0.217,3.561-0.018,5.027-0.552
		c1.749-0.636,2.958-1.472,3.924-2.708c1.005-1.289,1.228-1.831,1.957-3.629l0.229-0.567c0.644-1.577,1.126-3.39,1.433-5.383
		c0.062-0.406,0.204-0.912,0.38-1.556c0.189-0.686,0.425-1.541,0.632-2.533c0.291-1.396,0.923-2.727,1.342-3.607
		c0.144-0.304,0.263-0.552,0.325-0.718c0.243-0.641,1.203-2.415,1.643-3.087c0.262-0.401,0.755-0.858,1.23-1.3
		c0.351-0.324,0.682-0.631,0.897-0.895c0.492-0.598,1.02-1.301,1.223-2.006C83.008,51.693,83,51.372,82.847,51.169"/>
	<path fill="#FFFFFF" d="M29.6,39.54l-0.054,0.259c0.32,0.065,0.608,0.169,0.845,0.283c-0.08,0.343-0.123,0.623-0.123,0.623
		l0.261,0.041c0-0.001,0.037-0.237,0.104-0.535c0.1,0.06,0.188,0.118,0.248,0.174l0.177-0.197c-0.083-0.077-0.211-0.158-0.358-0.241
		c0.037-0.118,0.11-0.288,0.208-0.489c0.76,0.406,1.348,1.069,1.604,1.361l0.063,0.071l0.198-0.175l-0.062-0.069
		c-0.268-0.305-0.879-0.995-1.685-1.426c0.255-0.494,0.593-1.067,0.844-1.356l-0.2-0.175c-0.266,0.31-0.617,0.9-0.881,1.418
		c-0.167-0.074-0.337-0.138-0.516-0.183c-0.378-0.093-0.625-0.07-0.638-0.07l0.026,0.264c0.002,0,0.217-0.017,0.549,0.063
		c0.159,0.039,0.312,0.096,0.461,0.161c-0.092,0.189-0.164,0.354-0.208,0.479C30.217,39.709,29.922,39.605,29.6,39.54"/>
	<path fill="#FFFFFF" d="M21.896,42.837c0,0.286,0.428,0.322,0.8,0.322c0.151,0,0.308-0.006,0.45-0.013l0.144-0.005
		c0.024,0.023,0.05,0.05,0.068,0.067c0.383,0.361,0.855,0.657,2.36,1.269c0.717,0.292,1.155,0.374,1.498,0.374
		c0.207,0,0.375-0.031,0.55-0.062c0.151-0.027,0.306-0.055,0.492-0.059c0.333-0.01,0.8-0.088,1.237-0.169
		c0.049-0.001,0.096-0.001,0.148-0.001l0.92,0.005c0.173,0,0.332-0.001,0.454-0.008c0.358-0.019,0.615-0.039,0.804-0.063
		c1.388,0.834,2.109,1.303,2.718,1.945c0.848,0.895,1.052,1.053,1.146,1.053c0.022,0,0.039-0.012,0.058-0.021l-0.073-0.133
		l0.057-0.104c-0.015-0.009-0.175-0.107-0.995-0.977c-0.596-0.629-1.29-1.092-2.549-1.854c0.033-0.019,0.058-0.037,0.071-0.06
		l0.015-0.075l-0.018-0.032c-0.017-0.025-0.036-0.049-0.061-0.077l0.04-0.039l-0.198-0.208c-0.349-0.364-0.506-0.532-0.682-0.462
		c-0.067,0.027-0.125,0.094-0.243,0.231c-0.011,0.013-0.028,0.03-0.042,0.048c-0.665-0.397-1.443-0.865-2.39-1.444l-0.138,0.222
		c0.924,0.568,1.69,1.028,2.342,1.419c-0.073,0.068-0.145,0.126-0.196,0.13c-0.083,0.006-0.293,0.049-0.562,0.107
		c-0.547,0.111-1.374,0.284-1.871,0.299c-0.206,0.006-0.368,0.036-0.528,0.064c-0.438,0.08-0.819,0.145-1.904-0.296
		c-1.467-0.595-1.917-0.876-2.278-1.216c-0.357-0.335-1.149-1.257-1.209-1.35l-0.051,0.033c-0.069-0.079-0.134-0.127-0.235-0.025
		c-0.036,0.038-0.065,0.105-0.085,0.193c-0.094,0.022-0.187,0.045-0.28,0.067c-0.021-0.065-0.078-0.114-0.1-0.135
		c-0.336-0.289-0.446-0.363-0.546-0.363c-0.087,0-0.134,0.064-0.184,0.132c-0.035,0.045-0.075,0.101-0.139,0.159l-0.096,0.085
		c-0.31,0.274-0.457,0.422-0.443,0.533c-1.79,0.542-3.564,1.232-4.758,1.698c-0.587,0.229-1.052,0.412-1.295,0.485l0.079,0.252
		c0.252-0.079,0.72-0.26,1.312-0.491c1.565-0.612,4.133-1.61,6.406-2.14C21.898,42.346,21.896,42.585,21.896,42.837"/>
	<path fill="#FFFFFF" d="M25.296,44.948c0.273,0.22,1.017,0.713,1.434,0.74l0.016-0.267c-0.293-0.017-0.944-0.41-1.284-0.681
		L25.296,44.948z"/>
	<path fill="#FFFFFF" d="M26.481,47.176c-0.052-0.01-0.138-0.016-0.241-0.016c-0.052,0-0.495,0.003-0.661,0.103l-0.05,0.043
		l0.003,0.042c0.006,0.074,0.076,0.136,0.476,0.301c0.082,0.034,0.19,0.05,0.324,0.05c0.171,0,0.407-0.035,0.474-0.082l0.044-0.067
		l-0.008-0.042C26.816,47.393,26.634,47.207,26.481,47.176"/>
	<path fill="#FFFFFF" d="M23.556,38.082l0.03,0.262c0.102-0.011,0.279-0.009,0.474,0.005c0.016,0.184,0.036,0.349,0.063,0.461
		l0.257-0.064c-0.021-0.089-0.041-0.222-0.054-0.367c0.18,0.025,0.362,0.06,0.517,0.107l0.078-0.251
		c-0.183-0.058-0.401-0.098-0.612-0.123c-0.008-0.15-0.01-0.302-0.008-0.442c0.331,0.062,0.695,0.223,1.253,0.616l0.152-0.217
		c-0.616-0.432-1.021-0.604-1.393-0.667c0.007-0.07,0.014-0.132,0.024-0.177c0.185-0.771,0.249-0.841,0.435-1.051l0.053-0.059
		l-0.198-0.173l-0.051,0.057c-0.229,0.253-0.304,0.365-0.497,1.165c-0.013,0.051-0.021,0.126-0.03,0.209
		c-0.142-0.007-0.286-0.002-0.44,0.005l0.012,0.263c0.148-0.006,0.284-0.01,0.417-0.003c-0.003,0.142,0,0.296,0.005,0.449
		C23.842,38.071,23.667,38.071,23.556,38.082"/>
	<path fill="#FFFFFF" d="M36.07,45.268c-1.199-0.916-3.433-2.244-7.273-3.359l-0.073,0.255c3.8,1.104,6.006,2.413,7.186,3.314
		L36.07,45.268z"/>
	<path fill="#FFFFFF" d="M22.548,40.854c-3.492-0.083-7.801,2.149-8.629,2.598c-0.515,0.279-0.986,0.559-0.986,0.559l0.135,0.23
		c0.001,0,0.467-0.279,0.977-0.554c0.816-0.443,5.074-2.653,8.496-2.566L22.548,40.854z"/>
	<path fill="#FFFFFF" d="M22.594,40.267l-0.011-0.264c-4.775,0.217-7.812,1.58-9.271,2.232c-0.415,0.188-0.714,0.323-0.877,0.352
		l0.049,0.261c0.193-0.037,0.488-0.168,0.938-0.37C14.865,41.83,17.871,40.483,22.594,40.267"/>
</g>
<g>
	<defs>
		<rect id="SVGID_1_" x="105.86" y="28.378" width="285.197" height="73.364"/>
	</defs>
	<clipPath id="SVGID_2_">
		<use xlink:href="#SVGID_1_"  overflow="visible"/>
	</clipPath>
	<path clip-path="url(#SVGID_2_)" fill="#FFFFFF" d="M129.522,58.23c0,2.975,0.102,3.305,2.844,3.305h7.82
		c5.383,0,6.5-0.771,7.515-6.168l0.508-2.644c0.711-0.991,3.25-0.881,3.859,0.111c-0.203,3.524-0.304,7.601-0.304,11.785
		c0,4.077,0.101,8.152,0.304,11.457c-0.609,0.991-3.148,1.102-3.859,0.111l-0.508-2.645c-1.015-5.287-2.132-6.168-7.515-6.168h-7.82
		c-2.742,0-2.844,0.33-2.844,3.303v14.871c0,10.246,0.61,11.125,5.18,11.787l3.757,0.551c0.711,0.66,0.711,3.195,0,3.855
		c-6.296-0.22-11.272-0.33-16.147-0.33c-4.672,0-9.75,0.11-15.844,0.33c-0.812-0.66-0.812-3.195,0-3.855l3.352-0.551
		c4.57-0.771,5.18-1.541,5.18-11.787V44.571c0-10.244-0.61-11.236-5.18-12.007l-2.031-0.33c-0.914-0.661-0.914-3.414,0.203-3.855
		c4.367,0.221,9.445,0.33,14.32,0.33h21.327c6.499,0,12.288-0.109,13.71-0.33c0,1.873,0,9.803,0.203,17.183
		c-0.406,1.213-2.64,1.323-3.859,0.441c-1.117-4.516-1.93-7.159-2.945-8.591c-1.727-2.314-4.773-3.635-9.953-3.635h-7.921
		c-3.352,0-3.352,0.219-3.352,4.516V58.23z"/>
	<path clip-path="url(#SVGID_2_)" fill="#FFFFFF" d="M185.17,57.349c0,3.084,0.102,3.305,2.844,3.305h7.008
		c5.28,0,6.499-0.771,7.514-6.059l0.508-2.753c0.711-0.882,3.25-0.882,3.758,0.109c-0.203,3.524-0.305,7.491-0.305,11.676
		c0,4.187,0.102,8.151,0.305,11.677c-0.508,0.991-3.047,1.102-3.758,0.111l-0.508-2.754c-1.015-5.287-2.234-6.169-7.514-6.169
		h-7.008c-2.742,0-2.844,0.11-2.844,3.413v13.109c0,5.067,0.406,8.592,1.625,10.465c1.32,1.982,3.25,2.863,10.664,2.863
		c8.835,0,12.288-0.33,17.874-12.777c0.813-1.211,3.351-0.771,3.758,0.551c-0.407,5.729-2.844,14.652-4.266,17.625
		c-5.382-0.221-15.132-0.33-23.46-0.33h-13.203c-4.874,0-9.85,0.109-17.467,0.33c-0.813-0.661-0.813-3.305,0-3.855l4.773-0.771
		c4.57-0.771,5.18-1.432,5.18-11.565V44.463c0-10.025-0.61-10.686-5.18-11.677l-2.539-0.552c-0.914-0.66-0.813-3.194,0.203-3.855
		c4.774,0.221,9.75,0.33,14.624,0.33h21.53c6.5,0,12.289-0.109,13.61-0.33c0.101,1.763,0.812,9.694,1.32,17.075
		c-0.406,1.211-2.742,1.432-3.758,0.441c-1.117-3.857-2.539-7.161-3.859-8.704c-1.93-2.092-4.976-3.414-9.953-3.414h-8.124
		c-3.352,0-3.352,0.22-3.352,4.296V57.349z"/>
	<path clip-path="url(#SVGID_2_)" fill="#FFFFFF" d="M245.385,83.127c0,5.176,0.406,8.701,1.727,10.463
		c1.32,1.873,3.148,2.754,10.562,2.754c9.242,0,12.086-0.33,18.078-13.106c0.812-1.103,3.146-0.663,3.857,0.66
		c-0.508,5.728-2.945,14.872-4.365,17.845c-5.383-0.22-15.133-0.33-23.461-0.33h-13.607c-4.673,0-9.751,0.11-16.048,0.33
		c-0.914-0.66-1.117-3.195-0.304-3.855l3.859-0.551c4.57-0.662,5.18-1.541,5.18-11.787V44.571c0-10.244-0.61-11.235-5.18-11.896
		l-2.945-0.441c-1.016-0.661-1.016-3.195,0.203-3.855c5.281,0.221,10.359,0.33,15.235,0.33c4.875,0,9.953-0.109,15.029-0.33
		c0.812,0.66,0.812,3.194,0,3.855l-2.641,0.441c-4.57,0.771-5.18,1.652-5.18,11.896V83.127z"/>
	<path clip-path="url(#SVGID_2_)" fill="#FFFFFF" d="M304.79,85.33c0,10.353,0.609,11.125,5.281,12.007l2.844,0.55
		c0.814,0.661,0.711,3.195-0.1,3.855c-5.486-0.221-10.461-0.33-15.234-0.33c-4.875,0-9.953,0.109-15.438,0.33
		c-0.812-0.66-0.812-3.194,0-3.855l2.844-0.55c4.672-0.882,5.281-1.654,5.281-12.007V44.793c0-10.355-0.609-11.126-5.281-12.007
		l-2.844-0.552c-0.812-0.66-0.812-3.194,0-3.855c5.484,0.221,10.562,0.33,15.438,0.33c4.773,0,9.852-0.109,15.334-0.33
		c0.814,0.661,0.814,3.195,0,3.855l-2.844,0.552c-4.672,0.881-5.281,1.652-5.281,12.007V85.33z"/>
	<path clip-path="url(#SVGID_2_)" fill="#FFFFFF" d="M320.381,97.775c6.094-0.879,8.43-3.524,11.781-8.481
		c2.945-4.187,8.428-12.776,12.797-19.827c0.912-1.432,1.422-2.755,1.422-3.415c0-0.44-0.51-1.872-1.83-3.856
		c-3.352-5.396-9.75-16.301-14.521-23.682c-2.336-3.634-4.469-5.066-9.039-5.949l-1.727-0.33c-0.912-0.88-0.912-3.194,0.102-3.855
		c3.25,0.221,9.648,0.33,15.844,0.33c8.227,0,12.287-0.109,15.436-0.33c1.117,0.551,1.117,2.975,0.406,3.855l-2.232,0.441
		c-1.625,0.33-3.453,0.881-3.453,1.652c0,0.993,0.404,1.984,1.625,4.296c2.74,5.177,6.396,11.236,9.545,16.193
		c3.758-6.168,7.109-11.566,10.258-17.404c1.117-1.983,1.117-2.755,1.117-3.305c0-0.33-0.711-0.882-2.031-1.102l-4.062-0.771
		c-0.812-0.771-0.812-3.304,0.305-3.855c3.148,0.221,6.398,0.33,11.172,0.33c4.875,0,9.039-0.109,12.289-0.33
		c1.014,0.551,1.115,2.864,0.406,3.855l-4.266,0.661c-2.135,0.33-3.961,0.771-5.789,2.755c-4.875,5.397-9.344,12.668-14.117,19.718
		c-1.016,1.541-2.031,3.194-2.031,3.743c0,0.552,0.406,1.764,1.422,3.416c7.617,12.777,12.594,21.039,16.25,26.988
		c3.555,5.838,6.092,7.381,9.951,7.93l3.148,0.441c0.711,0.771,0.711,3.084-0.303,3.855c-4.471-0.221-7.619-0.33-15.844-0.33
		c-7.008,0-11.578,0.109-17.062,0.33c-0.912-0.441-1.32-3.305-0.305-3.855l2.742-0.33c2.541-0.33,3.758-0.883,3.758-1.543
		c0-0.881-0.406-1.871-2.945-6.498c-1.521-2.976-9.242-15.863-10.766-17.955c-3.961,6.278-8.732,14.649-12.084,21.588
		c-0.713,1.543-0.914,2.314-0.914,2.976s1.115,1.213,3.25,1.433l2.639,0.33c0.914,0.771,0.812,3.414-0.303,3.855
		c-4.471-0.221-9.039-0.33-13.305-0.33c-3.352,0-7.617,0.109-10.664,0.33c-1.014-0.551-1.32-2.973-0.406-3.637L320.381,97.775z"/>
</g>
</svg>
